<svg width="24" height="23" viewBox="0 0 24 23" fill="none" xmlns="http://www.w3.org/2000/svg">
<path d="M5.41386 15.4404C6.08005 15.5547 6.78586 15.6384 7.51775 15.6893V14.6402H8.17306V15.7257C8.8745 15.7552 9.57686 15.7552 10.2783 15.7256V14.6402H10.9336V15.6892C11.6655 15.6383 12.3714 15.5546 13.0375 15.4403V14.2966H13.6928V15.3154C14.3197 15.1832 14.9038 15.0222 15.4315 14.8341C15.5546 14.7902 15.6768 14.7438 15.798 14.695V13.51H16.4534V14.3964C17.3399 13.9362 17.8303 13.4092 17.8303 12.8918V11.3054C17.3504 11.7677 16.6153 12.1829 15.6516 12.5264C13.9297 13.1402 11.6474 13.4782 9.22509 13.4782C6.80331 13.4782 4.52145 13.1402 2.7998 12.5264C1.83603 12.1829 1.10095 11.7677 0.621094 11.3054V12.8918C0.621094 13.4093 1.11152 13.9363 1.99804 14.3965V13.51H2.65335V14.6951C2.77452 14.7439 2.89667 14.7903 3.01972 14.8341C3.54752 15.0223 4.13165 15.1832 4.75855 15.3155V14.2966H5.41386V15.4404ZM9.225 16.4032C8.54919 16.4032 7.8843 16.3768 7.23937 16.3255C7.32629 16.4905 7.74491 16.8326 9.05063 17.144C10.3686 17.4584 12.1261 17.6315 13.9992 17.6315C15.8728 17.6315 17.6304 17.4584 18.9482 17.144C20.4491 16.786 20.7778 16.3873 20.7778 16.2639C20.7778 15.9982 19.7401 15.3213 16.6679 15.0206C16.3643 15.174 16.0254 15.3182 15.6515 15.4514C13.9296 16.0652 11.6473 16.4032 9.225 16.4032ZM6.77224 8.09984V7.21296H7.42755V8.39831C7.54491 8.44553 7.6664 8.49184 7.7928 8.53694C8.3205 8.72507 8.90459 8.88609 9.53148 9.01833V7.99957H10.1868V9.14333C10.8533 9.25763 11.5596 9.3414 12.292 9.3923V8.34319H12.9473V9.42877C13.6483 9.45823 14.3502 9.45823 15.0512 9.42877V8.34319H15.7065V9.3923C16.4389 9.3414 17.1452 9.25768 17.8117 9.14333V7.99957H18.4671V9.01833C19.0939 8.88609 19.678 8.72512 20.2057 8.53694C20.3284 8.4932 20.4501 8.44698 20.5709 8.39831V7.21296H21.2263V8.09984C22.1136 7.63922 22.6045 7.11161 22.6045 6.59344C22.6038 6.06515 22.6041 5.53659 22.6043 5.00799C22.1244 5.47036 21.3894 5.88561 20.4258 6.22918C18.7041 6.84304 16.4218 7.18113 13.9993 7.18113C11.5767 7.18113 9.29443 6.84304 7.57278 6.22918C6.60906 5.88556 5.87394 5.47023 5.39407 5.00781V6.59348C5.39398 7.11161 5.88486 7.63922 6.77224 8.09984Z" fill="url(#paint0_linear_946_24386)"/>
<path d="M20.4262 18.8244C18.7044 19.4382 16.4221 19.7762 13.9997 19.7762C11.5774 19.7762 9.29511 19.4382 7.57329 18.8244C6.60956 18.481 5.87444 18.0657 5.39453 17.6035V19.1899C5.39453 19.7076 5.88541 20.2348 6.77278 20.6953V19.8094H7.4281V20.9937C7.54889 21.0423 7.67065 21.0885 7.7933 21.1322C8.321 21.3203 8.90513 21.4813 9.53198 21.6135V20.5947H10.1873V21.7385C10.8538 21.8528 11.5601 21.9365 12.2925 21.9874V20.9383H12.9478V22.0238C13.6488 22.0533 14.3507 22.0533 15.0517 22.0238V20.9383H15.707V21.9874C16.4394 21.9365 17.1457 21.8528 17.8122 21.7385V20.5947H18.4676V21.6135C19.0944 21.4813 19.6785 21.3203 20.2062 21.1322C20.3289 21.0885 20.4506 21.0423 20.5714 20.9937V19.8094H21.2268V20.6953C22.1141 20.2349 22.605 19.7076 22.605 19.1899C22.6043 18.6614 22.6046 18.1325 22.6048 17.6037C22.1248 18.0659 21.3898 18.481 20.4262 18.8244Z" fill="url(#paint1_linear_946_24386)"/>
<path d="M18.2022 13.7876C18.0483 14.0236 17.8332 14.2505 17.5594 14.4653C19.1673 14.685 21.433 15.1859 21.433 16.2639C21.433 16.9016 20.6481 17.4122 19.1002 17.7814C17.734 18.1073 15.9225 18.2868 13.9992 18.2868C12.0763 18.2868 10.2649 18.1073 8.89856 17.7814C7.3503 17.4121 6.56526 16.9016 6.56526 16.2639L6.56535 16.262C6.17886 16.22 5.7936 16.1673 5.41004 16.1039C5.39946 16.1566 5.39407 16.2102 5.39394 16.2639C5.39394 16.9548 6.26827 17.6628 7.7927 18.2062C9.44569 18.7954 11.6498 19.1199 13.9992 19.1199C16.3485 19.1199 18.5526 18.7954 20.2056 18.2062C21.73 17.6628 22.6043 16.9549 22.6043 16.2639C22.6044 15.2854 20.8452 14.3014 18.2022 13.7876ZM3.01972 11.9092C4.67253 12.4984 6.87628 12.8228 9.225 12.8228C11.5743 12.8228 13.7784 12.4984 15.4315 11.9092C16.9559 11.3658 17.8302 10.6578 17.8302 9.96687C17.8302 9.91322 17.8248 9.86007 17.8145 9.80693C17.4308 9.87031 17.0454 9.92303 16.6588 9.96502L16.6589 9.96687C16.6589 10.6046 15.874 11.1152 14.3261 11.4844C12.9599 11.8103 11.1483 11.9898 9.225 11.9898C7.30219 11.9898 5.49075 11.8103 4.12441 11.4844C2.57615 11.1151 1.79111 10.6046 1.79111 9.96687C1.79111 8.88889 4.05719 8.38803 5.66548 8.16838C5.39169 7.95349 5.17645 7.72655 5.02249 7.49049C2.37997 8.00403 0.621094 8.98821 0.621094 9.96682C0.621094 10.6578 1.49538 11.3658 3.01972 11.9092ZM7.79275 5.61196C9.44555 6.20127 11.6497 6.52578 13.9992 6.52578C16.3486 6.52578 18.5527 6.20127 20.2056 5.61196C21.73 5.06839 22.6044 4.36002 22.6044 3.66846C22.6044 2.9775 21.73 2.26953 20.2056 1.72618C18.5526 1.13696 16.3485 0.8125 13.9992 0.8125C11.6499 0.8125 9.44578 1.13696 7.79275 1.72618C6.26827 2.26957 5.39398 2.9775 5.39398 3.66846C5.39398 4.35997 6.26827 5.06839 7.79275 5.61196ZM8.89861 2.15087C10.2649 1.82497 12.0764 1.64547 13.9992 1.64547C15.9225 1.64547 17.7341 1.82497 19.1003 2.15087C20.6482 2.52012 21.433 3.03073 21.433 3.66842C21.433 4.30615 20.6482 4.81695 19.1003 5.18665C17.7338 5.513 15.9222 5.69272 13.9992 5.69272C12.0767 5.69272 10.2652 5.513 8.89847 5.18665C7.35025 4.81699 6.56526 4.3062 6.56526 3.66842C6.56531 3.03073 7.35034 2.52021 8.89861 2.15087Z" fill="url(#paint2_linear_946_24386)"/>
<path d="M7.57295 9.15413C7.19934 9.0209 6.86067 8.87679 6.5573 8.72346C3.48456 9.02419 2.44669 9.70108 2.44669 9.96678C2.44669 10.0902 2.77547 10.4888 4.27674 10.8469C5.59474 11.1613 7.35218 11.3344 9.22531 11.3344C11.0989 11.3344 12.8565 11.1613 14.1744 10.8469C15.4797 10.5355 15.8982 10.1934 15.9851 10.0284C15.3403 10.0797 14.6754 10.1061 13.9995 10.1061C11.5769 10.1061 9.2946 9.76799 7.57295 9.15413ZM9.05098 4.54923C10.3693 4.86403 12.1267 5.03737 13.9995 5.03737C15.8727 5.03737 17.6303 4.86403 18.9484 4.54923C20.4493 4.19082 20.778 3.79189 20.778 3.66842C20.778 3.54504 20.4493 3.14629 18.9485 2.78829C17.6307 2.47389 15.873 2.30078 13.9995 2.30078C12.1263 2.30078 10.3689 2.47389 9.05089 2.78829C7.54962 3.14638 7.22088 3.54504 7.22088 3.66842C7.22084 3.79185 7.54962 4.19073 9.05098 4.54923ZM22.9137 11.1527V10.4669H22.2584V11.1527H21.5726V11.808H22.2584V12.4925H22.9137V11.808H23.5982V11.1527H22.9137ZM2.37236 17.4232H1.71709V18.1077H1.03125V18.763H1.71709V19.4475H2.37236V18.763H3.05686V18.1077H2.37236V17.4232ZM1.71709 5.12891H2.37236V4.44311H3.05686V3.7878H2.37236V3.10331H1.71709V3.7878H1.03125V4.44311H1.71709V5.12891Z" fill="url(#paint3_linear_946_24386)"/>
<defs>
<linearGradient id="paint0_linear_946_24386" x1="1.0168" y1="11.3197" x2="22.0362" y2="16.8158" gradientUnits="userSpaceOnUse">
<stop stop-color="#0DB4B6"/>
<stop offset="0.527" stop-color="#25A7DB"/>
<stop offset="1" stop-color="#0BC092"/>
</linearGradient>
<linearGradient id="paint1_linear_946_24386" x1="5.70432" y1="19.8247" x2="18.8403" y2="27.4659" gradientUnits="userSpaceOnUse">
<stop stop-color="#0DB4B6"/>
<stop offset="0.527" stop-color="#25A7DB"/>
<stop offset="1" stop-color="#0BC092"/>
</linearGradient>
<linearGradient id="paint2_linear_946_24386" x1="1.01679" y1="9.96619" x2="22.7662" y2="13.8876" gradientUnits="userSpaceOnUse">
<stop stop-color="#0DB4B6"/>
<stop offset="0.527" stop-color="#25A7DB"/>
<stop offset="1" stop-color="#0BC092"/>
</linearGradient>
<linearGradient id="paint3_linear_946_24386" x1="1.43746" y1="10.8741" x2="23.6237" y2="15.2585" gradientUnits="userSpaceOnUse">
<stop stop-color="#0DB4B6"/>
<stop offset="0.527" stop-color="#25A7DB"/>
<stop offset="1" stop-color="#0BC092"/>
</linearGradient>
</defs>
</svg>
