<svg width="20" height="23" viewBox="0 0 20 23" fill="none" xmlns="http://www.w3.org/2000/svg">
<path fill-rule="evenodd" clip-rule="evenodd" d="M19.8972 12.5123V13.8024L18.3175 14.4105C18.117 15.252 17.7836 16.0562 17.3299 16.7927L18.0174 18.3407L16.193 20.1651L14.6455 19.4778C13.9088 19.9317 13.1044 20.2652 12.2626 20.4656L11.6547 22.0449H9.07456L8.46652 20.4652C7.62499 20.2648 6.82081 19.9314 6.0843 19.4776L4.53632 20.1651L2.71183 18.3407L3.39914 16.7932C2.94524 16.0565 2.61179 15.2521 2.41138 14.4104L0.832031 13.8024V12.5123H5.30352C5.30352 15.3074 7.56948 17.5734 10.3646 17.5734C13.1597 17.5734 15.4257 15.3074 15.4257 12.5123H19.8972ZM3.97358 4.77229C4.85591 4.77229 5.57116 5.48758 5.57116 6.36987C5.57116 7.2522 4.85591 7.96745 3.97358 7.96745C3.09125 7.96745 2.376 7.2522 2.376 6.36987C2.376 5.48754 3.09125 4.77229 3.97358 4.77229ZM1.24679 11.2223H6.70034C6.75335 11.2225 6.8057 11.2106 6.85339 11.1874C6.90107 11.1643 6.94281 11.1305 6.97541 11.0887C7.00801 11.0469 7.03059 10.9981 7.04143 10.9463C7.05227 10.8944 7.05108 10.8407 7.03794 10.7893C6.69311 9.41791 5.45194 8.40252 3.97358 8.40252C2.49518 8.40252 1.25405 9.41791 0.909221 10.7893C0.896078 10.8407 0.894877 10.8944 0.905711 10.9462C0.916544 10.9981 0.939125 11.0469 0.971719 11.0887C1.00431 11.1305 1.04605 11.1643 1.09374 11.1874C1.14142 11.2106 1.19377 11.2225 1.24679 11.2223ZM9.12407 5.35483C9.05078 5.40905 8.95907 5.4322 8.86882 5.41926C8.77858 5.40632 8.69707 5.35833 8.64196 5.2857C8.58686 5.21307 8.5626 5.12164 8.57446 5.03125C8.58631 4.94085 8.63331 4.85877 8.70527 4.80279L12.1004 2.22485C12.1492 2.1878 12.207 2.16437 12.2678 2.15693C12.3286 2.14949 12.3903 2.15832 12.4466 2.18251L12.4472 2.18134L15.637 3.553L17.8835 1.50925L17.5161 1.5106C17.4251 1.50916 17.3383 1.472 17.2744 1.40712C17.2106 1.34225 17.1748 1.25488 17.1748 1.16386C17.1748 1.07283 17.2106 0.985461 17.2744 0.920591C17.3383 0.85572 17.4251 0.818554 17.5161 0.817112L18.7846 0.8125C19.0037 0.8125 19.1663 1.01265 19.125 1.22569L18.8799 2.47026C18.8711 2.51507 18.8536 2.55773 18.8284 2.59579C18.8031 2.63384 18.7706 2.66656 18.7328 2.69206C18.6949 2.71757 18.6524 2.73536 18.6076 2.74442C18.5628 2.75349 18.5167 2.75365 18.4719 2.7449C18.4271 2.73615 18.3845 2.71866 18.3464 2.69342C18.3083 2.66819 18.2756 2.6357 18.2501 2.59782C18.2246 2.55994 18.2068 2.51741 18.1978 2.47266C18.1887 2.4279 18.1885 2.3818 18.1973 2.33698L18.2391 2.12516L15.9512 4.20668C15.9019 4.2559 15.8391 4.28923 15.7708 4.30237C15.7024 4.3155 15.6317 4.30783 15.5677 4.28035L12.3573 2.89985L9.12407 5.35483ZM11.7739 5.47487H12.8458C12.9896 5.47487 13.1068 5.59214 13.1068 5.73595V10.9612C13.1068 11.105 12.9896 11.2223 12.8458 11.2223H11.7739C11.63 11.2223 11.5128 11.105 11.5128 10.9612V5.73595C11.5128 5.59218 11.6301 5.47487 11.7739 5.47487ZM8.37876 8.16425H9.45063C9.59443 8.16425 9.7117 8.28151 9.7117 8.42532V10.9612C9.7117 11.105 9.59443 11.2223 9.45063 11.2223H8.37876C8.23495 11.2223 8.11769 11.105 8.11769 10.9612V8.42532C8.11769 8.28151 8.23495 8.16425 8.37876 8.16425ZM18.5642 3.38392C18.4204 3.38392 18.3031 3.50118 18.3031 3.64499V10.9612C18.3031 11.105 18.4204 11.2223 18.5642 11.2223H19.6361C19.7799 11.2223 19.8972 11.105 19.8972 10.9612V3.64499C19.8972 3.50118 19.7799 3.38392 19.6361 3.38392H18.5642ZM15.169 6.56202H16.2409C16.3848 6.56202 16.502 6.67928 16.502 6.82309V10.9613C16.502 11.1051 16.3848 11.2223 16.2409 11.2223H15.169C15.0252 11.2223 14.908 11.1051 14.908 10.9613V6.82309C14.908 6.67928 15.0252 6.56202 15.169 6.56202ZM5.99971 12.5123C5.99971 14.9231 7.95387 16.8772 10.3646 16.8772C12.7753 16.8772 14.7295 14.9231 14.7295 12.5123H5.99971Z" fill="url(#paint0_linear_946_24374)"/>
<defs>
<linearGradient id="paint0_linear_946_24374" x1="1.1752" y1="11.4287" x2="20.303" y2="14.0076" gradientUnits="userSpaceOnUse">
<stop stop-color="#0DB4B6"/>
<stop offset="0.527" stop-color="#25A7DB"/>
<stop offset="1" stop-color="#0BC092"/>
</linearGradient>
</defs>
</svg>
