<svg width="304" height="171" viewBox="0 0 304 171" fill="none" xmlns="http://www.w3.org/2000/svg">
<path d="M2 28.9441L24.8026 67.5109C29.9193 76.1649 41.7867 77.7471 48.9919 70.736V70.736C57.107 62.8395 70.673 66.0071 74.4521 76.6808L83.9089 103.391C88.6233 116.707 106.868 118.177 113.654 105.788L114.62 104.024C119.994 94.2107 133.803 93.4501 140.223 102.613V102.613C144.273 108.394 151.787 110.596 158.317 107.917L170.727 102.824C173.052 101.87 175.255 100.645 177.291 99.1741L223.73 65.6268C227.848 62.6523 232.614 60.7007 237.636 59.9335L241.812 59.2954C254.093 57.4189 266.351 62.8208 273.253 73.1515L301.62 115.611" stroke="url(#paint0_linear_1_29722)" stroke-width="2.66667" stroke-linecap="round"/>
<path d="M1.10938 49.2108C30.9118 53.265 88.1108 78.7558 120.513 110.989C148.569 138.898 186.504 120.501 197.749 98.2788C208.55 83.7602 202.365 63.6117 238.586 47.6117C274.807 31.6117 307.24 100.649 302.949 102.723" stroke="white" stroke-opacity="0.2" stroke-width="0.888889"/>
<line x1="1.10938" y1="87.6112" x2="302.949" y2="87.6112" stroke="white" stroke-opacity="0.4" stroke-width="0.888889" stroke-dasharray="5.33 5.33"/>
<path d="M193.757 81.833C196.697 81.833 199.083 84.2204 199.083 87.167C199.083 90.1134 196.697 92.5 193.757 92.5C190.817 92.4997 188.432 90.1132 188.432 87.167C188.432 84.2206 190.817 81.8333 193.757 81.833Z" fill="#C40A0A" stroke="white" stroke-width="1.77778"/>
<path d="M75.6826 81.833C78.6227 81.833 81.0088 84.2204 81.0088 87.167C81.0086 90.1134 78.6226 92.5 75.6826 92.5C72.7429 92.4997 70.3577 90.1132 70.3574 87.167C70.3574 84.2206 72.7427 81.8333 75.6826 81.833Z" fill="#C40A0A" stroke="white" stroke-width="1.77778"/>
<g filter="url(#filter0_f_1_29722)">
<rect x="78.3477" y="45.3887" width="120.736" height="80.8889" fill="url(#paint1_linear_1_29722)"/>
</g>
<path d="M105.82 66.1907H94.9823V65.0813H105.82V66.1907ZM117.429 64.9676H127.015V60.5444H128.138V70.5H127.015V66.0911H117.429C115.907 66.0911 114.67 64.8396 114.67 63.3178V60.5444H115.779C115.779 61.4689 115.779 62.3933 115.779 63.3178C115.779 64.228 116.519 64.9676 117.429 64.9676ZM143.822 63.3178C143.822 64.2138 143.381 65.0244 142.712 65.5222C143.381 66.0342 143.822 66.8449 143.822 67.7409C143.822 69.2627 142.57 70.5 141.048 70.5H133.112C131.59 70.5 130.353 69.2627 130.353 67.7409C130.353 66.8449 130.78 66.0342 131.448 65.5222C130.78 65.0244 130.353 64.2138 130.353 63.3178C130.353 61.796 131.59 60.5444 133.112 60.5444H141.048C142.57 60.5444 143.822 61.796 143.822 63.3178ZM141.048 69.3907C141.958 69.3907 142.698 68.6511 142.698 67.7409C142.698 66.8307 141.958 66.0911 141.048 66.0911H133.112C132.202 66.0911 131.462 66.8307 131.462 67.7409C131.462 68.6511 132.202 69.3907 133.112 69.3907H141.048ZM141.048 64.9676C141.958 64.9676 142.698 64.228 142.698 63.3178C142.698 62.4076 141.958 61.668 141.048 61.668H133.112C132.202 61.668 131.462 62.4076 131.462 63.3178C131.462 64.228 132.202 64.9676 133.112 64.9676H141.048ZM154.168 66.0911V69.3907H163.754C164.664 69.3907 165.403 68.6511 165.403 67.7409C165.403 66.8307 164.664 66.0911 163.754 66.0911H154.168ZM153.058 61.668V60.5444H163.754C165.275 60.5444 166.527 61.796 166.527 63.3178C166.527 64.228 166.086 65.0244 165.418 65.5364C166.086 66.0342 166.527 66.8307 166.527 67.7409C166.527 69.2627 165.275 70.5142 163.754 70.5142H153.058V64.9676H163.754C164.664 64.9676 165.403 64.228 165.403 63.3178C165.403 62.4076 164.664 61.668 163.754 61.668H153.058ZM171.209 60.5444H181.918V61.668H171.209C170.299 61.668 169.559 62.4076 169.559 63.3178V64.9676H177.907V66.0911H169.559V70.5H168.45V63.3036C168.45 61.7818 169.687 60.5444 171.209 60.5444ZM189.984 67.7409L184.367 62.1231V70.5H183.257V60.5444H184.367L189.984 66.1622L195.602 60.5444H196.726V70.5H195.602V62.1231L189.984 67.7409Z" fill="#C40A0A"/>
<defs>
<filter id="filter0_f_1_29722" x="33.9032" y="0.944225" width="209.625" height="169.778" filterUnits="userSpaceOnUse" color-interpolation-filters="sRGB">
<feFlood flood-opacity="0" result="BackgroundImageFix"/>
<feBlend mode="normal" in="SourceGraphic" in2="BackgroundImageFix" result="shape"/>
<feGaussianBlur stdDeviation="22.2222" result="effect1_foregroundBlur_1_29722"/>
</filter>
<linearGradient id="paint0_linear_1_29722" x1="1.11224" y1="77.833" x2="302.952" y2="77.833" gradientUnits="userSpaceOnUse">
<stop stop-color="#C40A0A"/>
<stop offset="0.233617" stop-color="white"/>
<stop offset="0.454807" stop-color="#C40A0A"/>
<stop offset="0.846154" stop-color="white"/>
<stop offset="0.9375" stop-color="#C40A0A"/>
</linearGradient>
<linearGradient id="paint1_linear_1_29722" x1="138.716" y1="45.3887" x2="138.716" y2="126.278" gradientUnits="userSpaceOnUse">
<stop stop-color="#C40A0A" stop-opacity="0.15"/>
<stop offset="1" stop-color="#C40A0A" stop-opacity="0.05"/>
</linearGradient>
</defs>
</svg>
