<svg width="1318" height="385" viewBox="0 0 1318 385" fill="none" xmlns="http://www.w3.org/2000/svg">
<line x1="18.6332" y1="6.78223" x2="18.6332" y2="380.79" stroke="white" stroke-opacity="0.1" stroke-width="1.26648"/>
<line x1="99.0368" y1="6.99219" x2="99.0368" y2="381" stroke="white" stroke-opacity="0.1" stroke-width="1.26648"/>
<line x1="157.051" y1="6.78223" x2="157.051" y2="380.79" stroke="white" stroke-opacity="0.1" stroke-width="1.26648"/>
<line x1="234.403" y1="6.78223" x2="234.403" y2="380.79" stroke="white" stroke-opacity="0.1" stroke-width="1.26648"/>
<line x1="311.754" y1="6.78223" x2="311.754" y2="380.79" stroke="white" stroke-opacity="0.1" stroke-width="1.26648"/>
<line x1="389.105" y1="6.78223" x2="389.105" y2="380.79" stroke="white" stroke-opacity="0.1" stroke-width="1.26648"/>
<line x1="466.456" y1="6.78223" x2="466.456" y2="380.79" stroke="white" stroke-opacity="0.1" stroke-width="1.26648"/>
<line x1="543.808" y1="6.78223" x2="543.808" y2="380.79" stroke="white" stroke-opacity="0.1" stroke-width="1.26648"/>
<line x1="621.159" y1="6.78223" x2="621.159" y2="380.79" stroke="white" stroke-opacity="0.1" stroke-width="1.26648"/>
<line x1="698.51" y1="6.78223" x2="698.51" y2="380.79" stroke="white" stroke-opacity="0.1" stroke-width="1.26648"/>
<line x1="775.862" y1="6.78223" x2="775.862" y2="380.79" stroke="white" stroke-opacity="0.1" stroke-width="1.26648"/>
<line x1="838.962" y1="6" x2="838.962" y2="380.791" stroke="white" stroke-opacity="0.1" stroke-width="1.26648"/>
<line x1="902.062" y1="6" x2="902.062" y2="380.791" stroke="white" stroke-opacity="0.1" stroke-width="1.26648"/>
<line x1="965.167" y1="6" x2="965.167" y2="380.791" stroke="white" stroke-opacity="0.1" stroke-width="1.26648"/>
<line x1="1028.27" y1="6" x2="1028.27" y2="380.791" stroke="white" stroke-opacity="0.1" stroke-width="1.26648"/>
<line x1="1091.37" y1="6" x2="1091.37" y2="380.791" stroke="white" stroke-opacity="0.1" stroke-width="1.26648"/>
<line x1="1154.47" y1="6" x2="1154.47" y2="380.791" stroke="white" stroke-opacity="0.1" stroke-width="1.26648"/>
<line x1="1217.58" y1="6" x2="1217.58" y2="380.791" stroke="white" stroke-opacity="0.1" stroke-width="1.26648"/>
<line x1="1269.48" y1="6" x2="1269.48" y2="380.791" stroke="white" stroke-opacity="0.1" stroke-width="1.26648"/>
<line x1="1268.85" y1="6.63324" x2="17.9999" y2="6.63324" stroke="white" stroke-opacity="0.1" stroke-width="1.26648"/>
<line x1="1268.85" y1="48.103" x2="17.9999" y2="48.103" stroke="white" stroke-opacity="0.1" stroke-width="1.26648"/>
<line x1="1268.85" y1="89.5717" x2="17.9999" y2="89.5717" stroke="white" stroke-opacity="0.1" stroke-width="1.26648"/>
<line x1="1268.85" y1="131.041" x2="17.9999" y2="131.041" stroke="white" stroke-opacity="0.1" stroke-width="1.26648"/>
<line x1="1268.85" y1="172.512" x2="17.9999" y2="172.512" stroke="white" stroke-opacity="0.1" stroke-width="1.26648"/>
<line x1="1268.85" y1="256.233" x2="17.9999" y2="256.233" stroke="white" stroke-opacity="0.1" stroke-width="1.26648"/>
<line x1="1268.85" y1="339.955" x2="17.9999" y2="339.955" stroke="white" stroke-opacity="0.1" stroke-width="1.26648"/>
<line x1="1268.85" y1="213.981" x2="17.9999" y2="213.981" stroke="white" stroke-opacity="0.1" stroke-width="1.26648"/>
<line x1="1268.85" y1="297.703" x2="17.9999" y2="297.703" stroke="white" stroke-opacity="0.1" stroke-width="1.26648"/>
<line x1="1268.85" y1="381.424" x2="17.9999" y2="381.424" stroke="white" stroke-opacity="0.1" stroke-width="1.26648"/>
<g filter="url(#filter0_d_1_3319)">
<path d="M19.0173 299.549L21.9222 295.047C24.8271 290.545 30.637 281.542 36.4468 269.314C42.2566 257.086 48.0664 241.633 53.8762 241.143C59.686 240.653 65.4958 255.127 71.3057 264.744C77.1155 274.362 82.9253 279.125 88.7351 285.984C94.5449 292.844 100.355 301.8 106.165 284.684C111.974 267.569 117.784 224.382 123.594 225.275C129.404 226.168 135.214 271.14 141.023 271.508C146.833 271.876 152.643 227.64 158.453 219.88C164.263 212.12 170.073 240.837 175.882 258.708C181.692 276.578 187.502 283.603 193.312 289.606C199.122 295.608 204.931 300.59 210.741 290.084C216.551 279.578 222.361 253.586 228.171 248.079C233.98 242.572 239.79 257.551 245.6 248.017C251.41 238.482 257.22 204.434 263.03 186.629C268.839 168.824 274.649 167.262 280.459 184.6C286.269 201.938 292.079 238.177 297.888 248.939C303.698 259.701 309.508 244.986 315.318 255.584C321.128 266.181 326.937 302.09 332.747 309.946C338.557 317.802 344.367 297.605 350.177 275.563C355.987 253.522 361.796 229.636 367.606 228.47C373.416 227.303 379.226 248.855 385.036 251.235C390.845 253.615 396.655 236.823 402.465 232.571C408.275 228.32 414.085 236.608 419.895 239.953C425.704 243.297 431.514 241.697 434.419 240.897L444.448 239.953" stroke="url(#paint0_linear_1_3319)" stroke-width="3"/>
</g>
<g filter="url(#filter1_d_1_3319)">
<path d="M869.905 180.706L866.951 185.211C863.997 189.716 858.09 198.726 852.182 210.963C846.274 223.2 840.367 238.664 834.459 239.154C828.551 239.644 822.644 225.16 816.736 215.535C810.828 205.91 804.921 201.144 799.013 194.28C793.105 187.415 787.198 178.453 781.29 195.581C775.383 212.709 769.475 255.927 763.567 255.034C757.66 254.14 751.752 209.135 745.844 208.767C739.937 208.399 734.029 252.667 728.121 260.433C722.214 268.198 716.306 239.46 710.399 221.577C704.491 203.693 698.583 196.663 692.676 190.656C686.768 184.649 680.86 179.664 674.953 190.177C669.045 200.691 663.137 226.702 657.23 232.213C651.322 237.724 645.415 222.734 639.507 232.275C633.599 241.817 627.692 275.89 621.784 293.708C615.876 311.526 609.969 313.09 604.061 295.739C598.153 278.388 592.246 242.123 586.338 231.353C580.431 220.583 574.523 235.308 568.615 224.703C562.708 214.098 556.8 178.162 550.892 170.3C544.985 162.439 539.077 182.651 533.169 204.709C527.262 226.766 521.354 250.669 515.447 251.837C509.539 253.005 503.631 231.437 497.724 229.055C491.816 226.673 485.908 243.478 480.001 247.732C474.093 251.987 468.185 243.692 462.278 240.345C456.37 236.999 450.462 238.6 447.509 239.401L444.225 240.041" stroke="url(#paint1_linear_1_3319)" stroke-width="3"/>
</g>
<g filter="url(#filter2_d_1_3319)">
<path d="M863.773 190.029L866.586 185.296C869.844 180.799 875.025 171.791 880.651 159.563C886.277 147.335 891.903 131.882 897.529 131.392C903.155 130.902 908.781 145.376 914.407 154.994C920.033 164.611 925.659 169.374 931.286 176.233C936.912 183.093 942.538 192.049 948.164 174.933C953.79 157.818 959.416 114.631 965.042 115.524C970.668 116.417 976.294 161.389 981.92 161.757C987.546 162.125 993.172 117.889 998.798 110.129C1004.42 102.369 1010.05 131.086 1015.68 148.957C1021.3 166.827 1026.93 173.852 1032.55 179.855C1038.18 185.857 1043.81 190.839 1049.43 180.333C1055.06 169.827 1060.68 143.835 1066.31 138.328C1071.94 132.821 1077.56 147.8 1083.19 138.266C1088.81 128.731 1094.44 94.6833 1100.07 76.8781C1105.69 59.0729 1111.32 57.5107 1116.95 74.8489C1122.57 92.1871 1128.2 128.426 1133.82 139.188C1139.45 149.95 1145.08 135.235 1150.7 145.833C1156.33 156.43 1161.95 192.339 1167.58 200.195C1173.21 208.051 1178.83 187.854 1184.46 165.812C1190.08 143.771 1195.71 119.885 1201.34 118.719C1206.96 117.552 1212.59 139.104 1218.21 141.484C1223.84 143.864 1229.47 127.072 1235.09 122.82C1240.72 118.569 1246.34 126.857 1251.97 130.202C1257.6 133.546 1263.22 131.946 1266.04 131.146L1268.85 130.346" stroke="url(#paint2_linear_1_3319)" stroke-width="3"/>
</g>
<path d="M1283.03 85.53L1284.55 83.92H1285.69V83.08H1286.53V83.92H1287.7L1289.19 85.53V87.224H1288.34V85.866L1287.32 84.76H1286.53V88.218L1289.19 89.184V91.69L1287.7 93.3H1286.53V94.35H1285.69V93.3H1284.55L1283.03 91.69V90.024H1283.89V91.354L1284.91 92.446H1285.69V88.806L1283.03 87.854V85.53ZM1287.32 92.446L1288.34 91.354V89.772L1286.53 89.114V92.446H1287.32ZM1283.89 85.866V87.238L1285.69 87.91V84.76H1284.91L1283.89 85.866ZM1294.28 93.804L1298.83 86.244L1297.6 84.396H1293.6V83.5H1298.08L1299.88 86.23L1295.05 94.266L1294.28 93.804ZM1302.57 94L1300.86 91.452V86.048L1302.57 83.5H1306.3L1308 86.048V91.452L1306.3 94H1302.57ZM1305.83 93.132L1307.12 91.2V86.314L1305.83 84.382H1303.03L1301.73 86.314V91.2L1303.03 93.132H1305.83ZM1310.95 94L1309.25 91.452V86.048L1310.95 83.5H1314.68L1316.39 86.048V91.452L1314.68 94H1310.95ZM1314.22 93.132L1315.5 91.2V86.314L1314.22 84.382H1311.42L1310.11 86.314V91.2L1311.42 93.132H1314.22Z" fill="white"/>
<path d="M1282.85 44.53L1284.36 42.92H1285.51V42.08H1286.35V42.92H1287.51L1289.01 44.53V46.224H1288.15V44.866L1287.13 43.76H1286.35V47.218L1289.01 48.184V50.69L1287.51 52.3H1286.35V53.35H1285.51V52.3H1284.36L1282.85 50.69V49.024H1283.7V50.354L1284.72 51.446H1285.51V47.806L1282.85 46.854V44.53ZM1287.13 51.446L1288.15 50.354V48.772L1286.35 48.114V51.446H1287.13ZM1283.7 44.866V46.238L1285.51 46.91V43.76H1284.72L1283.7 44.866ZM1300.75 48.926V50.452L1299.05 53H1295.31L1293.62 50.452V48.926L1295.02 46.924L1293.68 45.02L1295.31 42.5H1299.05L1300.69 45.02L1299.35 46.924L1300.75 48.926ZM1294.73 45.006L1295.76 46.49H1298.59L1299.64 45.006L1298.59 43.368H1295.78L1294.73 45.006ZM1299.86 49.192L1298.59 47.344H1295.78L1294.49 49.192V50.2L1295.78 52.132H1298.59L1299.86 50.2V49.192ZM1303.58 53L1301.87 50.452V45.048L1303.58 42.5H1307.3L1309.01 45.048V50.452L1307.3 53H1303.58ZM1306.84 52.132L1308.13 50.2V45.314L1306.84 43.382H1304.04L1302.74 45.314V50.2L1304.04 52.132H1306.84ZM1311.96 53L1310.25 50.452V45.048L1311.96 42.5H1315.68L1317.39 45.048V50.452L1315.68 53H1311.96ZM1315.22 52.132L1316.51 50.2V45.314L1315.22 43.382H1312.42L1311.12 45.314V50.2L1312.42 52.132H1315.22Z" fill="white"/>
<path d="M1282.71 3.53L1284.22 1.92H1285.37V1.08H1286.21V1.92H1287.37L1288.87 3.53V5.224H1288.02V3.866L1286.99 2.76H1286.21V6.218L1288.87 7.184V9.69L1287.37 11.3H1286.21V12.35H1285.37V11.3H1284.22L1282.71 9.69V8.024H1283.56V9.354L1284.59 10.446H1285.37V6.806L1282.71 5.854V3.53ZM1286.99 10.446L1288.02 9.354V7.772L1286.21 7.114V10.446H1286.99ZM1283.56 3.866V5.238L1285.37 5.91V2.76H1284.59L1283.56 3.866ZM1293.48 5.896V4.048L1295.18 1.5H1298.92L1300.61 4.048V9.452L1298.92 12H1295.18L1293.86 10.012L1294.59 9.536L1295.65 11.132H1298.45L1299.73 9.2V7.156L1298.92 8.346H1295.18L1293.48 5.896ZM1295.65 7.464H1298.45L1299.73 5.63V4.3L1298.45 2.368H1295.65L1294.35 4.3V5.63L1295.65 7.464ZM1303.58 12L1301.87 9.452V4.048L1303.58 1.5H1307.3L1309.01 4.048V9.452L1307.3 12H1303.58ZM1306.84 11.132L1308.13 9.2V4.314L1306.84 2.382H1304.04L1302.74 4.314V9.2L1304.04 11.132H1306.84ZM1311.96 12L1310.25 9.452V4.048L1311.96 1.5H1315.68L1317.39 4.048V9.452L1315.68 12H1311.96ZM1315.22 11.132L1316.51 9.2V4.314L1315.22 2.382H1312.42L1311.12 4.314V9.2L1312.42 11.132H1315.22Z" fill="white"/>
<path d="M1282.71 126.53L1284.22 124.92H1285.37V124.08H1286.21V124.92H1287.37L1288.87 126.53V128.224H1288.02V126.866L1286.99 125.76H1286.21V129.218L1288.87 130.184V132.69L1287.37 134.3H1286.21V135.35H1285.37V134.3H1284.22L1282.71 132.69V131.024H1283.56V132.354L1284.59 133.446H1285.37V129.806L1282.71 128.854V126.53ZM1286.99 133.446L1288.02 132.354V130.772L1286.21 130.114V133.446H1286.99ZM1283.56 126.866V128.238L1285.37 128.91V125.76H1284.59L1283.56 126.866ZM1293.62 132.452V127.048L1295.32 124.5H1299.06L1300.37 126.474L1299.64 126.964L1298.59 125.368H1295.79L1294.49 127.3V129.344L1295.32 128.154H1299.06L1300.75 130.604V132.452L1299.06 135H1295.32L1293.62 132.452ZM1295.79 134.132H1298.59L1299.87 132.2V130.87L1298.59 129.036H1295.79L1294.49 130.87V132.2L1295.79 134.132ZM1303.58 135L1301.87 132.452V127.048L1303.58 124.5H1307.3L1309.01 127.048V132.452L1307.3 135H1303.58ZM1306.84 134.132L1308.13 132.2V127.314L1306.84 125.382H1304.04L1302.74 127.314V132.2L1304.04 134.132H1306.84ZM1311.96 135L1310.25 132.452V127.048L1311.96 124.5H1315.68L1317.39 127.048V132.452L1315.68 135H1311.96ZM1315.22 134.132L1316.51 132.2V127.314L1315.22 125.382H1312.42L1311.12 127.314V132.2L1312.42 134.132H1315.22Z" fill="white"/>
<path d="M1282.59 211.53L1284.1 209.92H1285.25V209.08H1286.09V209.92H1287.25L1288.75 211.53V213.224H1287.89V211.866L1286.87 210.76H1286.09V214.218L1288.75 215.184V217.69L1287.25 219.3H1286.09V220.35H1285.25V219.3H1284.1L1282.59 217.69V216.024H1283.44V217.354L1284.46 218.446H1285.25V214.806L1282.59 213.854V211.53ZM1286.87 218.446L1287.89 217.354V215.772L1286.09 215.114V218.446H1286.87ZM1283.44 211.866V213.238L1285.25 213.91V210.76H1284.46L1283.44 211.866ZM1294.84 209.36L1295.68 209.626L1294.26 214.386L1295.5 216.178H1299.66V209.486H1300.54V220H1299.66V217.074H1295.05L1293.29 214.54L1294.84 209.36ZM1303.58 220L1301.87 217.452V212.048L1303.58 209.5H1307.3L1309.01 212.048V217.452L1307.3 220H1303.58ZM1306.84 219.132L1308.13 217.2V212.314L1306.84 210.382H1304.04L1302.74 212.314V217.2L1304.04 219.132H1306.84ZM1311.96 220L1310.25 217.452V212.048L1311.96 209.5H1315.68L1317.39 212.048V217.452L1315.68 220H1311.96ZM1315.22 219.132L1316.51 217.2V212.314L1315.22 210.382H1312.42L1311.12 212.314V217.2L1312.42 219.132H1315.22Z" fill="white"/>
<path d="M1282.93 170.53L1284.44 168.92H1285.59V168.08H1286.43V168.92H1287.59L1289.09 170.53V172.224H1288.24V170.866L1287.21 169.76H1286.43V173.218L1289.09 174.184V176.69L1287.59 178.3H1286.43V179.35H1285.59V178.3H1284.44L1282.93 176.69V175.024H1283.78V176.354L1284.81 177.446H1285.59V173.806L1282.93 172.854V170.53ZM1287.21 177.446L1288.24 176.354V174.772L1286.43 174.114V177.446H1287.21ZM1283.78 170.866V172.238L1285.59 172.91V169.76H1284.81L1283.78 170.866ZM1295.33 179L1293.7 176.564L1294.43 176.074L1295.79 178.132H1298.59L1299.89 176.2V174.646L1298.59 172.812H1294.29L1294.3 168.5H1299.95V169.368H1295.17L1295.14 171.93H1299.05L1300.76 174.38V176.452L1299.05 179H1295.33ZM1303.58 179L1301.87 176.452V171.048L1303.58 168.5H1307.3L1309.01 171.048V176.452L1307.3 179H1303.58ZM1306.84 178.132L1308.13 176.2V171.314L1306.84 169.382H1304.04L1302.74 171.314V176.2L1304.04 178.132H1306.84ZM1311.96 179L1310.25 176.452V171.048L1311.96 168.5H1315.68L1317.39 171.048V176.452L1315.68 179H1311.96ZM1315.22 178.132L1316.51 176.2V171.314L1315.22 169.382H1312.42L1311.12 171.314V176.2L1312.42 178.132H1315.22Z" fill="white"/>
<path d="M1282.68 252.53L1284.2 250.92H1285.34V250.08H1286.18V250.92H1287.35L1288.84 252.53V254.224H1287.99V252.866L1286.97 251.76H1286.18V255.218L1288.84 256.184V258.69L1287.35 260.3H1286.18V261.35H1285.34V260.3H1284.2L1282.68 258.69V257.024H1283.54V258.354L1284.56 259.446H1285.34V255.806L1282.68 254.854V252.53ZM1286.97 259.446L1287.99 258.354V256.772L1286.18 256.114V259.446H1286.97ZM1283.54 252.866V254.238L1285.34 254.91V251.76H1284.56L1283.54 252.866ZM1298.37 255.134L1300.57 256.716V258.452L1298.87 261H1295.15L1293.53 258.578L1294.25 258.088L1295.61 260.132H1298.41L1299.7 258.2V257.164L1297.5 255.582H1295.64V254.714H1297.5L1299.53 253.09L1298.41 251.368H1295.61L1294.53 252.978L1293.82 252.502L1295.15 250.5H1298.87L1300.68 253.286L1298.37 255.134ZM1303.58 261L1301.87 258.452V253.048L1303.58 250.5H1307.3L1309.01 253.048V258.452L1307.3 261H1303.58ZM1306.84 260.132L1308.13 258.2V253.314L1306.84 251.382H1304.04L1302.74 253.314V258.2L1304.04 260.132H1306.84ZM1311.96 261L1310.25 258.452V253.048L1311.96 250.5H1315.68L1317.39 253.048V258.452L1315.68 261H1311.96ZM1315.22 260.132L1316.51 258.2V253.314L1315.22 251.382H1312.42L1311.12 253.314V258.2L1312.42 260.132H1315.22Z" fill="white"/>
<path d="M1282.68 293.53L1284.2 291.92H1285.34V291.08H1286.18V291.92H1287.35L1288.84 293.53V295.224H1287.99V293.866L1286.97 292.76H1286.18V296.218L1288.84 297.184V299.69L1287.35 301.3H1286.18V302.35H1285.34V301.3H1284.2L1282.68 299.69V298.024H1283.54V299.354L1284.56 300.446H1285.34V296.806L1282.68 295.854V293.53ZM1286.97 300.446L1287.99 299.354V297.772L1286.18 297.114V300.446H1286.97ZM1283.54 293.866V295.238L1285.34 295.91V292.76H1284.56L1283.54 293.866ZM1295.33 302L1293.46 299.186L1299.9 295.476V294.3L1298.59 292.368H1295.79L1294.79 293.88L1294.04 293.446L1295.33 291.5H1299.06L1300.75 294.034V295.98L1294.69 299.466L1295.79 301.132H1300.13V302H1295.33ZM1303.58 302L1301.87 299.452V294.048L1303.58 291.5H1307.3L1309.01 294.048V299.452L1307.3 302H1303.58ZM1306.84 301.132L1308.13 299.2V294.314L1306.84 292.382H1304.04L1302.74 294.314V299.2L1304.04 301.132H1306.84ZM1311.96 302L1310.25 299.452V294.048L1311.96 291.5H1315.68L1317.39 294.048V299.452L1315.68 302H1311.96ZM1315.22 301.132L1316.51 299.2V294.314L1315.22 292.382H1312.42L1311.12 294.314V299.2L1312.42 301.132H1315.22Z" fill="white"/>
<path d="M1283.1 335.53L1284.61 333.92H1285.76V333.08H1286.6V333.92H1287.76L1289.26 335.53V337.224H1288.4V335.866L1287.38 334.76H1286.6V338.218L1289.26 339.184V341.69L1287.76 343.3H1286.6V344.35H1285.76V343.3H1284.61L1283.1 341.69V340.024H1283.95V341.354L1284.97 342.446H1285.76V338.806L1283.1 337.854V335.53ZM1287.38 342.446L1288.4 341.354V339.772L1286.6 339.114V342.446H1287.38ZM1283.95 335.866V337.238L1285.76 337.91V334.76H1284.97L1283.95 335.866ZM1294.62 344V334.382H1294.01V333.5H1295.52V344H1294.62ZM1298.56 344L1296.85 341.452V336.048L1298.56 333.5H1302.28L1303.99 336.048V341.452L1302.28 344H1298.56ZM1301.82 343.132L1303.11 341.2V336.314L1301.82 334.382H1299.02L1297.72 336.314V341.2L1299.02 343.132H1301.82ZM1306.94 344L1305.23 341.452V336.048L1306.94 333.5H1310.67L1312.37 336.048V341.452L1310.67 344H1306.94ZM1310.2 343.132L1311.49 341.2V336.314L1310.2 334.382H1307.4L1306.1 336.314V341.2L1307.4 343.132H1310.2Z" fill="white"/>
<path d="M1282.38 372.53L1283.89 370.92H1285.04V370.08H1285.88V370.92H1287.04L1288.54 372.53V374.224H1287.68V372.866L1286.66 371.76H1285.88V375.218L1288.54 376.184V378.69L1287.04 380.3H1285.88V381.35H1285.04V380.3H1283.89L1282.38 378.69V377.024H1283.23V378.354L1284.25 379.446H1285.04V375.806L1282.38 374.854V372.53ZM1286.66 379.446L1287.68 378.354V376.772L1285.88 376.114V379.446H1286.66ZM1283.23 372.866V374.238L1285.04 374.91V371.76H1284.25L1283.23 372.866ZM1293.63 380.804L1298.18 373.244L1296.95 371.396H1292.94V370.5H1297.42L1299.23 373.23L1294.4 381.266L1293.63 380.804ZM1301.92 381L1300.21 378.452V373.048L1301.92 370.5H1305.64L1307.35 373.048V378.452L1305.64 381H1301.92ZM1305.18 380.132L1306.47 378.2V373.314L1305.18 371.382H1302.38L1301.08 373.314V378.2L1302.38 380.132H1305.18Z" fill="white"/>
<g filter="url(#filter3_d_1_3319)">
<path d="M719.158 127C719.158 121.477 723.635 117 729.158 117H822.507C828.03 117 832.507 121.477 832.507 127V164.732C832.507 170.085 828.292 174.489 822.944 174.722L787.687 176.263C783.495 176.446 779.863 179.227 778.593 183.227L778.113 184.739C777.547 186.521 775.062 186.621 774.355 184.889L773.379 182.499C771.903 178.884 768.458 176.459 764.558 176.288L728.722 174.722C723.374 174.489 719.158 170.085 719.158 164.732V127Z" fill="white"/>
<path d="M729.158 117.3H822.507C827.864 117.3 832.207 121.643 832.207 127V164.731C832.207 169.924 828.118 174.196 822.931 174.423L787.675 175.963C783.357 176.152 779.616 179.016 778.308 183.136L777.827 184.647C777.346 186.162 775.234 186.248 774.633 184.776L773.656 182.385C772.136 178.662 768.588 176.164 764.57 175.988L728.734 174.423C723.547 174.196 719.458 169.924 719.458 164.731V127C719.458 121.643 723.801 117.3 729.158 117.3Z" stroke="white" stroke-opacity="0.2" stroke-width="0.6"/>
</g>
<path d="M752.98 134.455V137.95H756.58C757.54 137.95 758.32 137.155 758.32 136.195C758.32 135.235 757.54 134.455 756.58 134.455H752.98ZM751.81 133.285V129.79H748.21C747.25 129.79 746.47 130.57 746.47 131.53C746.47 132.505 747.25 133.285 748.21 133.285H751.81ZM745.3 131.53C745.3 129.925 746.605 128.62 748.21 128.62H751.81V127.45H752.98V128.62H759.505V129.79H752.98V133.285H756.58C758.185 133.285 759.505 134.59 759.505 136.195C759.505 137.815 758.185 139.12 756.58 139.12H752.98V140.29H751.81V139.12H745.3V137.95H751.81V134.455H748.21C746.605 134.455 745.3 133.15 745.3 131.53ZM764.498 133.165H774.608V128.5H775.793V139H774.608V134.35H764.498C762.893 134.35 761.588 133.03 761.588 131.425V128.5H762.758C762.758 129.475 762.758 130.45 762.758 131.425C762.758 132.385 763.538 133.165 764.498 133.165ZM777.889 129.685V128.5H790.684V129.685L779.539 139H777.889L789.019 129.685H777.889ZM803.383 139H792.103V137.83H803.383C804.343 137.83 805.123 137.05 805.123 136.09C805.123 135.13 804.343 134.35 803.383 134.35H794.998C793.393 134.335 792.103 133.03 792.103 131.425V128.5H806.308V129.685H793.273V131.425C793.273 132.385 794.053 133.165 795.013 133.165H803.383C805.003 133.165 806.308 134.47 806.308 136.09C806.308 137.695 805.003 139 803.383 139Z" fill="#05001F"/>
<rect x="751.257" y="160" width="49.1818" height="14" rx="7" fill="#EB5757" fill-opacity="0.2"/>
<path d="M761.49 167.072H756.641V166.575H761.49V167.072ZM766.297 164.545C767.386 164.545 768.277 165.436 768.277 166.525V167.027C768.277 168.115 767.386 169 766.297 169H764.223C763.135 169 762.25 168.115 762.25 167.027V166.525C762.25 165.436 763.135 164.545 764.223 164.545H766.297ZM767.774 167.027V166.525C767.774 165.71 767.112 165.048 766.297 165.048H764.223C763.408 165.048 762.747 165.71 762.747 166.525V167.027C762.747 167.842 763.408 168.504 764.223 168.504H766.297C767.112 168.504 767.774 167.842 767.774 167.027ZM769.018 165.048V164.545H773.803C774.484 164.545 775.044 165.105 775.044 165.786C775.044 166.194 774.847 166.55 774.548 166.773C774.847 167.002 775.044 167.358 775.044 167.765C775.044 168.446 774.484 169 773.803 169H769.018V168.504H773.803C774.211 168.504 774.541 168.173 774.541 167.765C774.541 167.358 774.211 167.027 773.803 167.027H769.018V166.525H773.803C774.211 166.525 774.541 166.194 774.541 165.786C774.541 165.379 774.211 165.048 773.803 165.048H769.018ZM776.054 168.555C776.188 168.555 776.302 168.663 776.302 168.803C776.302 169.165 775.876 169.312 775.876 169.312C775.972 169.242 776.003 169.14 776.016 169.045C775.895 169.032 775.806 168.924 775.806 168.803C775.806 168.663 775.914 168.555 776.054 168.555ZM781.864 166.525C782.545 166.525 783.105 167.078 783.105 167.765C783.105 168.446 782.545 169 781.864 169H778.313C777.632 169 777.079 168.446 777.079 167.765V165.786C777.079 165.105 777.632 164.545 778.313 164.545H781.947V165.048H778.313C777.906 165.048 777.575 165.379 777.575 165.786V166.525H781.864ZM781.864 168.504C782.271 168.504 782.602 168.173 782.602 167.765C782.602 167.358 782.271 167.027 781.864 167.027H777.575V167.765C777.575 168.173 777.906 168.504 778.313 168.504H781.864ZM783.558 165.048V164.545H788.986V165.048L784.258 169H783.558L788.28 165.048H783.558ZM794.534 168.389C794.718 168.389 794.865 168.535 794.865 168.72C794.865 168.905 794.718 169.051 794.534 169.051C794.356 169.051 794.209 168.905 794.209 168.72C794.209 168.535 794.356 168.389 794.534 168.389ZM789.71 164.927C789.71 164.743 789.856 164.596 790.035 164.596C790.219 164.596 790.366 164.743 790.366 164.927C790.366 165.105 790.219 165.252 790.035 165.252C789.856 165.252 789.71 165.105 789.71 164.927ZM790.41 169.051H789.71L794.165 164.596H794.865L790.41 169.051Z" fill="#F85842"/>
<defs>
<filter id="filter0_d_1_3319" x="0.75708" y="153.9" width="460.832" height="176.277" filterUnits="userSpaceOnUse" color-interpolation-filters="sRGB">
<feFlood flood-opacity="0" result="BackgroundImageFix"/>
<feColorMatrix in="SourceAlpha" type="matrix" values="0 0 0 0 0 0 0 0 0 0 0 0 0 0 0 0 0 0 127 0" result="hardAlpha"/>
<feOffset/>
<feGaussianBlur stdDeviation="8.5"/>
<feComposite in2="hardAlpha" operator="out"/>
<feColorMatrix type="matrix" values="0 0 0 0 1 0 0 0 0 1 0 0 0 0 1 0 0 0 0.45 0"/>
<feBlend mode="normal" in2="BackgroundImageFix" result="effect1_dropShadow_1_3319"/>
<feBlend mode="normal" in="SourceGraphic" in2="effect1_dropShadow_1_3319" result="shape"/>
</filter>
<filter id="filter1_d_1_3319" x="426.938" y="150.068" width="461.221" height="176.379" filterUnits="userSpaceOnUse" color-interpolation-filters="sRGB">
<feFlood flood-opacity="0" result="BackgroundImageFix"/>
<feColorMatrix in="SourceAlpha" type="matrix" values="0 0 0 0 0 0 0 0 0 0 0 0 0 0 0 0 0 0 127 0" result="hardAlpha"/>
<feOffset/>
<feGaussianBlur stdDeviation="8.5"/>
<feComposite in2="hardAlpha" operator="out"/>
<feColorMatrix type="matrix" values="0 0 0 0 1 0 0 0 0 1 0 0 0 0 1 0 0 0 0.45 0"/>
<feBlend mode="normal" in2="BackgroundImageFix" result="effect1_dropShadow_1_3319"/>
<feBlend mode="normal" in="SourceGraphic" in2="effect1_dropShadow_1_3319" result="shape"/>
</filter>
<filter id="filter2_d_1_3319" x="845.483" y="44.1484" width="440.775" height="176.278" filterUnits="userSpaceOnUse" color-interpolation-filters="sRGB">
<feFlood flood-opacity="0" result="BackgroundImageFix"/>
<feColorMatrix in="SourceAlpha" type="matrix" values="0 0 0 0 0 0 0 0 0 0 0 0 0 0 0 0 0 0 127 0" result="hardAlpha"/>
<feOffset/>
<feGaussianBlur stdDeviation="8.5"/>
<feComposite in2="hardAlpha" operator="out"/>
<feColorMatrix type="matrix" values="0 0 0 0 1 0 0 0 0 1 0 0 0 0 1 0 0 0 0.45 0"/>
<feBlend mode="normal" in2="BackgroundImageFix" result="effect1_dropShadow_1_3319"/>
<feBlend mode="normal" in="SourceGraphic" in2="effect1_dropShadow_1_3319" result="shape"/>
</filter>
<filter id="filter3_d_1_3319" x="689.158" y="89" width="173.349" height="129.133" filterUnits="userSpaceOnUse" color-interpolation-filters="sRGB">
<feFlood flood-opacity="0" result="BackgroundImageFix"/>
<feColorMatrix in="SourceAlpha" type="matrix" values="0 0 0 0 0 0 0 0 0 0 0 0 0 0 0 0 0 0 127 0" result="hardAlpha"/>
<feOffset dy="2"/>
<feGaussianBlur stdDeviation="15"/>
<feComposite in2="hardAlpha" operator="out"/>
<feColorMatrix type="matrix" values="0 0 0 0 0.752941 0 0 0 0 0.85098 0 0 0 0 0.992157 0 0 0 0.42 0"/>
<feBlend mode="normal" in2="BackgroundImageFix" result="effect1_dropShadow_1_3319"/>
<feBlend mode="normal" in="SourceGraphic" in2="effect1_dropShadow_1_3319" result="shape"/>
</filter>
<linearGradient id="paint0_linear_1_3319" x1="74.3234" y1="180.758" x2="122.258" y2="357.776" gradientUnits="userSpaceOnUse">
<stop stop-color="#5FD084"/>
<stop offset="1" stop-color="#066826"/>
</linearGradient>
<linearGradient id="paint1_linear_1_3319" x1="814.566" y1="299.584" x2="766.59" y2="122.439" gradientUnits="userSpaceOnUse">
<stop stop-color="#5FD084"/>
<stop offset="1" stop-color="#066826"/>
</linearGradient>
<linearGradient id="paint2_linear_1_3319" x1="916.433" y1="71.0069" x2="966.425" y2="246.788" gradientUnits="userSpaceOnUse">
<stop stop-color="#5FD084"/>
<stop offset="1" stop-color="#066826"/>
</linearGradient>
</defs>
</svg>
