<svg width="18" height="16" viewBox="0 0 18 16" fill="none" xmlns="http://www.w3.org/2000/svg">
<path d="M17.846 2.1754C17.7311 2.04559 17.546 2.01294 17.3941 2.09301C17.2996 2.14276 17.122 2.20805 16.9112 2.27257C17.1772 1.90878 17.3911 1.50146 17.4855 1.13533C17.5263 0.977535 17.4666 0.811186 17.3366 0.717129C17.2067 0.623849 17.0336 0.623849 16.9036 0.717129C16.6988 0.864044 15.7103 1.30557 15.0853 1.4486C13.6728 0.176105 12.0291 0.0439591 10.3204 1.07004C8.93131 1.90411 8.62901 3.60025 8.68796 4.6341C5.50857 4.31929 3.53231 2.59205 2.41986 1.16254C2.34202 1.06226 2.21657 1.00941 2.09867 1.01718C1.97473 1.02651 1.86288 1.09724 1.7994 1.20685C1.2734 2.12021 1.12755 3.12997 1.37921 4.12728C1.51675 4.67142 1.75708 5.15103 2.03595 5.5397C1.90218 5.47207 1.77295 5.38734 1.65127 5.28629C1.53942 5.19145 1.38299 5.17357 1.25073 5.23654C1.11923 5.30106 1.03535 5.43787 1.03535 5.58789C1.03535 7.30035 2.07676 8.44303 3.04939 9.04002C2.8922 9.02059 2.7282 8.98483 2.5627 8.93275C2.42062 8.88844 2.26645 8.93275 2.1682 9.0478C2.06995 9.16206 2.04653 9.3253 2.10774 9.46445C2.65414 10.7074 3.6895 11.5625 4.97048 11.8726C3.85199 12.5481 2.35487 12.8793 0.983956 12.7168C0.806358 12.6912 0.637072 12.807 0.581147 12.9827C0.525223 13.1583 0.598529 13.3511 0.754967 13.4413C2.83476 14.6423 4.71504 15.0713 6.33988 15.0713C8.70459 15.0713 10.5297 14.1634 11.6406 13.404C14.6356 11.3596 16.5023 7.68902 16.2423 4.40479C16.7222 4.04022 17.4402 3.36705 17.8853 2.64336C17.9775 2.49722 17.9609 2.30444 17.846 2.1754Z" fill="url(#paint0_linear_946_23935)"/>
<defs>
<linearGradient id="paint0_linear_946_23935" x1="2.82219" y1="1.2678" x2="12.228" y2="14.7279" gradientUnits="userSpaceOnUse">
<stop stop-color="#33A0EA"/>
<stop offset="1" stop-color="#0AC488"/>
</linearGradient>
</defs>
</svg>
