<svg width="16" height="16" viewBox="0 0 16 16" fill="none" xmlns="http://www.w3.org/2000/svg">
<path d="M8.67034 7.83297C8.54368 7.83297 8.41701 7.7863 8.31701 7.6863C8.22402 7.59221 8.17188 7.46526 8.17188 7.33297C8.17188 7.20068 8.22402 7.07373 8.31701 6.97964L10.9837 4.31297C11.177 4.11964 11.497 4.11964 11.6903 4.31297C11.8837 4.5063 11.8837 4.8263 11.6903 5.01964L9.02368 7.6863C8.92368 7.7863 8.79701 7.83297 8.67034 7.83297Z" fill="url(#paint0_linear_946_23758)"/>
<path d="M15.1293 3.02557C15.0912 2.93494 15.0272 2.85752 14.9454 2.80299C14.8636 2.74845 14.7676 2.71921 14.6693 2.7189H13.2826V1.33224C13.2826 1.13224 13.1626 0.94557 12.9759 0.872236C12.8844 0.834413 12.7838 0.824358 12.6866 0.843326C12.5893 0.862293 12.4999 0.909444 12.4293 0.978903L11.0159 2.39224C10.9221 2.48591 10.8694 2.61301 10.8693 2.74557V4.63224C10.8693 4.90557 11.0959 5.13224 11.3693 5.13224H13.2559C13.3893 5.13224 13.5159 5.0789 13.6093 4.98557L15.0226 3.57224C15.1626 3.43224 15.2093 3.21224 15.1293 3.02557ZM8.66927 8.4989C8.51579 8.49988 8.36364 8.47037 8.22166 8.41208C8.07967 8.3538 7.95067 8.2679 7.84214 8.15937C7.73361 8.05084 7.64771 7.92184 7.58943 7.77985C7.53114 7.63787 7.50163 7.48572 7.5026 7.33224C7.5026 7.18557 7.52927 7.04557 7.5826 6.91224C7.14927 7.0789 6.83594 7.50557 6.83594 7.9989C6.83594 8.6389 7.3626 9.16557 8.0026 9.16557C8.49594 9.16557 8.91594 8.85224 9.08927 8.4189C8.95594 8.47224 8.81594 8.4989 8.66927 8.4989Z" fill="url(#paint1_linear_946_23758)"/>
<path d="M10.1158 7.53268C10.1491 7.67935 10.1691 7.83935 10.1691 7.99935C10.1691 9.19268 9.19578 10.166 8.00245 10.166C6.80911 10.166 5.83578 9.19268 5.83578 7.99935C5.83578 6.80602 6.80911 5.83268 8.00245 5.83268C8.16245 5.83268 8.31578 5.85268 8.46911 5.88602L9.76245 4.59268C9.23578 4.31935 8.64245 4.16602 8.00911 4.16602C5.89578 4.16602 4.17578 5.88602 4.17578 7.99935C4.17578 10.1127 5.89578 11.8327 8.00911 11.8327C10.1224 11.8327 11.8424 10.1127 11.8424 7.99935C11.8424 7.36602 11.6891 6.77268 11.4158 6.24602L10.1224 7.53935L10.1158 7.53268Z" fill="url(#paint2_linear_946_23758)"/>
<path d="M14.0826 5.4595C13.8626 5.6795 13.5626 5.7995 13.2559 5.7995H12.3026C12.6426 6.45951 12.8359 7.20617 12.8359 7.99951C12.8359 10.6662 10.6693 12.8328 8.0026 12.8328C5.33594 12.8328 3.16927 10.6662 3.16927 7.99951C3.16927 5.33284 5.33594 3.16617 8.0026 3.16617C8.79594 3.16617 9.5426 3.35951 10.2026 3.69951V2.74617C10.2026 2.4395 10.3293 2.13951 10.5426 1.91951L10.9826 1.47951C10.0559 1.05284 9.0426 0.826172 8.0026 0.826172C4.04927 0.832839 0.835938 4.04617 0.835938 7.99951C0.835938 11.9528 4.04927 15.1662 8.0026 15.1662C11.9559 15.1662 15.1693 11.9528 15.1693 7.99951C15.1693 6.95951 14.9426 5.94617 14.5159 5.01951L14.0759 5.4595H14.0826Z" fill="url(#paint3_linear_946_23758)"/>
<defs>
<linearGradient id="paint0_linear_946_23758" x1="8.23782" y1="6.00047" x2="11.8977" y2="6.54977" gradientUnits="userSpaceOnUse">
<stop stop-color="#0DB4B6"/>
<stop offset="0.527" stop-color="#25A7DB"/>
<stop offset="1" stop-color="#0BC092"/>
</linearGradient>
<linearGradient id="paint1_linear_946_23758" x1="6.98592" y1="4.99978" x2="15.3099" y2="6.24974" gradientUnits="userSpaceOnUse">
<stop stop-color="#0DB4B6"/>
<stop offset="0.527" stop-color="#25A7DB"/>
<stop offset="1" stop-color="#0BC092"/>
</linearGradient>
<linearGradient id="paint2_linear_946_23758" x1="4.31378" y1="7.99935" x2="11.9728" y2="9.14935" gradientUnits="userSpaceOnUse">
<stop stop-color="#0DB4B6"/>
<stop offset="0.527" stop-color="#25A7DB"/>
<stop offset="1" stop-color="#0BC092"/>
</linearGradient>
<linearGradient id="paint3_linear_946_23758" x1="1.09394" y1="7.99617" x2="15.4132" y2="10.1452" gradientUnits="userSpaceOnUse">
<stop stop-color="#0DB4B6"/>
<stop offset="0.527" stop-color="#25A7DB"/>
<stop offset="1" stop-color="#0BC092"/>
</linearGradient>
</defs>
</svg>
