<svg width="16" height="16" viewBox="0 0 16 16" fill="none" xmlns="http://www.w3.org/2000/svg">
<g clip-path="url(#clip0_946_23785)">
<path d="M0.34375 7.65625V8.34375C0.34375 12.5719 3.77187 16 8 16C12.2281 16 15.6562 12.5719 15.6562 8.34375V7.65625H0.34375Z" fill="#DB5800"/>
<path d="M8 15.3125C12.2284 15.3125 15.6562 11.8847 15.6562 7.65625C15.6562 3.42782 12.2284 0 8 0C3.77157 0 0.34375 3.42782 0.34375 7.65625C0.34375 11.8847 3.77157 15.3125 8 15.3125Z" fill="#FFCE33"/>
<path d="M15.6562 7.65625V7.8125C15.5719 3.65625 12.175 0.3125 8 0.3125C3.825 0.3125 0.428125 3.65625 0.346875 7.8125C0.346875 7.75938 0.34375 7.70937 0.34375 7.65625C0.34375 3.42812 3.77187 0 8 0C12.2281 0 15.6562 3.42812 15.6562 7.65625ZM14.0188 8.075C14.0188 11.4 11.325 14.0938 8 14.0938C4.675 14.0938 1.98125 11.4 1.98125 8.075C1.98125 8.02187 1.98125 7.97187 1.98438 7.91875C2.06562 11.1719 4.72813 13.7812 8 13.7812C11.2719 13.7812 13.9344 11.1719 14.0188 7.91875V8.075Z" fill="#FFF0B3"/>
<path d="M14.0312 2.93984L1.09687 10.9711C0.6125 9.96797 0.34375 8.84297 0.34375 7.65547C0.34375 7.29297 0.36875 6.93984 0.41875 6.58984L10.4125 0.386719C11.8594 0.867969 13.1125 1.76484 14.0312 2.93984ZM15.5875 6.62109L3.70625 13.9961C4.45312 14.5023 5.29688 14.8836 6.2 15.0992L15.4688 9.34609C15.5906 8.80234 15.6562 8.23672 15.6562 7.65547C15.6562 7.30547 15.6312 6.95859 15.5875 6.62109ZM14.85 4.23047L1.89375 12.2742C2.10312 12.5523 2.33125 12.8148 2.57812 13.0617L15.2531 5.19297C15.1406 4.86172 15.0031 4.53984 14.85 4.23047Z" fill="#FFF0B3" fill-opacity="0.376471"/>
<path d="M7.99922 13.7816C11.3233 13.7816 14.018 11.087 14.018 7.76289C14.018 4.43883 11.3233 1.74414 7.99922 1.74414C4.67516 1.74414 1.98047 4.43883 1.98047 7.76289C1.98047 11.087 4.67516 13.7816 7.99922 13.7816Z" fill="#F28A00"/>
<path d="M14.0172 7.76289C14.0172 7.86914 14.0141 7.97539 14.0078 8.07852C13.8453 4.90352 11.2172 2.37539 7.99844 2.37539C4.77969 2.37539 2.15156 4.90352 1.98594 8.07852C1.97969 7.97227 1.97656 7.86914 1.97656 7.76289C1.97969 4.43789 4.67344 1.74414 7.99844 1.74414C11.3234 1.74414 14.0172 4.43789 14.0172 7.76289Z" fill="#DB5800"/>
<path d="M8.41562 5.40039C8.93437 5.40039 9.19375 5.70039 9.19375 6.29727H11.0813V5.98477L11.0656 5.97227C11.0063 5.37227 10.7719 4.88477 10.3656 4.51289C9.8875 4.07539 9.22188 3.85352 8.36563 3.85352C7.56875 3.85352 6.9375 4.07539 6.46875 4.51289C6 4.95039 5.76875 5.56289 5.76875 6.34727L5.80312 7.58789H4.92188V9.07539H5.84688L5.875 9.85039L5.86875 10.1535C5.85625 10.491 5.74375 10.6879 5.525 10.7441H4.9375V12.2879H11.0531V10.7504H7.575C7.8 10.5004 7.9125 10.1598 7.9125 9.72227L7.88438 9.07852H9.57812V7.59102H7.82188L7.77187 6.35039C7.77187 6.02539 7.83125 5.78789 7.95 5.63164C8.06875 5.47539 8.21875 5.40039 8.41562 5.40039Z" fill="#BC4C00"/>
<path d="M7.88203 8.76562L7.91016 9.40938C7.91016 9.84688 7.79766 10.1875 7.57266 10.4375H11.0508V11.9812H4.93828V10.4375H5.52891C5.74766 10.3812 5.86016 10.1844 5.87266 9.84688L5.87891 9.54375L5.85078 8.76875H4.92578V7.28125H5.80703L5.77266 6.04063C5.77266 5.25938 6.00703 4.64688 6.47266 4.20625C6.93828 3.76563 7.57266 3.54688 8.36953 3.54688C9.22266 3.54688 9.89141 3.76563 10.3695 4.20625C10.8477 4.64375 11.0883 5.24062 11.0883 5.99062H9.20078C9.20078 5.39062 8.94141 5.09375 8.42266 5.09375C8.22891 5.09375 8.07266 5.17187 7.95391 5.325C7.83516 5.47812 7.77578 5.71875 7.77578 6.04375L7.82578 7.28438H9.58203V8.77188L7.88203 8.76562Z" fill="#FFCE33"/>
<path d="M4.91719 7.27734H5.79844L5.76406 6.03672C5.76406 5.25547 5.99844 4.64297 6.46406 4.20234C6.92969 3.76172 7.56406 3.54297 8.36094 3.54297C9.21406 3.54297 9.88281 3.76172 10.3609 4.20234C10.5797 4.40234 10.7484 4.63984 10.8672 4.90547L9.18906 5.94609C9.17656 5.37422 8.92031 5.08672 8.41094 5.08672C8.21719 5.08672 8.06094 5.16484 7.94219 5.31797C7.82344 5.47109 7.76406 5.71172 7.76406 6.03672L7.79531 6.80859L4.91406 8.59609L4.91719 7.27734ZM11.0516 11.9805V10.4367H9.43906L6.95156 11.9805H11.0516ZM7.87969 9.76797C7.89844 9.65547 7.90781 9.53672 7.90781 9.40859L7.87969 8.76484H9.49531L9.57344 8.71484V7.50234L5.86719 9.80234V9.83984C5.85469 10.1773 5.74219 10.3742 5.52344 10.4305H4.93594V11.5898L7.87969 9.76797Z" fill="#FFF0B3" fill-opacity="0.376471"/>
</g>
<defs>
<clipPath id="clip0_946_23785">
<rect width="16" height="16" fill="white"/>
</clipPath>
</defs>
</svg>
