<svg width="297" height="110" viewBox="0 0 297 110" fill="none" xmlns="http://www.w3.org/2000/svg">
<path d="M274.577 92.2016C270.704 102.885 260.557 110 249.193 110H47.8068C36.4431 110 26.2958 102.885 22.4231 92.2016L2.12308 36.2016C-4.25858 18.597 8.78119 0 27.5067 0H269.493C288.219 0 301.259 18.597 294.877 36.2016L274.577 92.2016Z" fill="url(#paint0_linear_6274_27178)"/>
<path d="M249.193 109H47.8066C36.8639 109 27.0925 102.148 23.3633 91.8604L3.06348 35.8604C-3.08157 18.9079 9.47492 1 27.5068 1H269.493C287.525 1 300.082 18.9079 293.937 35.8604L273.637 91.8604C269.966 101.987 260.44 108.785 249.705 108.995L249.193 109Z" stroke="url(#paint1_linear_6274_27178)" stroke-opacity="0.8" stroke-width="2"/>
<defs>
<linearGradient id="paint0_linear_6274_27178" x1="321.026" y1="114.814" x2="116.191" y2="-110.805" gradientUnits="userSpaceOnUse">
<stop stop-color="#010510"/>
<stop offset="0.525" stop-color="#001016"/>
<stop offset="1" stop-color="#010510"/>
</linearGradient>
<linearGradient id="paint1_linear_6274_27178" x1="148.5" y1="36.7639" x2="148.5" y2="119.92" gradientUnits="userSpaceOnUse">
<stop stop-color="#033B15"/>
<stop offset="1" stop-color="#777777"/>
</linearGradient>
</defs>
</svg>
