<svg width="27" height="27" viewBox="0 0 27 27" fill="none" xmlns="http://www.w3.org/2000/svg">
<path fill-rule="evenodd" clip-rule="evenodd" d="M11.6047 19.9034C11.55 19.8895 11.4986 19.8649 11.4535 19.8311C11.4083 19.7972 11.3704 19.7547 11.3418 19.7061C11.3133 19.6574 11.2947 19.6036 11.2871 19.5477C11.2795 19.4918 11.2831 19.4349 11.2977 19.3804C11.3122 19.3259 11.3375 19.2748 11.3719 19.2302C11.4064 19.1855 11.4494 19.1481 11.4984 19.1202C11.5474 19.0923 11.6015 19.0744 11.6575 19.0675C11.7135 19.0607 11.7703 19.065 11.8246 19.0803C12.9016 19.3689 13.9689 19.7156 15.0608 19.9413C15.6226 20.0102 16.087 19.8306 16.2427 19.2492C16.3845 18.7203 16.0511 18.2213 15.5513 18.0486C14.0576 17.7753 12.6071 17.251 11.4667 16.8387C9.80903 16.2394 9.36281 16.1017 7.7289 17.0477L4.66074 18.8241L7.14022 23.2052L7.49467 23.0005C7.59194 22.9445 7.70749 22.9293 7.81591 22.9585L14.3671 24.7125C15.1967 24.9348 15.9822 24.8342 16.7158 24.3827C19.7262 22.5294 22.7371 20.6767 25.7474 18.823C26.2124 18.5367 26.2738 17.7574 25.9981 17.3132C25.3938 16.3395 23.7308 17.1416 23.0334 17.5477L18.0566 20.4465C17.2747 20.9018 16.4466 21.0267 15.5581 20.8845C14.1899 20.6543 12.9331 20.2593 11.6047 19.9034ZM16.7967 4.81301L18.4422 5.76302L13.3565 8.69922V10.9193C13.3561 10.9475 13.3633 10.9752 13.3774 10.9996C13.3915 11.024 13.4119 11.0441 13.4365 11.0578L14.5914 11.7247C14.6984 11.7865 14.8314 11.7097 14.8314 11.5861V9.55075L19.9171 6.6145L21.5626 7.56451C21.6643 7.62327 21.7225 7.72409 21.7225 7.84155V13.3446C21.7225 13.4621 21.6643 13.5629 21.5626 13.6216L16.7968 16.3732C16.695 16.432 16.5786 16.432 16.4769 16.3732L11.7111 13.6216C11.6093 13.5629 11.5511 13.4621 11.5511 13.3446V7.84155C11.5511 7.72409 11.6093 7.62327 11.7111 7.56451L16.4769 4.81301C16.5785 4.75425 16.695 4.75425 16.7967 4.81301ZM20.0827 2.39959C20.1223 2.35998 20.1693 2.32856 20.221 2.30713C20.2728 2.28569 20.3282 2.27466 20.3842 2.27466C20.4402 2.27466 20.4957 2.28569 20.5474 2.30713C20.5992 2.32856 20.6462 2.35998 20.6858 2.39959C20.7254 2.43919 20.7568 2.4862 20.7783 2.53794C20.7997 2.58969 20.8107 2.64515 20.8107 2.70115C20.8107 2.75716 20.7997 2.81262 20.7783 2.86436C20.7568 2.9161 20.7254 2.96312 20.6858 3.00272L19.4298 4.25872C19.3902 4.29833 19.3432 4.32974 19.2914 4.35118C19.2397 4.37261 19.1842 4.38365 19.1282 4.38365C19.0722 4.38365 19.0168 4.37261 18.965 4.35118C18.9133 4.32974 18.8663 4.29833 18.8267 4.25872C18.7871 4.21912 18.7556 4.17211 18.7342 4.12036C18.7128 4.06862 18.7017 4.01316 18.7017 3.95715C18.7017 3.90115 18.7128 3.84569 18.7342 3.79395C18.7556 3.7422 18.7871 3.69519 18.8267 3.65559L20.0827 2.39959ZM12.5877 3.00272C12.5481 2.96312 12.5167 2.9161 12.4953 2.86436C12.4738 2.81262 12.4628 2.75716 12.4628 2.70115C12.4628 2.64515 12.4738 2.58969 12.4953 2.53794C12.5167 2.4862 12.5481 2.43919 12.5877 2.39959C12.6273 2.35998 12.6743 2.32856 12.7261 2.30713C12.7778 2.28569 12.8333 2.27466 12.8893 2.27466C12.9453 2.27466 13.0008 2.28569 13.0525 2.30713C13.1042 2.32856 13.1513 2.35998 13.1909 2.39959L14.4469 3.65559C14.4865 3.69519 14.5179 3.7422 14.5393 3.79395C14.5607 3.84569 14.5718 3.90115 14.5718 3.95715C14.5718 4.01316 14.5607 4.06862 14.5393 4.12036C14.5179 4.17211 14.4865 4.21912 14.4469 4.25872C14.4073 4.29833 14.3602 4.32974 14.3085 4.35118C14.2568 4.37261 14.2013 4.38365 14.1453 4.38365C14.0893 4.38365 14.0338 4.37261 13.9821 4.35118C13.9303 4.32974 13.8833 4.29833 13.8437 4.25872L12.5877 3.00272ZM16.2102 1.25369C16.2102 1.14056 16.2552 1.03207 16.3352 0.952079C16.4151 0.872087 16.5236 0.827148 16.6368 0.827148C16.7499 0.827148 16.8584 0.872087 16.9384 0.952079C17.0184 1.03207 17.0633 1.14056 17.0633 1.25369V3.02991C17.0633 3.14303 17.0184 3.25153 16.9384 3.33152C16.8584 3.41151 16.7499 3.45645 16.6368 3.45645C16.5236 3.45645 16.4151 3.41151 16.3352 3.33152C16.2552 3.25153 16.2102 3.14303 16.2102 3.02991V1.25369ZM3.23652 18.0394L7.19332 25.0308C7.38462 25.3688 7.26455 25.802 6.92652 25.9933L5.58062 26.755C5.24259 26.9463 4.80944 26.8263 4.61814 26.4882L0.661388 19.4969C0.470085 19.1588 0.590103 18.7257 0.928189 18.5344L2.27403 17.7727C2.61206 17.5813 3.04522 17.7014 3.23652 18.0394ZM2.38269 19.1819C2.25659 19.2004 2.14298 19.2681 2.06686 19.3703C1.99073 19.4725 1.95832 19.6008 1.97676 19.7269C1.9952 19.853 2.06298 19.9666 2.16518 20.0427C2.26738 20.1189 2.39564 20.1513 2.52174 20.1328C2.64662 20.113 2.75866 20.0448 2.83358 19.9429C2.90849 19.8411 2.94024 19.7138 2.92195 19.5887C2.90365 19.4636 2.83679 19.3507 2.73584 19.2746C2.6349 19.1984 2.50801 19.1651 2.38269 19.1819Z" fill="url(#paint0_linear_946_24364)"/>
<defs>
<linearGradient id="paint0_linear_946_24364" x1="1.03098" y1="13.8366" x2="26.6163" y2="17.6153" gradientUnits="userSpaceOnUse">
<stop stop-color="#0DB4B6"/>
<stop offset="0.527" stop-color="#25A7DB"/>
<stop offset="1" stop-color="#0BC092"/>
</linearGradient>
</defs>
</svg>
