<svg width="24" height="25" viewBox="0 0 24 25" fill="none" xmlns="http://www.w3.org/2000/svg">
<path d="M17.227 5.5855H16.6235C16.524 5.23469 16.3835 4.89681 16.205 4.57886L16.6324 4.15062C16.9638 3.83327 16.9638 3.26171 16.6324 2.94436L16.0293 2.34123C15.8693 2.1813 15.6524 2.09146 15.4262 2.09146C15.2 2.09146 14.983 2.1813 14.823 2.34123L14.3948 2.76863C14.0749 2.58948 13.7379 2.44957 13.3877 2.35019V1.74664C13.3877 1.27616 13.0051 0.893555 12.5346 0.893555H11.6816C11.2111 0.893555 10.8285 1.27616 10.8285 1.74664V2.35019C10.4779 2.44957 10.1413 2.58948 9.82185 2.76863L9.3936 2.34123C9.07157 2.01877 8.50938 2.01834 8.18735 2.34123L7.58422 2.94436C7.25322 3.26171 7.2528 3.8337 7.58422 4.15062L8.01161 4.57844C7.83247 4.89834 7.69256 5.23531 7.59318 5.5855H6.99005C6.51957 5.5855 6.13697 5.9681 6.13697 6.43858V7.29166C6.13697 7.76213 6.51957 8.14474 6.99005 8.14474H7.5936C7.69299 8.49536 7.83289 8.8319 8.01204 9.15137L7.58465 9.57962C7.25322 9.89697 7.25322 10.4685 7.58465 10.7859L8.18777 11.389C8.50981 11.7119 9.07242 11.7115 9.39403 11.389L9.82185 10.9616C10.1418 11.1408 10.4787 11.2807 10.8289 11.38V11.9836C10.8289 12.4541 11.2115 12.8367 11.682 12.8367H12.5351C13.0055 12.8367 13.3882 12.4541 13.3882 11.9836V11.38C13.739 11.2805 14.0768 11.1401 14.3948 10.9616L14.823 11.389C14.983 11.5489 15.2 11.6388 15.4262 11.6388C15.6524 11.6388 15.8693 11.5489 16.0293 11.389L16.6324 10.7859C16.9634 10.4685 16.9638 9.89654 16.6324 9.57962L16.205 9.1518C16.3842 8.8319 16.5241 8.49493 16.6235 8.14474H17.227C17.6975 8.14474 18.0801 7.76213 18.0801 7.29166V6.43858C18.0801 5.9681 17.6975 5.5855 17.227 5.5855ZM12.1085 9.42436C10.6971 9.42436 9.54929 8.27654 9.54929 6.86512C9.54929 5.4537 10.6971 4.30588 12.1085 4.30588C13.52 4.30588 14.6678 5.4537 14.6678 6.86512C14.6678 8.27654 13.52 9.42436 12.1085 9.42436ZM17.4343 11.1476C17.6307 10.8642 17.7357 10.5275 17.7355 10.1827C17.7355 9.87607 17.6501 9.58431 17.4991 9.32668L20.4495 9.96777L17.4343 11.1476ZM6.78275 11.1476L3.76754 9.96777L6.71792 9.32668C6.56428 9.58588 6.48269 9.88143 6.48161 10.1827C6.48161 10.5329 6.58825 10.8656 6.78275 11.1476ZM10.2859 17.5563L11.682 15.23V24.6442L2.68498 21.1244C2.44461 21.0314 2.23814 20.8676 2.09289 20.6548C1.94764 20.4419 1.87046 20.1899 1.87156 19.9322V15.4087L8.72266 18.0895C9.0042 18.2005 9.316 18.2078 9.60242 18.1101C9.88884 18.0124 10.1312 17.8162 10.2864 17.5563H10.2859ZM0.833792 14.0869C0.775796 14.0646 0.723882 14.0297 0.680959 13.9848C0.638035 13.9399 0.605596 13.8861 0.585972 13.8271C0.565502 13.7685 0.558288 13.7061 0.564853 13.6443C0.571417 13.5826 0.591596 13.5231 0.623934 13.4701L2.47853 10.3794L11.4828 13.903L9.55484 17.1174C9.50304 17.2041 9.42217 17.2695 9.32663 17.3021C9.2311 17.3346 9.12711 17.3322 9.03318 17.2953L0.833792 14.0869ZM23.6311 13.8271C23.6115 13.8861 23.5791 13.9401 23.5362 13.9851C23.4933 14.0301 23.4409 14.065 23.3828 14.0873L15.1839 17.2949C15.09 17.3318 14.9861 17.3342 14.8906 17.3016C14.7952 17.269 14.7144 17.2036 14.6627 17.117L12.7338 13.903L21.7385 10.3798L23.5931 13.4701C23.6255 13.5231 23.6457 13.5826 23.6523 13.6443C23.659 13.706 23.6514 13.7685 23.6311 13.8271ZM15.4944 18.0895L22.3455 15.4087V19.9322C22.3455 20.4624 22.0264 20.9303 21.5325 21.1239L12.5351 24.6442V15.23L13.9311 17.5563C14.0862 17.8161 14.3286 18.0123 14.6149 18.1099C14.9012 18.2076 15.2129 18.2004 15.4944 18.0895Z" fill="url(#paint0_linear_946_24354)"/>
<defs>
<linearGradient id="paint0_linear_946_24354" x1="0.978161" y1="12.7689" x2="24.0752" y2="16.1407" gradientUnits="userSpaceOnUse">
<stop stop-color="#0DB4B6"/>
<stop offset="0.527" stop-color="#25A7DB"/>
<stop offset="1" stop-color="#0BC092"/>
</linearGradient>
</defs>
</svg>
