<svg width="487" height="217" viewBox="0 0 487 217" fill="none" xmlns="http://www.w3.org/2000/svg">
<path d="M243.217 47.152L321.067 3.05195L402.067 57.502L483.967 1.25195V216.352H4.26678V17.452L84.3668 42.202L164.467 18.802L243.217 47.152Z" fill="url(#paint0_linear_5445_8147)"/>
<path d="M483.967 2.15234L402.067 58.4023L321.067 3.95234L243.217 48.0523L164.467 19.7023L84.3668 43.1023L4.26678 18.3523" stroke="#F8C524" stroke-width="1.35" stroke-linecap="round"/>
<path d="M243.667 98.9027L321.067 57.0527L402.067 79.5527L483.967 88.1027V216.803H4.26678V67.4027L84.3668 96.6527L164.467 81.3527L243.667 98.9027Z" fill="url(#paint1_linear_5445_8147)"/>
<path d="M483.967 88.1027L402.067 79.5527L321.067 57.0527L243.667 98.9027L164.467 81.3527L84.3668 96.6527L4.26678 67.4027" stroke="#0AAAA7" stroke-width="1.35" stroke-linecap="round"/>
<circle cx="83.4667" cy="95.7514" r="3.6" fill="#0AAAA7"/>
<circle cx="482.167" cy="88.5521" r="3.6" fill="#0AAAA7"/>
<path d="M244.117 139.852L321.067 94.8521L402.067 102.052L483.967 62.4521V216.352H4.26678V97.1021L84.3668 62.4521L164.467 129.502L244.117 139.852Z" fill="url(#paint2_linear_5445_8147)"/>
<path d="M483.967 62.4521L402.067 102.052L321.067 94.8521L244.117 139.852L164.467 129.502L84.3668 62.4521L4.26678 97.1021" stroke="#D7524B" stroke-width="1.35" stroke-linecap="round"/>
<path d="M243.667 164.603L321.067 120.503L402.067 111.053L483.967 116.453V216.803H4.26654V126.353L84.3665 105.653L164.467 151.103L243.667 164.603Z" fill="url(#paint3_linear_5445_8147)"/>
<path d="M483.967 116.453L402.067 111.053L321.067 120.503L243.667 164.603L164.467 151.103L84.3665 105.653L4.26653 126.353" stroke="#0AAA3A" stroke-width="1.35" stroke-linecap="round"/>
<path d="M243.667 179.002L321.067 148.402L402.517 160.102L471.817 142.102L483.967 139.402V216.802H4.26678V156.502L84.3668 138.052L164.467 184.402L243.667 179.002Z" fill="url(#paint4_linear_5445_8147)"/>
<path d="M483.967 139.402L471.817 142.102L402.517 160.102L321.067 148.402L243.667 179.002L164.467 184.402L84.3668 138.052L4.26678 156.502" stroke="#E1B8DE" stroke-width="1.35" stroke-linecap="round"/>
<circle cx="5.16665" cy="19.2523" r="3.6" fill="#F8C524"/>
<circle cx="84.3668" cy="42.6518" r="3.6" fill="#F8C524"/>
<circle cx="163.567" cy="20.1518" r="3.6" fill="#F8C524"/>
<circle cx="242.767" cy="48.0521" r="3.6" fill="#F8C524"/>
<circle cx="321.067" cy="4.85195" r="3.6" fill="#F8C524"/>
<circle cx="401.167" cy="57.9525" r="3.6" fill="#F8C524"/>
<circle cx="482.167" cy="3.95156" r="3.6" fill="#F8C524"/>
<circle cx="4.26675" cy="67.852" r="3.6" fill="#0AAAA7"/>
<circle cx="163.567" cy="81.352" r="3.6" fill="#0AAAA7"/>
<circle cx="242.767" cy="99.352" r="3.6" fill="#0AAAA7"/>
<circle cx="321.067" cy="57.9525" r="3.6" fill="#0AAAA7"/>
<circle cx="401.167" cy="78.6518" r="3.6" fill="#0AAAA7"/>
<circle cx="5.16665" cy="96.6518" r="3.6" fill="#D7524B"/>
<circle cx="84.3668" cy="62.4525" r="3.6" fill="#D7524B"/>
<circle cx="163.567" cy="129.052" r="3.6" fill="#D7524B"/>
<circle cx="242.767" cy="139.852" r="3.6" fill="#D7524B"/>
<circle cx="321.067" cy="95.7514" r="3.6" fill="#D7524B"/>
<circle cx="401.167" cy="102.052" r="3.6" fill="#D7524B"/>
<circle cx="482.167" cy="65.1518" r="3.6" fill="#D7524B"/>
<circle cx="5.16665" cy="127.251" r="3.6" fill="#0AAA3A"/>
<circle cx="84.3668" cy="105.652" r="3.6" fill="#0AAA3A"/>
<circle cx="163.567" cy="150.654" r="3.6" fill="#0AAA3A"/>
<circle cx="242.767" cy="164.153" r="3.6" fill="#0AAA3A"/>
<circle cx="321.067" cy="120.953" r="3.6" fill="#0AAA3A"/>
<circle cx="482.167" cy="116.453" r="3.6" fill="#0AAA3A"/>
<circle cx="5.16665" cy="156.953" r="3.6" fill="#E1B8DE"/>
<circle cx="83.4667" cy="138.053" r="3.6" fill="#E1B8DE"/>
<circle cx="163.567" cy="184.853" r="3.6" fill="#E1B8DE"/>
<circle cx="242.767" cy="181.252" r="3.6" fill="#E1B8DE"/>
<circle cx="321.067" cy="147.052" r="3.6" fill="#E1B8DE"/>
<circle cx="401.167" cy="158.751" r="3.6" fill="#E1B8DE"/>
<circle cx="483.067" cy="139.852" r="3.6" fill="#E1B8DE"/>
<defs>
<linearGradient id="paint0_linear_5445_8147" x1="241.867" y1="-7.29804" x2="243.476" y2="218.04" gradientUnits="userSpaceOnUse">
<stop stop-color="#F7C224"/>
<stop offset="1" stop-color="#1D1E26" stop-opacity="0"/>
</linearGradient>
<linearGradient id="paint1_linear_5445_8147" x1="246.817" y1="56.1527" x2="243.506" y2="274.27" gradientUnits="userSpaceOnUse">
<stop stop-color="#0AABA6"/>
<stop offset="1" stop-color="#1D1E26" stop-opacity="0"/>
</linearGradient>
<linearGradient id="paint2_linear_5445_8147" x1="251.767" y1="53.0021" x2="243.495" y2="273.8" gradientUnits="userSpaceOnUse">
<stop stop-color="#D8534C"/>
<stop offset="1" stop-color="#1D1E26" stop-opacity="0"/>
</linearGradient>
<linearGradient id="paint3_linear_5445_8147" x1="251.767" y1="80.9033" x2="243.607" y2="274.251" gradientUnits="userSpaceOnUse">
<stop stop-color="#0AAA3A"/>
<stop offset="1" stop-color="#1D1E26" stop-opacity="0"/>
</linearGradient>
<linearGradient id="paint4_linear_5445_8147" x1="249.517" y1="129.052" x2="243.805" y2="274.26" gradientUnits="userSpaceOnUse">
<stop stop-color="#E0B7DC"/>
<stop offset="1" stop-color="#1D1E26" stop-opacity="0"/>
</linearGradient>
</defs>
</svg>
