<svg width="1300" height="168" viewBox="0 0 1300 168" fill="none" xmlns="http://www.w3.org/2000/svg">
<rect width="1300" height="167.711" rx="28.4257" fill="url(#paint0_linear_653_838)"/>
<mask id="mask0_653_838" style="mask-type:alpha" maskUnits="userSpaceOnUse" x="0" y="0" width="1300" height="168">
<rect width="1300" height="167.711" rx="28.4257" fill="url(#paint1_linear_653_838)"/>
</mask>
<g mask="url(#mask0_653_838)">
<g filter="url(#filter0_f_653_838)">
<ellipse cx="778.579" cy="137.317" rx="201.414" ry="50.5061" transform="rotate(20.6751 778.579 137.317)" fill="#7742FF"/>
</g>
<g style="mix-blend-mode:overlay">
<path d="M384.143 159.752C384.143 161.931 383.051 163.7 381.702 163.7C380.354 163.7 379.262 161.933 379.262 159.752C379.262 157.571 380.354 155.805 381.702 155.805C383.051 155.805 384.143 157.571 384.143 159.752Z" fill="white"/>
<path d="M531.28 42.4632C531.28 44.6443 530.188 46.4107 528.839 46.4107C527.491 46.4107 526.398 44.6443 526.398 42.4632C526.398 40.2821 527.491 38.5156 528.839 38.5156C530.188 38.5156 531.28 40.2821 531.28 42.4632Z" fill="white"/>
<path d="M817.67 95.5726C817.67 97.7512 816.578 99.5201 815.23 99.5201C813.881 99.5201 812.789 97.7537 812.789 95.5726C812.789 93.3914 813.881 91.625 815.23 91.625C816.578 91.625 817.67 93.3914 817.67 95.5726Z" fill="white"/>
<path d="M879.44 58.8675C879.44 61.0486 878.348 62.8149 876.999 62.8149C875.651 62.8149 874.559 61.0486 874.559 58.8675C874.559 56.6864 875.651 54.9199 876.999 54.9199C878.348 54.9199 879.44 56.6864 879.44 58.8675Z" fill="white"/>
<path d="M661.717 1.59013C661.717 3.76876 660.625 5.53769 659.277 5.53769C657.928 5.53769 656.836 3.77126 656.836 1.59013C656.836 -0.590993 657.928 -2.35742 659.277 -2.35742C660.625 -2.35742 661.717 -0.590993 661.717 1.59013Z" fill="white"/>
<path d="M408.663 14.6468C408.663 16.8254 407.57 18.5943 406.222 18.5943C404.873 18.5943 403.781 16.8279 403.781 14.6468C403.781 12.4656 404.873 10.6992 406.222 10.6992C407.57 10.6992 408.663 12.4656 408.663 14.6468Z" fill="white"/>
<path d="M252.346 50.7912C252.346 52.9723 251.254 54.7387 249.905 54.7387C248.557 54.7387 247.465 52.9723 247.465 50.7912C247.465 48.61 248.557 46.8438 249.905 46.8438C251.254 46.8438 252.346 48.61 252.346 50.7912Z" fill="white"/>
<path d="M392.979 71.129C392.979 73.3102 391.887 75.0766 390.538 75.0766C389.19 75.0766 388.098 73.3102 388.098 71.129C388.098 68.9479 389.19 67.1816 390.538 67.1816C391.887 67.1816 392.979 68.9479 392.979 71.129Z" fill="white"/>
<path d="M167.541 31.6136C167.541 33.7947 166.449 35.5611 165.101 35.5611C163.752 35.5611 162.66 33.7947 162.66 31.6136C162.66 29.4324 163.752 27.666 165.101 27.666C166.449 27.666 167.541 29.4324 167.541 31.6136Z" fill="white"/>
<path d="M240.69 14.2659C240.69 16.447 239.598 18.2133 238.249 18.2133C236.901 18.2133 235.809 16.447 235.809 14.2659C235.809 12.0848 236.901 10.3184 238.249 10.3184C239.598 10.3184 240.69 12.0848 240.69 14.2659Z" fill="white"/>
<path d="M123.131 54.3401C123.131 56.5188 122.039 58.2877 120.691 58.2877C119.342 58.2877 118.25 56.5213 118.25 54.3401C118.25 52.159 119.342 50.3926 120.691 50.3926C122.039 50.3926 123.131 52.159 123.131 54.3401Z" fill="white"/>
<path d="M640.823 118.395C640.823 120.576 639.731 122.342 638.382 122.342C637.034 122.342 635.941 120.576 635.941 118.395C635.941 116.214 637.034 114.447 638.382 114.447C639.731 114.447 640.823 116.214 640.823 118.395Z" fill="white"/>
<path d="M1052.35 159.526C1052.35 161.704 1051.26 163.473 1049.91 163.473C1048.56 163.473 1047.47 161.707 1047.47 159.526C1047.47 157.344 1048.56 155.578 1049.91 155.578C1051.26 155.578 1052.35 157.344 1052.35 159.526Z" fill="white"/>
<path d="M988.159 170.795C989.507 170.795 990.6 169.028 990.6 166.848C990.6 164.668 989.507 162.9 988.159 162.9C986.811 162.9 985.719 164.668 985.719 166.848C985.719 169.028 986.811 170.795 988.159 170.795Z" fill="white"/>
<path d="M1017 5.24248C1017 7.4236 1015.91 9.19003 1014.56 9.19003C1013.21 9.19003 1012.12 7.4236 1012.12 5.24248C1012.12 3.06135 1013.21 1.29492 1014.56 1.29492C1015.91 1.29492 1017 3.06135 1017 5.24248Z" fill="white"/>
<path d="M813.901 -1.87471C813.901 0.303915 812.809 2.07284 811.46 2.07284C810.112 2.07284 809.02 0.306414 809.02 -1.87471C809.02 -4.05584 810.112 -5.82227 811.46 -5.82227C812.809 -5.82227 813.901 -4.05584 813.901 -1.87471Z" fill="white"/>
<path d="M726.049 54.0218C726.049 56.2004 724.957 57.9693 723.608 57.9693C722.26 57.9693 721.168 56.2029 721.168 54.0218C721.168 51.8406 722.26 50.0742 723.608 50.0742C724.957 50.0742 726.049 51.8406 726.049 54.0218Z" fill="white"/>
<path d="M1131.66 90.8011C1131.66 92.9797 1130.56 94.7486 1129.21 94.7486C1127.87 94.7486 1126.77 92.9822 1126.77 90.8011C1126.77 88.6199 1127.87 86.8535 1129.21 86.8535C1130.56 86.8535 1131.66 88.6199 1131.66 90.8011Z" fill="white"/>
<path d="M1212.62 137.139C1213.97 137.139 1215.06 135.372 1215.06 133.192C1215.06 131.012 1213.97 129.244 1212.62 129.244C1211.27 129.244 1210.18 131.012 1210.18 133.192C1210.18 135.372 1211.27 137.139 1212.62 137.139Z" fill="white"/>
</g>
<g style="mix-blend-mode:overlay">
<path d="M388.147 126.778C388.147 127.954 387.557 128.909 386.829 128.909C386.102 128.909 385.512 127.954 385.512 126.778C385.512 125.601 386.102 124.646 386.829 124.646C387.557 124.646 388.147 125.601 388.147 126.778Z" fill="white"/>
<path d="M385.767 162.335C386.495 162.335 387.084 161.38 387.084 160.203C387.084 159.026 386.495 158.072 385.767 158.072C385.039 158.072 384.449 159.026 384.449 160.203C384.449 161.38 385.039 162.335 385.767 162.335Z" fill="white"/>
<path d="M474.995 42.6115C474.995 43.7883 474.405 44.7428 473.677 44.7428C472.949 44.7428 472.359 43.7883 472.359 42.6115C472.359 41.4348 472.949 40.4805 473.677 40.4805C474.405 40.4805 474.995 41.4348 474.995 42.6115Z" fill="white"/>
<path d="M442.51 135.201C442.51 136.378 441.92 137.333 441.193 137.333C440.465 137.333 439.875 136.378 439.875 135.201C439.875 134.025 440.465 133.07 441.193 133.07C441.92 133.07 442.51 134.025 442.51 135.201Z" fill="white"/>
<path d="M503.815 64.264C503.815 65.4408 503.225 66.3951 502.498 66.3951C501.77 66.3951 501.18 65.4408 501.18 64.264C501.18 63.0873 501.77 62.1328 502.498 62.1328C503.225 62.1328 503.815 63.0873 503.815 64.264Z" fill="white"/>
<path d="M447.44 105.518C447.44 106.695 446.85 107.649 446.122 107.649C445.395 107.649 444.805 106.695 444.805 105.518C444.805 104.341 445.395 103.387 446.122 103.387C446.85 103.387 447.44 104.341 447.44 105.518Z" fill="white"/>
<path d="M504.577 110.504C504.577 111.681 503.987 112.635 503.259 112.635C502.531 112.635 501.941 111.681 501.941 110.504C501.941 109.327 502.531 108.373 503.259 108.373C503.987 108.373 504.577 109.327 504.577 110.504Z" fill="white"/>
<path d="M552.752 58.6351C552.752 59.8119 552.162 60.7662 551.435 60.7662C550.707 60.7662 550.117 59.8119 550.117 58.6351C550.117 57.4584 550.707 56.5039 551.435 56.5039C552.162 56.5039 552.752 57.4584 552.752 58.6351Z" fill="white"/>
<path d="M654.432 15.7328C654.432 16.9095 653.842 17.8639 653.115 17.8639C652.387 17.8639 651.797 16.9095 651.797 15.7328C651.797 14.556 652.387 13.6016 653.115 13.6016C653.842 13.6016 654.432 14.556 654.432 15.7328Z" fill="white"/>
<path d="M670.749 13.6115C670.749 14.7883 670.158 15.7428 669.431 15.7428C668.703 15.7428 668.113 14.7883 668.113 13.6115C668.113 12.4348 668.703 11.4805 669.431 11.4805C670.158 11.4805 670.749 12.4348 670.749 13.6115Z" fill="white"/>
<path d="M742.237 44.9515C742.237 46.1283 741.647 47.0826 740.919 47.0826C740.192 47.0826 739.602 46.1283 739.602 44.9515C739.602 43.7748 740.192 42.8203 740.919 42.8203C741.647 42.8203 742.237 43.7748 742.237 44.9515Z" fill="white"/>
<path d="M819.909 94.6662C819.909 95.843 819.319 96.7975 818.591 96.7975C817.863 96.7975 817.273 95.843 817.273 94.6662C817.273 93.4895 817.863 92.5352 818.591 92.5352C819.319 92.5352 819.909 93.4895 819.909 94.6662Z" fill="white"/>
<path d="M849.807 43.5451C849.807 44.7219 849.217 45.6764 848.49 45.6764C847.762 45.6764 847.172 44.7219 847.172 43.5451C847.172 42.3684 847.762 41.4141 848.49 41.4141C849.217 41.4141 849.807 42.3684 849.807 43.5451Z" fill="white"/>
<path d="M851.698 56.725C851.698 57.9017 851.108 58.856 850.38 58.856C849.653 58.856 849.062 57.9017 849.062 56.725C849.062 55.5482 849.653 54.5938 850.38 54.5938C851.108 54.5938 851.698 55.5482 851.698 56.725Z" fill="white"/>
<path d="M771.78 35.0726C771.78 36.2494 771.19 37.2037 770.462 37.2037C769.735 37.2037 769.145 36.2494 769.145 35.0726C769.145 33.8959 769.735 32.9414 770.462 32.9414C771.19 32.9414 771.78 33.8959 771.78 35.0726Z" fill="white"/>
<path d="M940.881 12.725C940.881 13.9017 940.291 14.856 939.564 14.856C938.836 14.856 938.246 13.9017 938.246 12.725C938.246 11.5482 938.836 10.5938 939.564 10.5938C940.291 10.5938 940.881 11.5482 940.881 12.725Z" fill="white"/>
<path d="M901.495 88.6879C901.495 89.8646 900.905 90.8189 900.177 90.8189C899.449 90.8189 898.859 89.8646 898.859 88.6879C898.859 87.5111 899.449 86.5566 900.177 86.5566C900.905 86.5566 901.495 87.5111 901.495 88.6879Z" fill="white"/>
<path d="M1041.27 41.6644C1041.27 42.8412 1040.68 43.7955 1039.95 43.7955C1039.22 43.7955 1038.63 42.8412 1038.63 41.6644C1038.63 40.4877 1039.22 39.5332 1039.95 39.5332C1040.68 39.5332 1041.27 40.4877 1041.27 41.6644Z" fill="white"/>
<path d="M911.502 18.0569C911.502 19.2336 910.912 20.1881 910.185 20.1881C909.457 20.1881 908.867 19.2336 908.867 18.0569C908.867 16.8801 909.457 15.9258 910.185 15.9258C910.912 15.9258 911.502 16.8801 911.502 18.0569Z" fill="white"/>
<path d="M1048.78 88.3264C1048.78 89.5031 1048.19 90.4576 1047.47 90.4576C1046.74 90.4576 1046.15 89.5031 1046.15 88.3264C1046.15 87.1496 1046.74 86.1953 1047.47 86.1953C1048.19 86.1953 1048.78 87.1496 1048.78 88.3264Z" fill="white"/>
<path d="M270.561 149.971C270.561 151.148 269.971 152.102 269.243 152.102C268.516 152.102 267.926 151.148 267.926 149.971C267.926 148.794 268.516 147.84 269.243 147.84C269.971 147.84 270.561 148.794 270.561 149.971Z" fill="white"/>
<path d="M170.116 62.0433C170.116 63.2201 169.526 64.1744 168.798 64.1744C168.071 64.1744 167.48 63.2201 167.48 62.0433C167.48 60.8666 168.071 59.9121 168.798 59.9121C169.526 59.9121 170.116 60.8666 170.116 62.0433Z" fill="white"/>
<path d="M245.13 64.6217C245.858 64.6217 246.448 63.6676 246.448 62.4906C246.448 61.3136 245.858 60.3594 245.13 60.3594C244.402 60.3594 243.812 61.3136 243.812 62.4906C243.812 63.6676 244.402 64.6217 245.13 64.6217Z" fill="white"/>
<path d="M197.26 83.0258C197.26 84.2025 196.67 85.1568 195.943 85.1568C195.215 85.1568 194.625 84.2025 194.625 83.0258C194.625 81.849 195.215 80.8945 195.943 80.8945C196.67 80.8945 197.26 81.849 197.26 83.0258Z" fill="white"/>
<path d="M291.577 25.1643C291.577 26.341 290.987 27.2955 290.259 27.2955C289.532 27.2955 288.941 26.341 288.941 25.1643C288.941 23.9875 289.532 23.0332 290.259 23.0332C290.987 23.0332 291.577 23.9875 291.577 25.1643Z" fill="white"/>
<path d="M201.362 168.514C201.362 169.691 200.772 170.645 200.044 170.645C199.317 170.645 198.727 169.691 198.727 168.514C198.727 167.337 199.317 166.383 200.044 166.383C200.772 166.383 201.362 167.337 201.362 168.514Z" fill="white"/>
<path d="M251.104 130.995C251.104 132.171 250.514 133.126 249.786 133.126C249.059 133.126 248.469 132.171 248.469 130.995C248.469 129.818 249.059 128.863 249.786 128.863C250.514 128.863 251.104 129.818 251.104 130.995Z" fill="white"/>
<path d="M680.51 31.3265C680.51 32.5033 679.92 33.4576 679.193 33.4576C678.465 33.4576 677.875 32.5033 677.875 31.3265C677.875 30.1498 678.465 29.1953 679.193 29.1953C679.92 29.1953 680.51 30.1498 680.51 31.3265Z" fill="white"/>
<path d="M647.573 104.766C647.573 105.943 646.983 106.897 646.255 106.897C645.528 106.897 644.938 105.943 644.938 104.766C644.938 103.589 645.528 102.635 646.255 102.635C646.983 102.635 647.573 103.589 647.573 104.766Z" fill="white"/>
<path d="M929.663 17.684C929.663 18.8607 929.072 19.815 928.345 19.815C927.617 19.815 927.027 18.8607 927.027 17.684C927.027 16.5072 927.617 15.5527 928.345 15.5527C929.072 15.5527 929.663 16.5072 929.663 17.684Z" fill="white"/>
<path d="M666.565 166.442C666.565 167.619 665.975 168.573 665.247 168.573C664.52 168.573 663.93 167.619 663.93 166.442C663.93 165.265 664.52 164.311 665.247 164.311C665.975 164.311 666.565 165.265 666.565 166.442Z" fill="white"/>
<path d="M799.901 106.576C799.901 107.753 799.311 108.708 798.583 108.708C797.856 108.708 797.266 107.753 797.266 106.576C797.266 105.4 797.856 104.445 798.583 104.445C799.311 104.445 799.901 105.4 799.901 106.576Z" fill="white"/>
<path d="M753.67 145.166C753.67 146.343 753.08 147.297 752.353 147.297C751.625 147.297 751.035 146.343 751.035 145.166C751.035 143.99 751.625 143.035 752.353 143.035C753.08 143.035 753.67 143.99 753.67 145.166Z" fill="white"/>
<path d="M1076.41 162.141C1076.41 163.318 1075.82 164.272 1075.09 164.272C1074.36 164.272 1073.77 163.318 1073.77 162.141C1073.77 160.964 1074.36 160.01 1075.09 160.01C1075.82 160.01 1076.41 160.964 1076.41 162.141Z" fill="white"/>
<path d="M1266.81 81.6779C1266.81 82.8547 1266.22 83.8092 1265.49 83.8092C1264.76 83.8092 1264.17 82.8547 1264.17 81.6779C1264.17 80.5012 1264.76 79.5469 1265.49 79.5469C1266.22 79.5469 1266.81 80.5012 1266.81 81.6779Z" fill="white"/>
<path d="M1109.99 45.8168C1109.99 46.9935 1109.4 47.9478 1108.67 47.9478C1107.94 47.9478 1107.35 46.9935 1107.35 45.8168C1107.35 44.64 1107.94 43.6855 1108.67 43.6855C1109.4 43.6855 1109.99 44.64 1109.99 45.8168Z" fill="white"/>
<path d="M183.334 88.2814C183.334 89.4581 182.744 90.4124 182.017 90.4124C181.289 90.4124 180.699 89.4581 180.699 88.2814C180.699 87.1046 181.289 86.1501 182.017 86.1501C182.744 86.1501 183.334 87.1046 183.334 88.2814Z" fill="white"/>
<path d="M179.917 75.764C179.917 76.9408 179.326 77.8951 178.599 77.8951C177.871 77.8951 177.281 76.9408 177.281 75.764C177.281 74.5873 177.871 73.6328 178.599 73.6328C179.326 73.6328 179.917 74.5873 179.917 75.764Z" fill="white"/>
<path d="M50.9595 88.0043C50.9595 89.181 50.3694 90.1355 49.6419 90.1355C48.9143 90.1355 48.3242 89.181 48.3242 88.0043C48.3242 86.8275 48.9143 85.873 49.6419 85.873C50.3694 85.873 50.9595 86.8275 50.9595 88.0043Z" fill="white"/>
<path d="M41.0376 87.9592C41.0376 89.136 40.4475 90.0904 39.72 90.0904C38.9924 90.0904 38.4023 89.136 38.4023 87.9592C38.4023 86.7824 38.9924 85.8281 39.72 85.8281C40.4475 85.8281 41.0376 86.7824 41.0376 87.9592Z" fill="white"/>
<path d="M136.604 47.7933C136.604 48.9701 136.014 49.9244 135.286 49.9244C134.559 49.9244 133.969 48.9701 133.969 47.7933C133.969 46.6166 134.559 45.6621 135.286 45.6621C136.014 45.6621 136.604 46.6166 136.604 47.7933Z" fill="white"/>
<path d="M65.0532 18.4047C65.0532 19.5814 64.4632 20.5357 63.7356 20.5357C63.008 20.5357 62.418 19.5814 62.418 18.4047C62.418 17.2279 63.008 16.2734 63.7356 16.2734C64.4632 16.2734 65.0532 17.2279 65.0532 18.4047Z" fill="white"/>
<path d="M1122.96 124.266C1122.96 125.443 1122.37 126.397 1121.65 126.397C1120.92 126.397 1120.33 125.443 1120.33 124.266C1120.33 123.089 1120.92 122.135 1121.65 122.135C1122.37 122.135 1122.96 123.089 1122.96 124.266Z" fill="white"/>
<path d="M1182.26 44.6037C1182.26 45.7805 1181.67 46.735 1180.94 46.735C1180.22 46.735 1179.62 45.7805 1179.62 44.6037C1179.62 43.427 1180.22 42.4727 1180.94 42.4727C1181.67 42.4727 1182.26 43.427 1182.26 44.6037Z" fill="white"/>
<path d="M1027.63 87.5338C1028.35 87.5338 1028.94 86.5796 1028.94 85.4026C1028.94 84.2256 1028.35 83.2715 1027.63 83.2715C1026.9 83.2715 1026.31 84.2256 1026.31 85.4026C1026.31 86.5796 1026.9 87.5338 1027.63 87.5338Z" fill="white"/>
<path d="M1073.56 130.475C1073.56 131.652 1072.97 132.606 1072.25 132.606C1071.52 132.606 1070.93 131.652 1070.93 130.475C1070.93 129.298 1071.52 128.344 1072.25 128.344C1072.97 128.344 1073.56 129.298 1073.56 130.475Z" fill="white"/>
<path d="M876.987 13.8225C876.987 14.9992 876.397 15.9537 875.669 15.9537C874.942 15.9537 874.352 14.9992 874.352 13.8225C874.352 12.6457 874.942 11.6914 875.669 11.6914C876.397 11.6914 876.987 12.6457 876.987 13.8225Z" fill="white"/>
<path d="M610.846 43.5549C610.846 44.7317 610.256 45.6861 609.529 45.6861C608.801 45.6861 608.211 44.7317 608.211 43.5549C608.211 42.3781 608.801 41.4238 609.529 41.4238C610.256 41.4238 610.846 42.3781 610.846 43.5549Z" fill="white"/>
<path d="M508.163 41.8871C508.163 43.0638 507.573 44.0182 506.845 44.0182C506.117 44.0182 505.527 43.0638 505.527 41.8871C505.527 40.7103 506.117 39.7559 506.845 39.7559C507.573 39.7559 508.163 40.7103 508.163 41.8871Z" fill="white"/>
<path d="M676.999 106.836C676.999 108.013 676.408 108.967 675.681 108.967C674.953 108.967 674.363 108.013 674.363 106.836C674.363 105.66 674.953 104.705 675.681 104.705C676.408 104.705 676.999 105.66 676.999 106.836Z" fill="white"/>
<path d="M538.975 41.2191C538.975 42.3959 538.385 43.3503 537.657 43.3503C536.93 43.3503 536.34 42.3959 536.34 41.2191C536.34 40.0424 536.93 39.0879 537.657 39.0879C538.385 39.0879 538.975 40.0424 538.975 41.2191Z" fill="white"/>
<path d="M450.178 129.799C450.178 130.976 449.588 131.93 448.861 131.93C448.133 131.93 447.543 130.976 447.543 129.799C447.543 128.622 448.133 127.668 448.861 127.668C449.588 127.668 450.178 128.622 450.178 129.799Z" fill="white"/>
<path d="M545.588 88.889C545.588 90.0658 544.998 91.0201 544.271 91.0201C543.543 91.0201 542.953 90.0658 542.953 88.889C542.953 87.7123 543.543 86.7578 544.271 86.7578C544.998 86.7578 545.588 87.7123 545.588 88.889Z" fill="white"/>
<path d="M644.618 51.4674C645.346 51.4674 645.936 50.5132 645.936 49.3362C645.936 48.1591 645.346 47.2051 644.618 47.2051C643.891 47.2051 643.301 48.1591 643.301 49.3362C643.301 50.5132 643.891 51.4674 644.618 51.4674Z" fill="white"/>
<path d="M730.659 38.3479C730.659 39.5246 730.069 40.4791 729.341 40.4791C728.614 40.4791 728.023 39.5246 728.023 38.3479C728.023 37.1711 728.614 36.2168 729.341 36.2168C730.069 36.2168 730.659 37.1711 730.659 38.3479Z" fill="white"/>
<path d="M231.573 88.8029C231.573 89.9797 230.983 90.9342 230.255 90.9342C229.528 90.9342 228.938 89.9797 228.938 88.8029C228.938 87.6262 229.528 86.6719 230.255 86.6719C230.983 86.6719 231.573 87.6262 231.573 88.8029Z" fill="white"/>
</g>
</g>
<defs>
<filter id="filter0_f_653_838" x="305.025" y="-232.329" width="947.107" height="739.294" filterUnits="userSpaceOnUse" color-interpolation-filters="sRGB">
<feFlood flood-opacity="0" result="BackgroundImageFix"/>
<feBlend mode="normal" in="SourceGraphic" in2="BackgroundImageFix" result="shape"/>
<feGaussianBlur stdDeviation="142.128" result="effect1_foregroundBlur_653_838"/>
</filter>
<linearGradient id="paint0_linear_653_838" x1="-5.47811e-07" y1="15.6852" x2="1223.04" y2="322.919" gradientUnits="userSpaceOnUse">
<stop stop-color="#000008"/>
<stop offset="1" stop-color="#3D2756"/>
</linearGradient>
<linearGradient id="paint1_linear_653_838" x1="-5.47811e-07" y1="15.6852" x2="1223.04" y2="322.919" gradientUnits="userSpaceOnUse">
<stop stop-color="#000008"/>
<stop offset="1" stop-color="#3D2756"/>
</linearGradient>
</defs>
</svg>
