<svg width="309" height="102" viewBox="0 0 309 102" fill="none" xmlns="http://www.w3.org/2000/svg">
<path d="M288.565 87.7678C286.021 96.217 278.239 102 269.415 102H20C8.95425 102 0 93.0457 0 82V20C0 8.95431 8.95432 0 20 0H288.089C301.495 0 311.105 12.9311 307.239 25.7678L288.565 87.7678Z" fill="url(#paint0_linear_6274_27516)"/>
<path d="M269.415 101H20C9.50657 101 1 92.4934 1 82V20C1 9.50659 9.5066 1 20 1H288.089C300.825 1.00004 309.954 13.2846 306.281 25.4795L287.607 87.4795C285.228 95.3806 278.028 100.828 269.808 100.996L269.415 101Z" stroke="url(#paint1_linear_6274_27516)" stroke-opacity="0.3" stroke-width="2"/>
<defs>
<linearGradient id="paint0_linear_6274_27516" x1="327.863" y1="106.464" x2="139.44" y2="-114.549" gradientUnits="userSpaceOnUse">
<stop stop-color="#010510"/>
<stop offset="0.525" stop-color="#001016"/>
<stop offset="1" stop-color="#010510"/>
</linearGradient>
<linearGradient id="paint1_linear_6274_27516" x1="274.05" y1="95.88" x2="239.275" y2="-33.9539" gradientUnits="userSpaceOnUse">
<stop stop-color="#33A0EA"/>
<stop offset="1" stop-color="#0AC488"/>
</linearGradient>
</defs>
</svg>
