<svg width="1440" height="1040" viewBox="0 0 1440 1040" fill="none" xmlns="http://www.w3.org/2000/svg">
<g clip-path="url(#clip0_661_8519)">
<rect width="1440" height="1040" fill="#06101A"/>
<g filter="url(#filter0_f_661_8519)">
<ellipse cx="748.5" cy="508" rx="270.5" ry="105" fill="#3A86FF" fill-opacity="0.5"/>
</g>
<path d="M-409.787 80.2568C-328.701 1003.68 72.6257 324.889 194.255 450.551C315.885 576.213 510.637 396.986 626.425 548.152C742.214 699.318 876.143 396.987 991.932 548.153C1107.72 699.318 1278.82 191.345 1747.82 360.381M-317.117 9.27427C-236.031 932.699 165.296 253.906 286.926 379.569C408.555 505.231 603.307 326.004 719.095 477.17C834.884 628.336 968.814 326.004 1084.6 477.17C1200.39 628.336 1371.49 120.362 1840.49 289.398M-363.452 44.7655C-282.365 968.191 118.961 289.398 240.59 415.06C362.22 540.722 556.972 361.495 672.76 512.661C788.549 663.827 922.478 361.495 1038.27 512.661C1154.06 663.827 1325.16 155.854 1794.16 324.889M-270.782 -26.217C-189.696 897.208 211.631 218.415 333.26 344.077C454.89 469.74 649.642 290.512 765.43 441.678C881.219 592.844 1015.15 290.513 1130.94 441.679C1246.73 592.845 1417.83 84.8711 1886.83 253.907M-386.619 62.5112C-305.533 985.936 95.7932 307.143 217.423 432.806C339.053 558.468 533.804 379.241 649.593 530.407C765.382 681.573 899.311 379.241 1015.1 530.407C1130.89 681.573 1301.99 173.599 1770.99 342.635M-293.949 -8.47136C-212.863 914.954 188.463 236.161 310.093 361.823C431.723 487.485 626.474 308.258 742.263 459.424C858.052 610.59 991.981 308.258 1107.77 459.424C1223.56 610.59 1394.66 102.617 1863.66 271.652M-340.284 27.0199C-259.198 950.445 142.128 271.652 263.758 397.314C385.388 522.976 580.139 343.749 695.928 494.915C811.717 646.081 945.646 343.75 1061.43 494.916C1177.22 646.082 1348.32 138.108 1817.32 307.144M-247.614 -43.9628C-166.528 879.462 234.798 200.67 356.428 326.332C478.058 451.994 672.809 272.767 788.598 423.933C904.387 575.099 1038.32 272.767 1154.1 423.933C1269.89 575.099 1440.99 67.1254 1909.99 236.161M-398.203 71.384C-317.117 994.809 84.2095 316.016 205.839 441.678C327.469 567.341 522.22 388.113 638.009 539.279C753.798 690.445 887.727 388.114 1003.52 539.28C1119.3 690.446 1290.41 182.472 1759.41 351.508M-305.533 0.401381C-224.447 923.827 176.88 245.034 298.509 370.696C420.139 496.358 614.89 317.131 730.679 468.297C846.468 619.463 980.397 317.131 1096.19 468.297C1211.97 619.463 1383.08 111.49 1852.08 280.525M-351.868 35.8927C-270.782 959.318 130.544 280.525 252.174 406.187C373.804 531.849 568.555 352.622 684.344 503.788C800.133 654.954 934.062 352.622 1049.85 503.788C1165.64 654.954 1336.74 146.981 1805.74 316.016M-259.198 -35.0899C-178.112 888.335 223.215 209.542 344.844 335.205C466.474 460.867 661.225 281.64 777.014 432.806C892.803 583.972 1026.73 281.64 1142.52 432.806C1258.31 583.972 1429.41 75.9983 1898.41 245.034M-375.035 53.6383C-293.949 977.064 107.377 298.271 229.007 423.933C350.637 549.595 545.388 370.368 661.177 521.534C776.965 672.7 910.895 370.368 1026.68 521.534C1142.47 672.7 1313.57 164.726 1782.57 333.762M-282.366 -17.3441C-201.279 906.081 200.047 227.288 321.677 352.95C443.306 478.612 638.058 299.385 753.847 450.551C869.636 601.717 1003.56 299.385 1119.35 450.551C1235.14 601.717 1406.24 93.7439 1875.24 262.78M-328.701 18.1471C-247.614 941.572 153.712 262.779 275.342 388.441C396.972 514.104 591.723 334.877 707.512 486.043C823.3 637.209 957.23 334.877 1073.02 486.043C1188.81 637.209 1359.91 129.235 1828.91 298.271M-236.031 -52.8355C-154.944 870.59 246.382 191.797 368.012 317.459C489.642 443.121 684.393 263.894 800.182 415.06C915.97 566.226 1049.9 263.894 1165.69 415.06C1281.48 566.226 1452.58 58.2526 1921.58 227.288" stroke="url(#paint0_linear_661_8519)" stroke-width="2"/>
<path d="M423.286 -534.317C288.239 -400.076 757.365 -29.6586 622.318 104.582C487.272 238.823 782.294 274.596 647.247 408.837C512.2 543.077 829.227 637.077 694.18 771.318C559.133 905.558 1112.5 1362.6 977.458 1496.84M505.58 -451.529C370.533 -317.288 839.66 53.1298 704.613 187.371C569.566 321.612 864.588 357.384 729.541 491.625C594.494 625.866 911.521 719.865 776.474 854.106C641.428 988.347 1194.8 1445.39 1059.75 1579.63M464.433 -492.923C329.386 -358.682 798.512 11.7356 663.466 145.976C528.419 280.217 823.441 315.99 688.394 450.231C553.347 584.472 870.374 678.471 735.327 812.712C600.28 946.953 1153.65 1403.99 1018.6 1538.23M546.727 -410.134C411.681 -275.894 880.807 94.5239 745.76 228.765C610.713 363.006 905.735 398.778 770.688 533.019C635.642 667.26 952.668 761.259 817.621 895.5C682.575 1029.74 1235.95 1486.78 1100.9 1621.02M443.859 -513.62C308.813 -379.379 777.939 -8.96148 642.892 125.279C507.845 259.52 802.867 295.293 667.821 429.534C532.774 563.775 849.8 657.774 714.754 792.015C579.707 926.256 1133.08 1383.29 998.031 1517.54M526.154 -430.832C391.107 -296.591 860.233 73.8268 725.186 208.068C590.14 342.309 885.161 378.081 750.115 512.322C615.068 646.563 932.095 740.562 797.048 874.803C662.001 1009.04 1215.37 1466.08 1080.33 1600.32M485.007 -472.226C349.96 -337.985 819.086 32.4327 684.039 166.674C548.993 300.914 844.014 336.687 708.968 470.928C573.921 605.169 890.947 699.168 755.901 833.409C620.854 967.65 1174.23 1424.69 1039.18 1558.93M567.301 -389.437C432.254 -255.196 901.38 115.221 766.334 249.462C631.287 383.703 926.309 419.475 791.262 553.716C656.215 687.957 973.242 781.956 838.195 916.197C703.148 1050.44 1256.52 1507.48 1121.47 1641.72M433.573 -523.968C298.526 -389.727 767.652 -19.31 632.605 114.931C497.559 249.172 792.58 284.944 657.534 419.185C522.487 553.426 839.513 647.425 704.467 781.666C569.42 915.907 1122.79 1372.95 987.745 1507.19M515.867 -441.18C380.82 -306.939 849.946 63.4783 714.9 197.719C579.853 331.96 874.875 367.732 739.828 501.973C604.781 636.214 921.808 730.214 786.761 864.455C651.714 998.695 1205.09 1455.73 1070.04 1589.98M474.72 -482.574C339.673 -348.333 808.799 22.0841 673.752 156.325C538.706 290.566 833.728 326.338 698.681 460.579C563.634 594.82 880.661 688.819 745.614 823.06C610.567 957.301 1163.94 1414.34 1028.89 1548.58M557.014 -399.786C421.967 -265.545 891.094 104.873 756.047 239.113C621 373.354 916.022 409.127 780.975 543.368C645.928 677.608 962.955 771.608 827.908 905.849C692.862 1040.09 1246.23 1497.13 1111.19 1631.37M454.146 -503.271C319.1 -369.03 788.226 1.38713 653.179 135.628C518.132 269.869 813.154 305.641 678.107 439.882C543.061 574.123 860.087 668.122 725.04 802.363C589.994 936.604 1143.36 1393.64 1008.32 1527.88M536.44 -420.483C401.394 -286.242 870.52 84.1754 735.473 218.416C600.426 352.657 895.448 388.43 760.402 522.67C625.355 656.911 942.381 750.911 807.335 885.152C672.288 1019.39 1225.66 1476.43 1090.61 1610.67M495.293 -461.877C360.247 -327.636 829.373 42.7812 694.326 177.022C559.279 311.263 854.301 347.035 719.254 481.276C584.208 615.517 901.234 709.517 766.187 843.757C631.141 977.998 1184.51 1435.04 1049.47 1569.28M577.588 -379.089C442.541 -244.848 911.667 125.57 776.62 259.81C641.574 394.051 936.595 429.824 801.549 564.065C666.502 698.305 983.529 792.305 848.482 926.546C713.435 1060.79 1266.81 1517.83 1131.76 1652.07" stroke="url(#paint1_linear_661_8519)" stroke-width="2"/>
<path d="M2194.19 -132.647C2096.88 -296.321 1488.43 450.398 1526.05 -95.2069C1563.68 -640.811 1322.2 18.5459 1224.89 -145.128C1127.58 -308.802 959.201 -24.2139 861.892 -187.888C764.583 -351.562 358.807 145.752 71.3211 -217.714M2093.85 -72.9934C1996.54 -236.667 1388.09 510.052 1425.72 -35.5529C1463.34 -581.158 1221.86 78.1998 1124.55 -85.4741C1027.24 -249.148 858.863 35.44 761.554 -128.234C664.245 -291.908 258.469 205.406 -29.0167 -158.06M2144.02 -102.82C2046.71 -266.494 1438.26 480.225 1475.88 -65.3799C1513.51 -610.984 1272.03 48.3728 1174.72 -115.301C1077.41 -278.975 909.032 5.61305 811.723 -158.061C714.414 -321.735 308.638 175.579 21.1522 -187.887M2043.68 -43.1664C1946.37 -206.84 1337.92 539.879 1375.55 -5.72594C1413.17 -551.331 1171.69 108.027 1074.38 -55.6471C977.073 -219.321 808.694 65.267 711.385 -98.4069C614.076 -262.081 208.3 235.233 -79.1856 -128.233M2169.1 -117.734C2071.79 -281.408 1463.34 465.311 1500.97 -80.2933C1538.6 -625.898 1297.11 33.4594 1199.8 -130.215C1102.5 -293.888 934.117 -9.30042 836.807 -172.974C739.498 -336.648 333.722 160.666 46.2367 -202.801M2068.77 -58.0799C1971.46 -221.754 1363 524.965 1400.63 -20.6394C1438.26 -566.244 1196.78 93.1132 1099.47 -70.5607C1002.16 -234.235 833.779 50.3535 736.47 -113.32C639.16 -276.994 233.385 220.32 -54.1011 -143.147M2118.93 -87.9068C2021.63 -251.581 1413.17 495.138 1450.8 -50.4663C1488.43 -596.071 1246.94 63.2863 1149.64 -100.388C1052.33 -264.061 883.948 20.5265 786.638 -143.147C689.329 -306.821 283.553 190.493 -3.93222 -172.974M2018.6 -28.2528C1921.29 -191.927 1312.84 554.792 1350.46 9.18753C1388.09 -536.417 1146.61 122.94 1049.3 -40.7336C951.988 -204.408 783.61 80.1805 686.301 -83.4934C588.991 -247.167 183.216 250.147 -104.27 -113.32M2181.65 -125.191C2084.34 -288.864 1475.88 457.855 1513.51 -87.7501C1551.14 -633.355 1309.66 26.0026 1212.35 -137.671C1115.04 -301.345 946.659 -16.7572 849.35 -180.431C752.04 -344.105 346.265 153.209 58.7789 -210.257M2081.31 -65.5366C1984 -229.21 1375.55 517.508 1413.17 -28.0961C1450.8 -573.701 1209.32 85.6565 1112.01 -78.0174C1014.7 -241.691 846.321 42.8968 749.012 -120.777C651.703 -284.451 245.927 212.863 -41.5589 -150.604M2131.48 -95.3636C2034.17 -259.037 1425.72 487.681 1463.34 -57.9231C1500.97 -603.528 1259.49 55.8296 1162.18 -107.844C1064.87 -271.518 896.49 13.0698 799.181 -150.604C701.871 -314.278 296.096 183.036 8.61001 -180.431M2031.14 -35.7096C1933.83 -199.384 1325.38 547.335 1363 1.73086C1400.63 -543.874 1159.15 115.483 1061.84 -48.1904C964.531 -211.864 796.152 72.7237 698.843 -90.9502C601.534 -254.624 195.758 242.69 -91.7278 -120.777M2156.56 -110.277C2059.25 -273.951 1450.8 472.768 1488.43 -72.8365C1526.05 -618.441 1284.57 40.9161 1187.26 -122.758C1089.95 -286.432 921.574 -1.84369 824.265 -165.518C726.956 -329.191 321.18 168.122 33.6944 -195.344M2056.22 -50.6232C1958.91 -214.297 1350.46 532.422 1388.09 -13.1827C1425.72 -558.787 1184.23 100.57 1086.92 -63.1039C989.615 -226.778 821.237 57.8102 723.927 -105.864C626.618 -269.538 220.842 227.776 -66.6433 -135.69M2106.39 -80.4501C2009.08 -244.124 1400.63 502.595 1438.26 -43.0096C1475.88 -588.614 1234.4 70.7431 1137.09 -92.9309C1039.78 -256.605 871.405 27.9833 774.096 -135.691C676.787 -299.365 271.011 197.949 -16.4745 -165.517M2006.05 -20.7962C1908.75 -184.47 1300.29 562.249 1337.92 16.6443C1375.55 -528.96 1134.06 130.397 1036.76 -33.277C939.446 -196.951 771.068 87.6372 673.758 -76.0367C576.449 -239.711 170.673 257.603 -116.812 -105.863" stroke="url(#paint2_linear_661_8519)" stroke-width="2"/>
<path d="M1740.24 1072.58C1642.94 908.909 1492.32 1124.41 1395.01 960.732C1297.7 797.058 1136.5 1092.49 1039.19 928.82C941.881 765.146 172.583 1124.93 84.788 726.338C-3.0072 327.745 -150.473 689.328 -247.782 525.654M1639.91 1132.24C1542.6 968.563 1391.98 1184.06 1294.67 1020.39C1197.36 856.712 1036.16 1152.15 938.852 988.474C841.543 824.8 72.2454 1184.58 -15.5498 785.992C-103.345 387.399 -250.811 748.982 -348.12 585.308M1690.08 1102.41C1592.77 938.736 1442.15 1154.23 1344.84 990.559C1247.53 826.885 1086.33 1122.32 989.021 958.647C891.712 794.973 122.414 1154.76 34.6191 756.165C-53.1761 357.572 -200.642 719.155 -297.951 555.481M1589.74 1162.06C1492.43 998.39 1341.81 1213.89 1244.5 1050.21C1147.19 886.539 985.993 1181.97 888.683 1018.3C791.374 854.627 22.0768 1214.41 -65.7185 815.819C-153.514 417.226 -300.979 778.809 -398.289 615.135M1715.16 1087.5C1617.85 923.822 1467.23 1139.32 1369.92 975.645C1272.61 811.971 1111.41 1107.41 1014.11 943.734C916.796 780.06 147.499 1139.84 59.7036 741.251C-28.0917 342.659 -175.557 704.242 -272.866 540.568M1614.82 1147.15C1517.51 983.476 1366.9 1198.97 1269.59 1035.3C1172.28 871.625 1011.08 1167.06 913.768 1003.39C816.459 839.713 47.161 1199.5 -40.6342 800.905C-128.429 402.312 -275.895 763.896 -373.204 600.222M1664.99 1117.32C1567.68 953.649 1417.06 1169.15 1319.75 1005.47C1222.45 841.798 1061.25 1137.23 963.936 973.561C866.627 809.887 97.3299 1169.67 9.53472 771.078C-78.2605 372.485 -225.726 734.069 -323.035 570.395M1564.65 1176.98C1467.34 1013.3 1316.73 1228.8 1219.42 1065.13C1122.11 901.452 960.908 1196.89 863.599 1033.21C766.29 869.54 -3.00753 1229.32 -90.8027 830.732C-178.598 432.139 -326.064 793.723 -423.373 630.049M1727.7 1080.04C1630.39 916.365 1479.78 1131.86 1382.47 968.188C1285.16 804.515 1123.96 1099.95 1026.65 936.277C929.338 772.603 160.041 1132.39 72.2458 733.794C-15.5494 335.202 -163.015 696.785 -260.324 533.111M1627.36 1139.69C1530.06 976.019 1379.44 1191.52 1282.13 1027.84C1184.82 864.168 1023.62 1159.6 926.31 995.931C829.001 832.257 59.7032 1192.04 -28.092 793.448C-115.887 394.856 -263.353 756.439 -360.662 592.765M1677.53 1109.87C1580.22 946.192 1429.61 1161.69 1332.3 998.015C1234.99 834.341 1073.79 1129.78 976.478 966.104C879.169 802.43 109.872 1162.21 22.0769 763.621C-65.7183 365.029 -213.184 726.612 -310.493 562.938M1577.2 1169.52C1479.89 1005.85 1329.27 1221.34 1231.96 1057.67C1134.65 893.996 973.45 1189.43 876.141 1025.76C778.832 862.084 9.53458 1221.87 -78.2606 823.275C-166.056 424.683 -313.522 786.266 -410.831 622.592M1702.62 1094.95C1605.31 931.279 1454.69 1146.78 1357.38 983.102C1260.07 819.428 1098.87 1114.86 1001.56 951.19C904.254 787.516 134.957 1147.3 47.1613 748.708C-40.6339 350.115 -188.099 711.698 -285.409 548.025M1602.28 1154.61C1504.97 990.933 1354.35 1206.43 1257.04 1042.76C1159.73 879.082 998.535 1174.52 901.226 1010.84C803.916 847.17 34.619 1206.95 -53.1763 808.362C-140.971 409.769 -288.437 771.352 -385.746 607.678M1652.45 1124.78C1555.14 961.106 1404.52 1176.6 1307.21 1012.93C1209.9 849.255 1048.7 1144.69 951.394 981.017C854.085 817.343 84.7877 1177.13 -3.00754 778.535C-90.8028 379.942 -238.268 741.525 -335.578 577.851M1552.11 1184.43C1454.8 1020.76 1304.18 1236.26 1206.87 1072.58C1109.57 908.909 948.366 1204.34 851.057 1040.67C753.748 876.997 -20.8804 1229.32 -108.676 830.732C-196.471 432.139 -338.606 801.179 -435.915 637.505" stroke="url(#paint3_linear_661_8519)" stroke-width="2"/>
<path d="M-204.532 677.308C126.505 1211.6 294.29 637.76 463.887 807.426C633.483 977.092 500.888 576.932 689.653 601.947C878.419 626.963 759.34 318.48 948.106 343.495C1136.87 368.511 815.839 -116.895 1649.33 -160.29M-189.197 561.588C141.841 1095.88 309.626 522.04 479.222 691.706C648.818 861.372 516.223 461.212 704.988 486.228C893.754 511.243 774.675 202.76 963.441 227.775C1152.21 252.791 831.175 -232.615 1664.67 -276.01M-196.865 619.448C134.173 1153.74 301.958 579.9 471.554 749.566C641.151 919.232 508.555 519.072 697.321 544.087C886.086 569.103 767.008 260.62 955.773 285.635C1144.54 310.651 823.507 -174.755 1657 -218.15M-181.529 503.728C149.508 1038.02 317.293 464.18 486.89 633.846C656.486 803.512 523.891 403.352 712.656 428.368C901.422 453.383 782.343 144.9 971.109 169.916C1159.87 194.931 838.842 -290.475 1672.34 -333.87M-200.699 648.378C130.339 1182.67 298.124 608.83 467.72 778.496C637.317 948.161 504.721 548.002 693.487 573.017C882.253 598.033 763.174 289.55 951.939 314.565C1140.71 339.581 819.673 -145.825 1653.17 -189.22M-185.363 532.658C145.674 1066.95 313.459 493.11 483.056 662.776C652.652 832.442 520.057 432.282 708.822 457.298C897.588 482.313 778.509 173.83 967.275 198.845C1156.04 223.861 835.008 -261.545 1668.5 -304.94M-193.031 590.518C138.007 1124.81 305.792 550.97 475.388 720.636C644.985 890.301 512.389 490.142 701.155 515.158C889.92 540.173 770.842 231.69 959.607 256.705C1148.37 281.721 827.341 -203.685 1660.84 -247.08M-177.695 474.798C153.342 1009.09 321.127 435.25 490.724 604.916C660.32 774.582 527.724 374.422 716.49 399.438C905.256 424.453 786.177 115.97 974.942 140.986C1163.71 166.001 842.676 -319.405 1676.17 -362.8M-202.615 662.843C128.422 1197.14 296.207 623.295 465.804 792.961C635.4 962.626 502.804 562.467 691.57 587.482C880.336 612.498 761.257 304.015 950.023 329.03C1138.79 354.046 817.756 -131.36 1651.25 -174.755M-187.28 547.123C143.758 1081.42 311.543 507.575 481.139 677.241C650.735 846.907 518.14 446.747 706.905 471.763C895.671 496.778 776.592 188.295 965.358 213.31C1154.12 238.326 833.091 -247.08 1666.59 -290.475M-194.948 604.983C136.09 1139.28 303.875 565.435 473.471 735.101C643.068 904.767 510.472 504.607 699.238 529.622C888.003 554.638 768.925 246.155 957.69 271.17C1146.46 296.186 825.424 -189.22 1658.92 -232.615M-179.612 489.263C151.425 1023.56 319.21 449.715 488.807 619.381C658.403 789.046 525.807 388.887 714.573 413.903C903.339 438.918 784.26 130.435 973.026 155.451C1161.79 180.466 840.759 -304.94 1674.25 -348.335M-198.782 633.913C132.256 1168.21 300.041 594.365 469.637 764.031C639.234 933.696 506.638 533.537 695.404 558.552C884.17 583.568 765.091 275.085 953.856 300.1C1142.62 325.116 821.59 -160.29 1655.09 -203.685M-183.446 518.193C147.591 1052.49 315.376 478.645 484.973 648.311C654.569 817.977 521.974 417.817 710.739 442.833C899.505 467.848 780.426 159.365 969.192 184.38C1157.96 209.396 836.925 -276.01 1670.42 -319.405M-191.114 576.053C139.924 1110.35 307.709 536.505 477.305 706.171C646.901 875.837 514.306 475.677 703.072 500.693C891.837 525.708 772.758 217.225 961.524 242.24C1150.29 267.256 829.258 -218.15 1662.75 -261.545M-175.779 460.333C155.259 994.629 323.044 420.785 492.64 590.451C662.237 760.116 529.641 359.957 718.407 384.973C907.173 409.988 788.094 101.505 976.859 126.521C1165.63 151.536 844.593 -333.87 1678.09 -377.265" stroke="url(#paint4_linear_661_8519)" stroke-width="2"/>
<path d="M-282.201 -203.306C-282.201 375.971 255.206 4.18378 254.636 194.599C254.066 385.014 606.436 298.298 605.866 488.713C605.296 679.128 895.935 521.424 895.365 711.839C894.796 902.255 1366.72 258.69 1527.22 1004.21M-165.47 -202.957C-165.47 376.32 371.937 4.5331 371.367 194.948C370.797 385.363 723.167 298.648 722.597 489.063C722.027 679.478 1012.67 521.774 1012.1 712.189C1011.53 902.604 1483.45 259.04 1643.95 1004.56M-223.836 -203.132C-223.836 376.146 313.571 4.35844 313.001 194.773C312.432 385.189 664.801 298.473 664.231 488.888C663.662 679.303 954.301 521.599 953.731 712.014C953.161 902.429 1425.08 258.865 1585.59 1004.39M-107.105 -202.782C-107.105 376.495 430.302 4.70775 429.732 195.123C429.163 385.538 781.532 298.822 780.962 489.237C780.393 679.652 1071.03 521.948 1070.46 712.363C1069.89 902.778 1541.81 259.214 1702.32 1004.74M-253.019 -203.219C-253.019 376.058 284.389 4.27111 283.819 194.686C283.249 385.101 635.618 298.386 635.049 488.801C634.479 679.216 925.118 521.512 924.548 711.927C923.978 902.342 1395.9 258.778 1556.4 1004.3M-136.287 -202.87C-136.287 376.408 401.12 4.62043 400.55 195.035C399.98 385.451 752.349 298.735 751.78 489.15C751.21 679.565 1041.85 521.861 1041.28 712.276C1040.71 902.691 1512.63 259.127 1673.14 1004.65M-194.653 -203.044C-194.653 376.233 342.754 4.44577 342.184 194.861C341.614 385.276 693.984 298.56 693.414 488.975C692.844 679.39 983.483 521.686 982.914 712.101C982.344 902.517 1454.26 258.952 1614.77 1004.47M-77.9218 -202.695C-77.9218 376.582 459.485 4.79508 458.915 195.21C458.345 385.625 810.715 298.91 810.145 489.325C809.575 679.74 1100.21 522.036 1099.64 712.451C1099.07 902.866 1571 259.302 1731.5 1004.82M-267.61 -203.263C-267.61 376.015 269.797 4.22745 269.227 194.643C268.658 385.058 621.027 298.342 620.457 488.757C619.887 679.172 910.527 521.468 909.957 711.883C909.387 902.298 1381.31 258.734 1541.81 1004.26M-150.879 -202.913C-150.879 376.364 386.528 4.57676 385.958 194.992C385.389 385.407 737.758 298.691 737.188 489.106C736.618 679.521 1027.26 521.817 1026.69 712.232C1026.12 902.647 1498.04 259.083 1658.54 1004.61M-209.244 -203.088C-209.244 376.189 328.163 4.40211 327.593 194.817C327.023 385.232 679.393 298.517 678.823 488.932C678.253 679.347 968.892 521.643 968.322 712.058C967.752 902.473 1439.67 258.909 1600.18 1004.43M-92.5132 -202.739C-92.5132 376.539 444.894 4.75142 444.324 195.166C443.754 385.582 796.124 298.866 795.554 489.281C794.984 679.696 1085.62 521.992 1085.05 712.407C1084.48 902.822 1556.4 259.258 1716.91 1004.78M-238.427 -203.175C-238.427 376.102 298.98 4.31478 298.41 194.73C297.84 385.145 650.21 298.429 649.64 488.844C649.07 679.259 939.709 521.555 939.14 711.97C938.57 902.386 1410.49 258.821 1571 1004.34M-121.696 -202.826C-121.696 376.451 415.711 4.66409 415.141 195.079C414.571 385.494 766.941 298.779 766.371 489.194C765.801 679.609 1056.44 521.905 1055.87 712.32C1055.3 902.735 1527.22 259.171 1687.73 1004.69M-180.062 -203.001C-180.062 376.277 357.345 4.48943 356.776 194.904C356.206 385.32 708.575 298.604 708.005 489.019C707.436 679.434 998.075 521.73 997.505 712.145C996.935 902.56 1468.86 258.996 1629.36 1004.52M-63.3305 -202.651C-63.3305 376.626 474.077 4.83875 473.507 195.254C472.937 385.669 825.306 298.953 824.737 489.368C824.167 679.783 1114.81 522.079 1114.24 712.494C1113.67 902.909 1585.59 259.345 1746.09 1004.87" stroke="url(#paint5_linear_661_8519)" stroke-width="2"/>
<rect width="1440" height="1040" fill="black" fill-opacity="0.6"/>
</g>
<defs>
<filter id="filter0_f_661_8519" x="-222" y="-297" width="1941" height="1610" filterUnits="userSpaceOnUse" color-interpolation-filters="sRGB">
<feFlood flood-opacity="0" result="BackgroundImageFix"/>
<feBlend mode="normal" in="SourceGraphic" in2="BackgroundImageFix" result="shape"/>
<feGaussianBlur stdDeviation="350" result="effect1_foregroundBlur_661_8519"/>
</filter>
<linearGradient id="paint0_linear_661_8519" x1="1645.15" y1="175.914" x2="1634.91" y2="538.019" gradientUnits="userSpaceOnUse">
<stop stop-color="#8B54FF"/>
<stop offset="0.5352" stop-color="#FFF6E8" stop-opacity="0.58"/>
<stop offset="0.68" stop-color="#0063D7"/>
<stop offset="1" stop-color="#4A0031" stop-opacity="0.66"/>
</linearGradient>
<linearGradient id="paint1_linear_661_8519" x1="1314.81" y1="1363.46" x2="952.829" y2="1429.79" gradientUnits="userSpaceOnUse">
<stop stop-color="#8B54FF"/>
<stop offset="0.395" stop-color="#FFF6E8" stop-opacity="0.58"/>
<stop offset="0.68" stop-color="#0063D7"/>
<stop offset="1" stop-color="#4A0031" stop-opacity="0.66"/>
</linearGradient>
<linearGradient id="paint2_linear_661_8519" x1="136.454" y1="175.742" x2="186.531" y2="-212.564" gradientUnits="userSpaceOnUse">
<stop stop-color="#8B54FF"/>
<stop offset="0.395" stop-color="#FFF6E8" stop-opacity="0.58"/>
<stop offset="0.68" stop-color="#0063D7"/>
<stop offset="1" stop-color="#4A0031" stop-opacity="0.66"/>
</linearGradient>
<linearGradient id="paint3_linear_661_8519" x1="-119.767" y1="662.032" x2="843.712" y2="1043.04" gradientUnits="userSpaceOnUse">
<stop stop-color="#8B54FF"/>
<stop offset="0.395" stop-color="#FFF6E8" stop-opacity="0.58"/>
<stop offset="0.68" stop-color="#0063D7"/>
<stop offset="1" stop-color="#4A0031" stop-opacity="0.66"/>
</linearGradient>
<linearGradient id="paint4_linear_661_8519" x1="1067.17" y1="48.8094" x2="573.104" y2="973.05" gradientUnits="userSpaceOnUse">
<stop stop-color="#8B54FF"/>
<stop offset="0.395" stop-color="#FFF6E8" stop-opacity="0.58"/>
<stop offset="0.68" stop-color="#0063D7"/>
<stop offset="1" stop-color="#4A0031" stop-opacity="0.66"/>
</linearGradient>
<linearGradient id="paint5_linear_661_8519" x1="-118.926" y1="-45.7543" x2="1053.68" y2="632.051" gradientUnits="userSpaceOnUse">
<stop stop-color="#8B54FF"/>
<stop offset="0.395" stop-color="#FFF6E8" stop-opacity="0.58"/>
<stop offset="0.68" stop-color="#0063D7"/>
<stop offset="1" stop-color="#4A0031" stop-opacity="0.66"/>
</linearGradient>
<clipPath id="clip0_661_8519">
<rect width="1440" height="1040" fill="white"/>
</clipPath>
</defs>
</svg>
