<svg width="18" height="18" viewBox="0 0 18 18" fill="none" xmlns="http://www.w3.org/2000/svg">
<g clip-path="url(#clip0_5257_36292)">
<path d="M15.3872 5.14419L11.0503 0.810125C10.8894 0.657404 10.6759 0.572266 10.4541 0.572266C10.2322 0.572266 10.0188 0.657404 9.85781 0.810125L5.52375 5.14419C5.48425 5.18336 5.45726 5.23336 5.44619 5.28787C5.43511 5.34238 5.44044 5.39895 5.46152 5.45043C5.48259 5.5019 5.51845 5.54598 5.56457 5.57707C5.61069 5.60817 5.665 5.62489 5.72062 5.62512H15.1875C15.243 5.62485 15.2972 5.60814 15.3433 5.57711C15.3893 5.54608 15.4251 5.50211 15.4462 5.45075C15.4678 5.39953 15.4737 5.34308 15.4632 5.28852C15.4526 5.23396 15.4262 5.18374 15.3872 5.14419Z" fill="#68B1FC"/>
<path d="M9.12094 1.54688L5.52375 5.14406C5.48425 5.18323 5.45726 5.23323 5.44619 5.28774C5.43511 5.34225 5.44044 5.39882 5.46152 5.4503C5.48259 5.50178 5.51845 5.54585 5.56457 5.57695C5.61069 5.60805 5.665 5.62477 5.72062 5.625H13.1737L9.12094 1.54688Z" fill="#539FFB"/>
<path d="M7.42786 5.625H10.6116L13.2385 2.99812L11.6466 1.40625L7.42786 5.625Z" fill="#E7EAEF"/>
<path d="M10.3107 2.74219L7.42786 5.625H10.6116L11.8969 4.33969L10.3107 2.74219Z" fill="#D8DBE0"/>
<path d="M11.9334 5.14419L7.59376 0.810125C7.43281 0.657404 7.21939 0.572266 6.99751 0.572266C6.77563 0.572266 6.56222 0.657404 6.40126 0.810125L2.07001 5.14419C2.03052 5.18336 2.00353 5.23336 1.99245 5.28787C1.98137 5.34238 1.98671 5.39895 2.00778 5.45043C2.02885 5.5019 2.06472 5.54598 2.11084 5.57707C2.15696 5.60817 2.21126 5.62489 2.26689 5.62512H11.7338C11.7893 5.62485 11.8435 5.60814 11.8895 5.57711C11.9356 5.54608 11.9714 5.50211 11.9925 5.45075C12.014 5.39953 12.0199 5.34308 12.0094 5.28852C11.9989 5.23396 11.9725 5.18374 11.9334 5.14419Z" fill="#59E78B"/>
<path d="M10.5216 5.13836L7.99031 2.78992C7.93469 2.74042 7.86172 2.71498 7.78738 2.7192C7.71304 2.72342 7.64341 2.75694 7.59375 2.81242C7.43554 2.97043 7.22109 3.05918 6.9975 3.05918C6.7739 3.05918 6.55945 2.97043 6.40125 2.81242C6.34855 2.76004 6.27727 2.73064 6.20297 2.73064C6.12866 2.73064 6.05738 2.76004 6.00469 2.81242L3.65625 5.14399C3.61722 5.18354 3.59079 5.23376 3.58027 5.28832C3.56976 5.34288 3.57565 5.39933 3.59719 5.45055C3.61828 5.50191 3.65412 5.54588 3.70016 5.57691C3.74621 5.60794 3.80041 5.62465 3.85594 5.62492H10.3247C10.381 5.62473 10.436 5.60762 10.4825 5.57582C10.529 5.54402 10.5649 5.49899 10.5855 5.44656C10.6061 5.39413 10.6105 5.33672 10.5981 5.28177C10.5857 5.22682 10.5571 5.17686 10.5159 5.13836H10.5216Z" fill="#8CEAA3"/>
<path d="M15.4688 5.0625H1.96875C1.1921 5.0625 0.5625 5.6921 0.5625 6.46875V16.0312C0.5625 16.8079 1.1921 17.4375 1.96875 17.4375H15.4688C16.2454 17.4375 16.875 16.8079 16.875 16.0312V6.46875C16.875 5.6921 16.2454 5.0625 15.4688 5.0625Z" fill="#FCD260"/>
<path d="M15.4688 5.0625H14.3438C14.7167 5.0625 15.0744 5.21066 15.3381 5.47438C15.6018 5.7381 15.75 6.09579 15.75 6.46875V16.0312C15.75 16.4042 15.6018 16.7619 15.3381 17.0256C15.0744 17.2893 14.7167 17.4375 14.3438 17.4375H15.4688C15.8417 17.4375 16.1994 17.2893 16.4631 17.0256C16.7268 16.7619 16.875 16.4042 16.875 16.0312V6.46875C16.875 6.09579 16.7268 5.7381 16.4631 5.47438C16.1994 5.21066 15.8417 5.0625 15.4688 5.0625Z" fill="#DA9C28"/>
<path d="M16.5938 9H13.2188C12.622 9 12.0497 9.23705 11.6278 9.65901C11.2058 10.081 10.9688 10.6533 10.9688 11.25C10.9688 11.8467 11.2058 12.419 11.6278 12.841C12.0497 13.2629 12.622 13.5 13.2188 13.5H16.5938C16.8175 13.5 17.0321 13.4111 17.1904 13.2529C17.3486 13.0946 17.4375 12.88 17.4375 12.6562V9.84375C17.4375 9.61997 17.3486 9.40536 17.1904 9.24713C17.0321 9.0889 16.8175 9 16.5938 9Z" fill="#B38051"/>
<path d="M16.5938 9H15.4688C15.6925 9 15.9071 9.0889 16.0654 9.24713C16.2236 9.40536 16.3125 9.61997 16.3125 9.84375V12.6562C16.3125 12.88 16.2236 13.0946 16.0654 13.2529C15.9071 13.4111 15.6925 13.5 15.4688 13.5H16.5938C16.8175 13.5 17.0321 13.4111 17.1904 13.2529C17.3486 13.0946 17.4375 12.88 17.4375 12.6562V9.84375C17.4375 9.61997 17.3486 9.40536 17.1904 9.24713C17.0321 9.0889 16.8175 9 16.5938 9Z" fill="#AA744C"/>
<path d="M13.2188 12.375C13.8401 12.375 14.3438 11.8713 14.3438 11.25C14.3438 10.6287 13.8401 10.125 13.2188 10.125C12.5974 10.125 12.0938 10.6287 12.0938 11.25C12.0938 11.8713 12.5974 12.375 13.2188 12.375Z" fill="#E7EAEF"/>
<path d="M13.2188 10.125C13.1237 10.1265 13.0293 10.1397 12.9375 10.1644C13.1758 10.2291 13.3862 10.3705 13.5362 10.5667C13.6862 10.7629 13.7675 11.003 13.7675 11.25C13.7675 11.497 13.6862 11.7371 13.5362 11.9333C13.3862 12.1295 13.1758 12.2709 12.9375 12.3356C13.0293 12.3603 13.1237 12.3735 13.2188 12.375C13.5171 12.375 13.8033 12.2565 14.0142 12.0455C14.2252 11.8345 14.3438 11.5484 14.3438 11.25C14.3438 10.9516 14.2252 10.6655 14.0142 10.4545C13.8033 10.2435 13.5171 10.125 13.2188 10.125Z" fill="#D8DBE0"/>
</g>
<defs>
<clipPath id="clip0_5257_36292">
<rect width="18" height="18" fill="white"/>
</clipPath>
</defs>
</svg>
