<svg width="14" height="14" viewBox="0 0 14 14" fill="none" xmlns="http://www.w3.org/2000/svg">
<path d="M0.823906 4.91751L6.01391 7.51751C6.32391 7.67251 6.66141 7.75001 7.00141 7.75001C7.34141 7.75001 7.67891 7.67251 7.98891 7.51751L13.1789 4.91751C13.5314 4.74001 13.7514 4.38751 13.7514 4.00001C13.7514 3.61251 13.5314 3.25751 13.1789 3.08251L7.98891 0.482513C7.68218 0.329595 7.34414 0.25 7.00141 0.25C6.65868 0.25 6.32063 0.329595 6.01391 0.482513L0.826406 3.08001C0.473906 3.25751 0.253906 3.61001 0.253906 3.99751C0.253906 4.38501 0.473906 4.74001 0.826406 4.91501L0.823906 4.91751Z" fill="url(#paint0_linear_946_23771)"/>
<path d="M12.747 6.28907C12.552 6.48657 12.557 6.80907 12.752 7.00407C12.752 7.00657 12.752 7.01407 12.7295 7.02407L7.53954 9.62157C7.20204 9.79157 6.79954 9.79157 6.46204 9.62157L1.27204 7.02407C1.25204 7.01407 1.25204 7.00657 1.25454 6.98907C1.45204 6.79407 1.45204 6.47907 1.25954 6.28157C1.06454 6.08407 0.749538 6.08407 0.552038 6.27657C0.319538 6.50657 0.212038 6.83657 0.262038 7.15907C0.314538 7.48907 0.519538 7.76407 0.824538 7.91657L6.01454 10.5141C6.32454 10.6691 6.66204 10.7466 7.00204 10.7466C7.34204 10.7466 7.67954 10.6691 7.98704 10.5141L13.177 7.91657C13.482 7.76407 13.687 7.48907 13.7395 7.15907C13.792 6.83657 13.682 6.50657 13.4495 6.27657C13.252 6.08157 12.9395 6.09157 12.7445 6.28657L12.747 6.28907Z" fill="url(#paint1_linear_946_23771)"/>
<path d="M12.747 9.28907C12.552 9.48657 12.557 9.80907 12.752 10.0041C12.752 10.0066 12.752 10.0141 12.7295 10.0241L7.53954 12.6216C7.20204 12.7916 6.79954 12.7916 6.46204 12.6216L1.27204 10.0241C1.25204 10.0141 1.25204 10.0066 1.25454 9.98907C1.45204 9.79407 1.45204 9.47907 1.25954 9.28157C1.06454 9.08407 0.749538 9.08407 0.552038 9.27657C0.319538 9.50657 0.212038 9.83657 0.262038 10.1591C0.314538 10.4891 0.519538 10.7641 0.824538 10.9166L6.01454 13.5141C6.32454 13.6691 6.66204 13.7466 7.00204 13.7466C7.34204 13.7466 7.67954 13.6691 7.98704 13.5141L13.177 10.9166C13.482 10.7641 13.687 10.4891 13.7395 10.1591C13.792 9.83657 13.682 9.50657 13.4495 9.27657C13.252 9.08157 12.9395 9.09157 12.7445 9.28657L12.747 9.28907Z" fill="url(#paint2_linear_946_23771)"/>
<defs>
<linearGradient id="paint0_linear_946_23771" x1="0.496861" y1="4.00001" x2="13.3466" y2="7.47226" gradientUnits="userSpaceOnUse">
<stop stop-color="#0DB4B6"/>
<stop offset="0.527" stop-color="#25A7DB"/>
<stop offset="1" stop-color="#0BC092"/>
</linearGradient>
<linearGradient id="paint1_linear_946_23771" x1="0.493044" y1="8.43969" x2="12.0538" y2="13.5198" gradientUnits="userSpaceOnUse">
<stop stop-color="#0DB4B6"/>
<stop offset="0.527" stop-color="#25A7DB"/>
<stop offset="1" stop-color="#0BC092"/>
</linearGradient>
<linearGradient id="paint2_linear_946_23771" x1="0.493044" y1="11.4397" x2="12.0538" y2="16.5198" gradientUnits="userSpaceOnUse">
<stop stop-color="#0DB4B6"/>
<stop offset="0.527" stop-color="#25A7DB"/>
<stop offset="1" stop-color="#0BC092"/>
</linearGradient>
</defs>
</svg>
