<svg width="99" height="39" viewBox="0 0 99 39" fill="none" xmlns="http://www.w3.org/2000/svg">
<path fill-rule="evenodd" clip-rule="evenodd" d="M0 15.5918V27.0421C0 28.5582 0.606464 30.0122 1.68598 31.0842C2.76549 32.1562 4.22962 32.7584 5.75628 32.7584H26.3544C28.0644 32.7584 29.0618 33.6005 29.9856 35.5505L31.262 37.7184V25.3883L26.4265 18.1571V18.0507H29.2493L32.4498 23.2101L37.3515 15.5918H0ZM2.22322 24.389C2.20537 21.122 4.34455 17.7996 8.89512 17.7996C10.6029 17.7996 12.2214 18.4422 13.5149 19.7104L11.9336 21.2291C11.1057 20.4254 9.99074 20.0495 8.89512 20.0495C5.85521 20.0495 4.5424 22.2994 4.56099 24.3897C4.57884 26.4608 5.78306 28.6213 8.89512 28.6213C9.99074 28.6213 11.2314 28.1752 12.0593 27.3531L13.6778 28.9781C12.3821 30.2463 10.71 30.835 8.89512 30.835C4.21884 30.835 2.24107 27.6382 2.22322 24.389ZM15.0248 18.0323C17.0219 18.0323 19.0175 18.0515 21.0139 18.0515C23.9802 18.0684 25.5444 20.0325 25.5444 22.1937C25.5444 23.9074 24.7545 25.6402 22.3631 26.1211L26.1744 30.3896V30.5507H23.3509L19.684 26.3722H17.3975V30.5507H15.0248V18.0315V18.0323ZM17.399 20.2467V24.2471H21.0139C22.5238 24.2471 23.1709 23.247 23.1709 22.2469C23.1709 21.2468 22.506 20.2467 21.0139 20.2467H17.399Z" fill="white"/>
<path fill-rule="evenodd" clip-rule="evenodd" d="M36.3101 34.7916C36.1762 34.5715 35.8103 34.3617 35.3878 34.3617C34.8448 34.3617 34.583 34.5878 34.583 34.8744C34.583 35.2104 34.9832 35.3042 35.4496 35.3596C36.2603 35.4594 37.0145 35.6684 37.0145 36.5887C37.0145 37.4485 36.2484 37.8178 35.3826 37.8178C34.589 37.8178 33.9783 37.5756 33.6897 36.8702L34.3004 36.5555C34.4722 36.9802 34.9222 37.1678 35.3938 37.1678C35.8549 37.1678 36.2871 37.0075 36.2871 36.5887C36.2871 36.2253 35.904 36.0761 35.3886 36.0207C34.5942 35.9269 33.8623 35.7179 33.8623 34.8522C33.8623 34.0589 34.65 33.7332 35.3662 33.728C35.971 33.728 36.598 33.8986 36.8925 34.4947L36.3101 34.7916ZM40.8607 37.7188H41.5881V33.8602H40.8607V37.7188ZM48.4363 34.8027C48.166 34.558 47.8143 34.4208 47.4486 34.4171C46.6155 34.4171 46.1105 35.045 46.1105 35.839C46.1105 36.4728 46.4824 37.1287 47.4486 37.1287C47.7535 37.1287 48.0198 37.0622 48.3255 36.8199V36.1367H47.331V35.4867H48.9964V37.1124C48.6134 37.5482 48.1306 37.8067 47.4478 37.8067C45.9877 37.8067 45.3942 36.8539 45.3942 35.839C45.3942 34.7532 46.077 33.7502 47.4471 33.7502C47.9877 33.7502 48.5065 33.962 48.8908 34.3396L48.4363 34.8027ZM55.4236 33.855H56.1562V37.7181H55.701V37.724L53.6586 35.1166V37.7188H52.9259V33.8602H53.5195L55.4236 36.2534V33.855ZM62.8601 36.9913H60.8296L60.4956 37.7188H59.7019L61.4447 33.8602H62.2435L63.987 37.7188H63.1889L62.8616 36.9913H62.8601ZM61.8448 34.6705L61.1234 36.3132H62.5663L61.8448 34.6705ZM68.3829 33.8602V37.0467H70.3807V37.7188H67.6502V33.8602H68.3829ZM76.5684 34.7916C76.4353 34.5715 76.0693 34.3617 75.6476 34.3617C75.1031 34.3617 74.842 34.5878 74.842 34.8744C74.842 35.2104 75.2415 35.3042 75.7086 35.3596C76.5193 35.4594 77.2735 35.6684 77.2735 36.5887C77.2735 37.4485 76.5074 37.8178 75.6416 37.8178C74.848 37.8178 74.2373 37.5756 73.9487 36.8702L74.5594 36.5555C74.7305 36.9802 75.1812 37.1678 75.6528 37.1678C76.1139 37.1678 76.5468 37.0075 76.5468 36.5887C76.5468 36.2253 76.163 36.0761 75.6468 36.0207C74.8532 35.9269 74.1205 35.7179 74.1205 34.8522C74.1205 34.0589 74.909 33.7332 75.6253 33.728C76.23 33.728 76.8577 33.8986 77.1515 34.4947L76.5684 34.7916ZM43.2424 11.1235L42.5655 14.8795C42.4725 15.2554 42.6853 15.5923 43.0564 15.5923H69.2658C73.8178 15.5923 77.5071 19.2559 77.5071 23.7763V32.7582H33.6406V25.3895L37.0153 20.3668V20.3661L40.2233 15.5923H40.2322L43.2424 11.1235ZM68.8291 17.8C64.4779 17.8 62.3551 21.1032 62.3551 24.3902C62.3551 27.6756 64.4057 30.8355 68.8291 30.8355C73.2525 30.8355 75.2481 27.604 75.2838 24.3717C75.3203 21.1032 73.1625 17.8 68.8291 17.8ZM45.6337 18.032C43.6626 18.032 41.6938 18.0504 39.7249 18.0512L39.6989 18.0726V30.5504H42.0724V26.872H45.6337C51.7998 26.872 51.7827 18.032 45.6337 18.032ZM61.4744 18.0512H51.117V20.1932H55.109V30.5504H57.4824V20.194H61.4744V18.0512ZM68.8291 19.9436C71.7954 19.9436 72.9825 22.2998 72.9468 24.4079C72.9104 26.4613 71.7954 28.675 68.8291 28.675C65.8614 28.675 64.7472 26.4783 64.6929 24.4256C64.6393 22.3183 65.8629 19.9436 68.8291 19.9436ZM45.6329 20.2826C48.6015 20.2826 48.6706 24.5593 45.7877 24.707L45.6329 24.7107H42.0724V20.2826H45.6329ZM70.2691 2.36328C81.1019 2.36328 89.9137 11.1146 89.9137 21.8714C89.9137 22.0909 89.8259 22.3014 89.6696 22.4566C89.5133 22.6118 89.3013 22.699 89.0803 22.699C88.8592 22.699 88.6472 22.6118 88.4909 22.4566C88.3346 22.3014 88.2468 22.0909 88.2468 21.8714C88.2468 12.0283 80.1818 4.0193 70.2691 4.0193C70.048 4.0193 69.8359 3.93207 69.6796 3.77679C69.5232 3.6215 69.4353 3.41089 69.4353 3.19129C69.4353 2.97169 69.5232 2.76108 69.6796 2.6058C69.8359 2.45052 70.048 2.36328 70.2691 2.36328ZM70.2691 10.8502C76.3891 10.8502 81.3674 15.7946 81.3674 21.8714C81.3674 22.0909 81.2796 22.3014 81.1233 22.4566C80.967 22.6118 80.755 22.699 80.534 22.699C80.3129 22.699 80.1009 22.6118 79.9446 22.4566C79.7884 22.3014 79.7005 22.0909 79.7005 21.8714C79.7005 16.7076 75.4698 12.5062 70.2691 12.5062C70.048 12.5062 69.8359 12.419 69.6796 12.2637C69.5232 12.1084 69.4353 11.8978 69.4353 11.6782C69.4353 11.4586 69.5232 11.248 69.6796 11.0927C69.8359 10.9374 70.048 10.8502 70.2691 10.8502ZM70.3584 6.6747C78.7485 6.6747 85.5729 13.4517 85.5729 21.7828C85.5729 22.0024 85.485 22.213 85.3286 22.3683C85.1723 22.5235 84.9602 22.6108 84.7391 22.6108C84.5179 22.6108 84.3058 22.5235 84.1495 22.3683C83.9931 22.213 83.9053 22.0024 83.9053 21.7828C83.9053 14.3654 77.8284 8.33072 70.3584 8.33072C70.1373 8.33072 69.9252 8.24349 69.7688 8.0882C69.6124 7.93292 69.5246 7.72232 69.5246 7.50271C69.5246 7.28311 69.6124 7.0725 69.7688 6.91722C69.9252 6.76194 70.1373 6.6747 70.3584 6.6747Z" fill="#7EA0D6"/>
</svg>
