<svg width="14" height="16" viewBox="0 0 14 16" fill="none" xmlns="http://www.w3.org/2000/svg">
<path d="M12.9987 7.99992C12.9992 7.8061 13.0425 7.61477 13.1254 7.43961C13.2084 7.26444 13.329 7.10975 13.4787 6.98659C13.6922 6.8115 13.8461 6.57439 13.9189 6.30805C13.9918 6.04171 13.98 5.75931 13.8854 5.49992C13.7403 5.09691 13.5619 4.70667 13.352 4.33326C13.1337 3.96149 12.8839 3.60909 12.6054 3.27992C12.4264 3.06971 12.1871 2.91978 11.9198 2.85059C11.6526 2.78139 11.3705 2.79629 11.112 2.89326C10.9317 2.96229 10.7382 2.99033 10.5456 2.97534C10.353 2.96035 10.1662 2.90271 9.99871 2.80659C9.83136 2.70923 9.68735 2.57642 9.57679 2.41749C9.46623 2.25855 9.39179 2.07735 9.35871 1.88659C9.312 1.61115 9.1812 1.35691 8.98425 1.15877C8.7873 0.960623 8.53386 0.828288 8.25871 0.779922C7.42511 0.633255 6.5723 0.633255 5.73871 0.779922C5.46264 0.826144 5.20801 0.957783 5.01069 1.15631C4.81336 1.35483 4.68326 1.61025 4.63871 1.88659C4.60434 2.0769 4.52939 2.25758 4.41896 2.41633C4.30852 2.57508 4.16519 2.70819 3.99871 2.80659C3.83099 2.90192 3.64455 2.95964 3.45231 2.97576C3.26007 2.99188 3.06662 2.966 2.88537 2.89992C2.62377 2.80203 2.3382 2.78794 2.06824 2.85961C1.79828 2.93128 1.5573 3.08516 1.37871 3.29992C0.833129 3.94754 0.404504 4.68523 0.112039 5.47992C0.0173655 5.74248 0.00559885 6.02777 0.0783295 6.29724C0.15106 6.5667 0.30478 6.80733 0.518705 6.98659C0.668789 7.10939 0.78972 7.26401 0.87276 7.43925C0.9558 7.6145 0.998877 7.806 0.998877 7.99992C0.998877 8.19385 0.9558 8.38535 0.87276 8.56059C0.78972 8.73584 0.668789 8.89045 0.518705 9.01326C0.305188 9.18834 0.151361 9.42546 0.0785063 9.6918C0.00565105 9.95813 0.0173689 10.2405 0.112039 10.4999C0.257131 10.9029 0.435525 11.2932 0.645372 11.6666C0.863755 12.0384 1.11356 12.3908 1.39204 12.7199C1.57195 12.9288 1.81135 13.0777 2.07822 13.1468C2.34509 13.216 2.6267 13.2019 2.88537 13.1066C3.06576 13.0376 3.25924 13.0095 3.4518 13.0245C3.64436 13.0395 3.83118 13.0971 3.99871 13.1933C4.16605 13.2906 4.31006 13.4234 4.42062 13.5824C4.53118 13.7413 4.60562 13.9225 4.63871 14.1133C4.68326 14.3896 4.81336 14.645 5.01069 14.8435C5.20801 15.0421 5.46264 15.1737 5.73871 15.2199C6.15016 15.294 6.56731 15.3319 6.98537 15.3333C7.41229 15.3322 7.83832 15.2943 8.25871 15.2199C8.53478 15.1737 8.7894 15.0421 8.98673 14.8435C9.18405 14.645 9.31415 14.3896 9.35871 14.1133C9.39307 13.9229 9.46802 13.7423 9.57846 13.5835C9.68889 13.4248 9.83223 13.2917 9.99871 13.1933C10.1664 13.0978 10.3528 13.04 10.5451 13.0239C10.7374 13.0078 10.9308 13.0337 11.112 13.0999C11.3732 13.2014 11.6598 13.2174 11.9306 13.1455C12.2013 13.0736 12.4423 12.9176 12.6187 12.6999C13.1657 12.0533 13.5944 11.3153 13.8854 10.5199C13.98 10.2574 13.9918 9.97207 13.9191 9.70261C13.8464 9.43315 13.6926 9.19252 13.4787 9.01326C13.329 8.89009 13.2084 8.7354 13.1254 8.56024C13.0425 8.38507 12.9992 8.19375 12.9987 7.99992ZM4.33671 9.60459C4.21171 9.72962 4.04217 9.79988 3.86537 9.79992C3.81833 9.79985 3.77141 9.79493 3.72537 9.78526C3.61639 9.76175 3.51505 9.7113 3.43061 9.63851C3.34618 9.56572 3.28134 9.47291 3.24204 9.36859C3.07865 8.93088 2.9962 8.46712 2.99871 7.99992C2.99994 6.93944 3.42176 5.92274 4.17164 5.17286C4.92152 4.42298 5.93822 4.00116 6.99871 3.99992C7.46609 3.99712 7.93008 4.07935 8.36804 4.24259C8.53345 4.30509 8.66725 4.43074 8.74001 4.5919C8.81278 4.75305 8.81854 4.93652 8.75604 5.10192C8.69354 5.26733 8.56789 5.40113 8.40673 5.4739C8.24557 5.54666 8.06211 5.55242 7.89671 5.48992C7.60934 5.38372 7.30506 5.33063 6.99871 5.33326C6.34215 5.33396 5.70886 5.5765 5.21979 6.01453C4.73072 6.45257 4.42014 7.05541 4.34737 7.70792L4.52737 7.52859C4.65311 7.40715 4.82151 7.33995 4.99631 7.34147C5.1711 7.34299 5.33831 7.4131 5.46192 7.53671C5.58552 7.66032 5.65564 7.82752 5.65716 8.00232C5.65867 8.17712 5.59148 8.34552 5.47004 8.47126L4.33671 9.60459ZM6.99871 11.9999C6.53132 12.0027 6.06733 11.9205 5.62937 11.7573C5.46397 11.6948 5.33016 11.5691 5.2574 11.4079C5.18463 11.2468 5.17887 11.0633 5.24137 10.8979C5.30387 10.7325 5.42953 10.5987 5.59068 10.5259C5.75184 10.4532 5.9353 10.4474 6.10071 10.5099C6.38807 10.6161 6.69235 10.6692 6.99871 10.6666C7.65526 10.6659 8.28855 10.4233 8.77762 9.98531C9.26669 9.54728 9.57727 8.94443 9.65004 8.29192L9.47004 8.47126C9.3443 8.59269 9.1759 8.65989 9.00111 8.65837C8.82631 8.65685 8.6591 8.58674 8.53549 8.46313C8.41189 8.33953 8.34178 8.17232 8.34026 7.99752C8.33874 7.82272 8.40593 7.65432 8.52737 7.52859L9.66071 6.39526C9.73946 6.31655 9.83667 6.25883 9.94346 6.22735C10.0503 6.19587 10.1632 6.19163 10.2721 6.21504C10.3809 6.23844 10.4822 6.28873 10.5666 6.36131C10.651 6.4339 10.7159 6.52648 10.7554 6.63059C10.9188 7.0685 11.0013 7.5325 10.9987 7.99992C10.9975 9.06041 10.5756 10.0771 9.82577 10.827C9.07589 11.5769 8.05919 11.9987 6.99871 11.9999Z" fill="url(#paint0_linear_946_23766)"/>
<defs>
<linearGradient id="paint0_linear_946_23766" x1="0.282078" y1="8.00159" x2="14.2329" y2="9.99224" gradientUnits="userSpaceOnUse">
<stop stop-color="#0DB4B6"/>
<stop offset="0.527" stop-color="#25A7DB"/>
<stop offset="1" stop-color="#0BC092"/>
</linearGradient>
</defs>
</svg>
