<svg width="11" height="18" viewBox="0 0 11 18" fill="none" xmlns="http://www.w3.org/2000/svg">
<path d="M7.50429 3.41667H9.77908C9.98836 3.41667 10.1582 3.25661 10.1582 3.05941V0.915853C10.1582 0.718646 9.98836 0.558594 9.77908 0.558594H7.50429C5.20523 0.558594 3.33384 2.32131 3.33384 4.48844V6.98926H0.679913C0.470632 6.98926 0.300781 7.14931 0.300781 7.34652V9.49007C0.300781 9.68728 0.470632 9.84733 0.679913 9.84733H3.33384V17.3498C3.33384 17.547 3.50369 17.707 3.71297 17.707H5.98776C6.19704 17.707 6.36689 17.547 6.36689 17.3498V9.84733H9.02082C9.18384 9.84733 9.32867 9.74873 9.38099 9.60296L10.1393 7.45941C10.1779 7.3508 10.1582 7.23076 10.0869 7.13716C10.0149 7.04427 9.90116 6.98926 9.77908 6.98926H6.36689V4.48844C6.36689 3.89754 6.8772 3.41667 7.50429 3.41667Z" fill="url(#paint0_linear_946_23932)"/>
<defs>
<linearGradient id="paint0_linear_946_23932" x1="1.58231" y1="1.5875" x2="12.5454" y2="9.20663" gradientUnits="userSpaceOnUse">
<stop stop-color="#33A0EA"/>
<stop offset="1" stop-color="#0AC488"/>
</linearGradient>
</defs>
</svg>
