<svg width="20" height="20" viewBox="0 0 20 20" fill="none" xmlns="http://www.w3.org/2000/svg">
<path d="M13.5928 0C16.878 8.42657e-06 19.5419 2.66404 19.542 5.94922V13.0889C19.542 16.3742 16.8781 19.0381 13.5928 19.0381H6.45312C3.16795 19.0379 0.503915 16.3741 0.503906 13.0889V5.94922C0.504046 2.66412 3.16803 0.000140149 6.45312 0H13.5928ZM6.45312 1.78516C4.15683 1.7853 2.2892 3.65293 2.28906 5.94922V13.0889C2.28907 15.3853 4.15675 17.2538 6.45312 17.2539H13.5928C15.8893 17.2539 17.7578 15.3854 17.7578 13.0889V5.94922C17.7577 3.65284 15.8892 1.78516 13.5928 1.78516H6.45312Z" fill="url(#paint0_linear_946_23938)"/>
<path d="M10.0215 4.75977C12.6499 4.75986 14.7812 6.89111 14.7812 9.51953C14.7812 12.1479 12.6498 14.2792 10.0215 14.2793C7.39307 14.2793 5.26182 12.1479 5.26172 9.51953C5.26172 6.89105 7.39301 4.75977 10.0215 4.75977ZM10.0215 6.54395C8.38181 6.54395 7.04688 7.87867 7.04688 9.51953C7.04707 11.159 8.38193 12.4941 10.0215 12.4941C11.661 12.494 12.9959 11.159 12.9961 9.51953C12.9961 7.87873 11.6611 6.54404 10.0215 6.54395Z" fill="url(#paint1_linear_946_23938)"/>
<circle cx="15.1381" cy="4.40179" r="0.634214" fill="url(#paint2_linear_946_23938)"/>
<defs>
<linearGradient id="paint0_linear_946_23938" x1="2.97886" y1="1.14229" x2="15.7344" y2="16.5631" gradientUnits="userSpaceOnUse">
<stop stop-color="#33A0EA"/>
<stop offset="1" stop-color="#0AC488"/>
</linearGradient>
<linearGradient id="paint1_linear_946_23938" x1="6.49926" y1="5.33094" x2="12.8773" y2="13.0418" gradientUnits="userSpaceOnUse">
<stop stop-color="#33A0EA"/>
<stop offset="1" stop-color="#0AC488"/>
</linearGradient>
<linearGradient id="paint2_linear_946_23938" x1="14.6688" y1="3.84368" x2="15.5186" y2="4.87111" gradientUnits="userSpaceOnUse">
<stop stop-color="#33A0EA"/>
<stop offset="1" stop-color="#0AC488"/>
</linearGradient>
</defs>
</svg>
