<svg width="18" height="18" viewBox="0 0 18 18" fill="none" xmlns="http://www.w3.org/2000/svg">
<path d="M3.0709 4.75508C4.22973 4.75508 5.16914 3.81566 5.16914 2.65684C5.16914 1.49801 4.22973 0.558594 3.0709 0.558594C1.91207 0.558594 0.972656 1.49801 0.972656 2.65684C0.972656 3.81566 1.91207 4.75508 3.0709 4.75508Z" fill="url(#paint0_linear_946_23926)"/>
<path d="M4.81943 6.15625H1.32236C1.12932 6.15625 0.972656 6.31292 0.972656 6.50596V16.9972C0.972656 17.1902 1.12932 17.3469 1.32236 17.3469H4.81943C5.01247 17.3469 5.16914 17.1902 5.16914 16.9972V6.50596C5.16914 6.31292 5.01247 6.15625 4.81943 6.15625Z" fill="url(#paint1_linear_946_23926)"/>
<path d="M15.241 5.57498C13.7463 5.06301 11.8768 5.51273 10.7556 6.31916C10.7171 6.16878 10.5801 6.05688 10.4171 6.05688H6.92002C6.72698 6.05688 6.57031 6.21355 6.57031 6.40658V16.8978C6.57031 17.0908 6.72698 17.2475 6.92002 17.2475H10.4171C10.6101 17.2475 10.7668 17.0908 10.7668 16.8978V9.35811C11.3319 8.87132 12.06 8.71605 12.6559 8.96924C13.2336 9.21333 13.5645 9.80923 13.5645 10.6031V16.8978C13.5645 17.0908 13.7211 17.2475 13.9142 17.2475H17.4112C17.6043 17.2475 17.7609 17.0908 17.7609 16.8978V9.89876C17.7211 7.02487 16.3691 5.96106 15.241 5.57498Z" fill="url(#paint2_linear_946_23926)"/>
<defs>
<linearGradient id="paint0_linear_946_23926" x1="1.5182" y1="0.810383" x2="4.32984" y2="4.20953" gradientUnits="userSpaceOnUse">
<stop stop-color="#33A0EA"/>
<stop offset="1" stop-color="#0AC488"/>
</linearGradient>
<linearGradient id="paint1_linear_946_23926" x1="1.5182" y1="6.82769" x2="7.25928" y2="9.43045" gradientUnits="userSpaceOnUse">
<stop stop-color="#33A0EA"/>
<stop offset="1" stop-color="#0AC488"/>
</linearGradient>
<linearGradient id="paint2_linear_946_23926" x1="8.02509" y1="6.07083" x2="16.0682" y2="15.2225" gradientUnits="userSpaceOnUse">
<stop stop-color="#33A0EA"/>
<stop offset="1" stop-color="#0AC488"/>
</linearGradient>
</defs>
</svg>
