<svg width="36" height="37" viewBox="0 0 36 37" fill="none" xmlns="http://www.w3.org/2000/svg">
<g filter="url(#filter0_d_946_23476)">
<path d="M7.00008 11C7.26097 11 7.47473 10.8082 7.51097 10.5367C7.86966 8.11853 8.19939 7.78188 10.5255 7.51764C10.7936 7.48507 11.0002 7.26063 11.0002 6.99998C11.0002 6.73574 10.7973 6.51855 10.5292 6.47873C8.21751 6.15656 7.93126 5.87421 7.51097 3.45973C7.46385 3.19186 7.25733 3 7.00008 3C6.73558 3 6.52544 3.19186 6.48196 3.46335C6.1305 5.87783 5.80078 6.21448 3.47827 6.47873C3.2029 6.51493 3 6.73214 3 6.99998C3 7.26063 3.19566 7.47783 3.47103 7.51764C5.78629 7.84704 6.0689 8.12577 6.48196 10.5403C6.5363 10.8118 6.74645 11 7.00008 11Z" fill="url(#paint0_linear_946_23476)"/>
<path d="M7.00008 11C7.26097 11 7.47473 10.8082 7.51097 10.5367C7.86966 8.11853 8.19939 7.78188 10.5255 7.51764C10.7936 7.48507 11.0002 7.26063 11.0002 6.99998C11.0002 6.73574 10.7973 6.51855 10.5292 6.47873C8.21751 6.15656 7.93126 5.87421 7.51097 3.45973C7.46385 3.19186 7.25733 3 7.00008 3C6.73558 3 6.52544 3.19186 6.48196 3.46335C6.1305 5.87783 5.80078 6.21448 3.47827 6.47873C3.2029 6.51493 3 6.73214 3 6.99998C3 7.26063 3.19566 7.47783 3.47103 7.51764C5.78629 7.84704 6.0689 8.12577 6.48196 10.5403C6.5363 10.8118 6.74645 11 7.00008 11Z" stroke="url(#paint1_linear_946_23476)" stroke-width="0.181901"/>
</g>
<g filter="url(#filter1_d_946_23476)">
<path d="M19.0003 31.1856C19.783 31.1856 20.4242 30.61 20.533 29.7956C21.609 22.5411 22.5982 21.5312 29.5766 20.7385C30.381 20.6408 31.0006 19.9674 31.0006 19.1855C31.0006 18.3928 30.3919 17.7412 29.5875 17.6217C22.6526 16.6552 21.7938 15.8082 20.533 8.56473C20.3916 7.76112 19.772 7.18555 19.0003 7.18555C18.2068 7.18555 17.5763 7.76112 17.4459 8.57559C16.3915 15.819 15.4024 16.829 8.43481 17.6217C7.60871 17.7303 7 18.382 7 19.1855C7 19.9674 7.58697 20.6191 8.41308 20.7385C15.3589 21.7267 16.2067 22.5629 17.4459 29.8064C17.609 30.6208 18.2394 31.1856 19.0003 31.1856Z" fill="url(#paint2_linear_946_23476)"/>
<path d="M19.0003 31.1856C19.783 31.1856 20.4242 30.61 20.533 29.7956C21.609 22.5411 22.5982 21.5312 29.5766 20.7385C30.381 20.6408 31.0006 19.9674 31.0006 19.1855C31.0006 18.3928 30.3919 17.7412 29.5875 17.6217C22.6526 16.6552 21.7938 15.8082 20.533 8.56473C20.3916 7.76112 19.772 7.18555 19.0003 7.18555C18.2068 7.18555 17.5763 7.76112 17.4459 8.57559C16.3915 15.819 15.4024 16.829 8.43481 17.6217C7.60871 17.7303 7 18.382 7 19.1855C7 19.9674 7.58697 20.6191 8.41308 20.7385C15.3589 21.7267 16.2067 22.5629 17.4459 29.8064C17.609 30.6208 18.2394 31.1856 19.0003 31.1856Z" stroke="url(#paint3_linear_946_23476)" stroke-width="0.545704"/>
</g>
<g filter="url(#filter2_d_946_23476)">
<path d="M7.00008 34C7.26097 34 7.47473 33.8082 7.51097 33.5367C7.86966 31.1185 8.19939 30.7819 10.5255 30.5176C10.7936 30.4851 11.0002 30.2606 11.0002 30C11.0002 29.7357 10.7973 29.5186 10.5292 29.4787C8.21751 29.1566 7.93126 28.8742 7.51097 26.4597C7.46385 26.1919 7.25733 26 7.00008 26C6.73558 26 6.52544 26.1919 6.48196 26.4633C6.1305 28.8778 5.80078 29.2145 3.47827 29.4787C3.2029 29.5149 3 29.7321 3 30C3 30.2606 3.19566 30.4778 3.47103 30.5176C5.78629 30.847 6.0689 31.1258 6.48196 33.5403C6.5363 33.8118 6.74645 34 7.00008 34Z" fill="url(#paint4_linear_946_23476)"/>
<path d="M7.00008 34C7.26097 34 7.47473 33.8082 7.51097 33.5367C7.86966 31.1185 8.19939 30.7819 10.5255 30.5176C10.7936 30.4851 11.0002 30.2606 11.0002 30C11.0002 29.7357 10.7973 29.5186 10.5292 29.4787C8.21751 29.1566 7.93126 28.8742 7.51097 26.4597C7.46385 26.1919 7.25733 26 7.00008 26C6.73558 26 6.52544 26.1919 6.48196 26.4633C6.1305 28.8778 5.80078 29.2145 3.47827 29.4787C3.2029 29.5149 3 29.7321 3 30C3 30.2606 3.19566 30.4778 3.47103 30.5176C5.78629 30.847 6.0689 31.1258 6.48196 33.5403C6.5363 33.8118 6.74645 34 7.00008 34Z" stroke="url(#paint5_linear_946_23476)" stroke-width="0.181901"/>
</g>
<defs>
<filter id="filter0_d_946_23476" x="0.910156" y="0.90918" width="12.1797" height="12.1816" filterUnits="userSpaceOnUse" color-interpolation-filters="sRGB">
<feFlood flood-opacity="0" result="BackgroundImageFix"/>
<feColorMatrix in="SourceAlpha" type="matrix" values="0 0 0 0 0 0 0 0 0 0 0 0 0 0 0 0 0 0 127 0" result="hardAlpha"/>
<feOffset/>
<feGaussianBlur stdDeviation="1"/>
<feComposite in2="hardAlpha" operator="out"/>
<feColorMatrix type="matrix" values="0 0 0 0 0.0392157 0 0 0 0 0.486275 0 0 0 0 1 0 0 0 0.8 0"/>
<feBlend mode="normal" in2="BackgroundImageFix" result="effect1_dropShadow_946_23476"/>
<feBlend mode="normal" in="SourceGraphic" in2="effect1_dropShadow_946_23476" result="shape"/>
</filter>
<filter id="filter1_d_946_23476" x="2.72656" y="2.91309" width="32.5469" height="32.5449" filterUnits="userSpaceOnUse" color-interpolation-filters="sRGB">
<feFlood flood-opacity="0" result="BackgroundImageFix"/>
<feColorMatrix in="SourceAlpha" type="matrix" values="0 0 0 0 0 0 0 0 0 0 0 0 0 0 0 0 0 0 127 0" result="hardAlpha"/>
<feOffset/>
<feGaussianBlur stdDeviation="2"/>
<feComposite in2="hardAlpha" operator="out"/>
<feColorMatrix type="matrix" values="0 0 0 0 0.0392157 0 0 0 0 0.486275 0 0 0 0 1 0 0 0 0.8 0"/>
<feBlend mode="normal" in2="BackgroundImageFix" result="effect1_dropShadow_946_23476"/>
<feBlend mode="normal" in="SourceGraphic" in2="effect1_dropShadow_946_23476" result="shape"/>
</filter>
<filter id="filter2_d_946_23476" x="0.910156" y="23.9092" width="12.1797" height="12.1816" filterUnits="userSpaceOnUse" color-interpolation-filters="sRGB">
<feFlood flood-opacity="0" result="BackgroundImageFix"/>
<feColorMatrix in="SourceAlpha" type="matrix" values="0 0 0 0 0 0 0 0 0 0 0 0 0 0 0 0 0 0 127 0" result="hardAlpha"/>
<feOffset/>
<feGaussianBlur stdDeviation="1"/>
<feComposite in2="hardAlpha" operator="out"/>
<feColorMatrix type="matrix" values="0 0 0 0 0.0392157 0 0 0 0 0.486275 0 0 0 0 1 0 0 0 0.8 0"/>
<feBlend mode="normal" in2="BackgroundImageFix" result="effect1_dropShadow_946_23476"/>
<feBlend mode="normal" in="SourceGraphic" in2="effect1_dropShadow_946_23476" result="shape"/>
</filter>
<linearGradient id="paint0_linear_946_23476" x1="7.00008" y1="3" x2="7.00008" y2="11" gradientUnits="userSpaceOnUse">
<stop offset="0.404167" stop-color="#82DDB5"/>
<stop offset="1" stop-color="white"/>
</linearGradient>
<linearGradient id="paint1_linear_946_23476" x1="4.2733" y1="2.27057" x2="10.458" y2="10.2742" gradientUnits="userSpaceOnUse">
<stop/>
<stop offset="0.0001" stop-color="#82DDB5"/>
<stop offset="1" stop-color="white"/>
</linearGradient>
<linearGradient id="paint2_linear_946_23476" x1="19.0003" y1="7.18555" x2="19.0003" y2="31.1856" gradientUnits="userSpaceOnUse">
<stop offset="0.445833" stop-color="#82DDB5"/>
<stop offset="1" stop-color="white"/>
</linearGradient>
<linearGradient id="paint3_linear_946_23476" x1="10.8199" y1="4.99725" x2="29.3739" y2="29.0082" gradientUnits="userSpaceOnUse">
<stop/>
<stop offset="0.0001" stop-color="#82DDB5"/>
<stop offset="1" stop-color="white"/>
</linearGradient>
<linearGradient id="paint4_linear_946_23476" x1="7.00008" y1="26" x2="7.00008" y2="34" gradientUnits="userSpaceOnUse">
<stop offset="0.404167" stop-color="#82DDB5"/>
<stop offset="1" stop-color="white"/>
</linearGradient>
<linearGradient id="paint5_linear_946_23476" x1="4.2733" y1="25.2706" x2="10.458" y2="33.2742" gradientUnits="userSpaceOnUse">
<stop/>
<stop offset="0.0001" stop-color="#82DDB5"/>
<stop offset="1" stop-color="white"/>
</linearGradient>
</defs>
</svg>
