<svg width="467" height="210" viewBox="0 0 467 210" fill="none" xmlns="http://www.w3.org/2000/svg">
<mask id="mask0_630_2088" style="mask-type:alpha" maskUnits="userSpaceOnUse" x="0" y="0" width="467" height="210">
<rect x="0.824219" y="0.978027" width="465.217" height="208.696" rx="16.5217" fill="#D9D9D9"/>
</mask>
<g mask="url(#mask0_630_2088)">
<g clip-path="url(#clip0_630_2088)">
<g style="mix-blend-mode:difference">
<path d="M476.912 -45.9773H-19.6094V293.153H476.912V-45.9773Z" fill="url(#paint0_radial_630_2088)"/>
</g>
<path d="M118.328 180.035C128.113 180.035 136.046 172.102 136.046 162.317C136.046 152.531 128.113 144.598 118.328 144.598C108.542 144.598 100.609 152.531 100.609 162.317C100.609 172.102 108.542 180.035 118.328 180.035Z" fill="url(#paint1_linear_630_2088)"/>
<path d="M141.263 44.4597C145.315 44.4597 148.6 41.1747 148.6 37.1224C148.6 33.0702 145.315 29.7852 141.263 29.7852C137.211 29.7852 133.926 33.0702 133.926 37.1224C133.926 41.1747 137.211 44.4597 141.263 44.4597Z" fill="url(#paint2_linear_630_2088)"/>
<path d="M360.794 117.919C365.944 112.769 365.944 104.42 360.794 99.2699C355.644 94.1201 347.295 94.1201 342.145 99.2699C336.995 104.42 336.995 112.769 342.145 117.919C347.295 123.069 355.644 123.069 360.794 117.919Z" fill="url(#paint3_linear_630_2088)"/>
<path opacity="0.8" d="M354.849 162.01C349.545 163.038 343.801 161.391 342.019 158.329C340.237 155.267 343.091 151.951 348.394 150.922C353.697 149.893 359.441 151.54 361.223 154.602C363.006 157.664 360.152 160.98 354.849 162.01H354.849Z" fill="#0C0F38"/>
<path opacity="0.8" d="M123.03 221.725C115.652 223.157 107.66 220.864 105.18 216.604C102.7 212.344 106.67 207.73 114.048 206.298C121.426 204.866 129.419 207.159 131.899 211.419C134.379 215.679 130.408 220.293 123.03 221.725Z" fill="#0C0F38"/>
<path opacity="0.8" d="M142.876 66.7817C140.227 67.2957 137.359 66.4727 136.468 64.9436C135.578 63.4145 137.003 61.758 139.652 61.2441C142.301 60.7301 145.169 61.5531 146.06 63.0822C146.95 64.6113 145.525 66.2677 142.876 66.7817Z" fill="#0C0F38"/>
<g style="mix-blend-mode:lighten" opacity="0.8">
<path d="M191.611 6.59292C191.611 7.63066 190.77 8.47245 189.731 8.47245C188.693 8.47245 187.852 7.63066 187.852 6.59292C187.852 5.55518 188.693 4.71338 189.731 4.71338C190.77 4.71338 191.611 5.55442 191.611 6.59292Z" fill="#D4088C"/>
</g>
<g style="mix-blend-mode:lighten" opacity="0.8">
<path d="M156.784 200.002C158.035 200.002 159.049 198.988 159.049 197.737C159.049 196.487 158.035 195.473 156.784 195.473C155.533 195.473 154.52 196.487 154.52 197.737C154.52 198.988 155.533 200.002 156.784 200.002Z" fill="#D4088C"/>
</g>
<g style="mix-blend-mode:lighten">
<path d="M143.593 187.715C143.593 188.359 143.071 188.881 142.428 188.881C141.784 188.881 141.262 188.36 141.262 187.715C141.262 187.071 141.784 186.549 142.428 186.549C143.071 186.549 143.593 187.071 143.593 187.715Z" fill="#6EE8FC"/>
</g>
<g style="mix-blend-mode:lighten">
<path d="M341.488 144.679C341.488 145.344 340.949 145.883 340.283 145.883C339.618 145.883 339.078 145.343 339.078 144.679C339.078 144.014 339.618 143.474 340.283 143.474C340.949 143.474 341.488 144.013 341.488 144.679Z" fill="#6EE8FC"/>
</g>
<g style="mix-blend-mode:lighten">
<path d="M116.837 65.0354C117.774 65.0354 118.533 64.2759 118.533 63.339C118.533 62.4021 117.774 61.6426 116.837 61.6426C115.9 61.6426 115.141 62.4021 115.141 63.339C115.141 64.2759 115.9 65.0354 116.837 65.0354Z" fill="#6EE8FC"/>
</g>
<g style="mix-blend-mode:lighten">
<path d="M245.299 1.48937C245.299 2.42613 244.539 3.18578 243.603 3.18578C242.666 3.18578 241.906 2.42613 241.906 1.48937C241.906 0.55262 242.666 -0.207031 243.603 -0.207031C244.539 -0.207031 245.299 0.55262 245.299 1.48937Z" fill="#6EE8FC"/>
</g>
<g style="mix-blend-mode:lighten">
<path d="M125.438 59.5797C125.438 60.0989 125.018 60.5194 124.498 60.5194C123.979 60.5194 123.559 60.0989 123.559 59.5797C123.559 59.0604 123.979 58.6399 124.498 58.6399C125.018 58.6399 125.438 59.0604 125.438 59.5797Z" fill="#6EE8FC"/>
</g>
<g style="mix-blend-mode:lighten">
<path d="M287.115 7.54734C287.115 8.16004 286.618 8.65743 286.005 8.65743C285.391 8.65743 284.895 8.16079 284.895 7.54734C284.895 6.93389 285.391 6.43726 286.005 6.43726C286.618 6.43726 287.115 6.93389 287.115 7.54734Z" fill="#D4088C"/>
</g>
<path d="M124.156 118.955L123.75 117.504L126.976 116.602L126.073 113.376L127.525 112.969L128.833 117.647L124.156 118.955Z" fill="#6EE1F8"/>
<path d="M121.309 124.011L120.902 122.56L124.128 121.658L123.227 118.432L124.677 118.026L125.986 122.703L121.309 124.011Z" fill="#6EE1F8"/>
<path d="M124.332 122.384L123.023 117.706L127.7 116.398L128.107 117.85L124.881 118.751L125.782 121.978L124.332 122.384Z" fill="#6EE1F8"/>
<path d="M235.631 11.135C233.653 11.135 232.043 9.52598 232.043 7.54772C232.043 5.56946 233.653 3.95972 235.631 3.95972C237.609 3.95972 239.218 5.56946 239.218 7.54772C239.218 9.52598 237.609 11.135 235.631 11.135ZM235.631 5.46772C234.484 5.46772 233.55 6.4007 233.55 7.54847C233.55 8.69624 234.483 9.62847 235.631 9.62847C236.779 9.62847 237.711 8.69549 237.711 7.54847C237.711 6.40146 236.778 5.46772 235.631 5.46772Z" fill="#6EE1F8"/>
<path d="M314.317 190.617L310.246 186.546L314.317 182.475L318.388 186.546L314.317 190.617ZM312.377 186.546L314.317 188.486L316.257 186.546L314.317 184.607L312.377 186.546Z" fill="#6EE1F8"/>
<path d="M324.011 42.0313L322.945 43.0972L327.304 47.4548L328.369 46.3889L324.011 42.0313Z" fill="#D4088C"/>
<path d="M327.303 42.0307L322.945 46.3887L324.011 47.4545L328.369 43.0965L327.303 42.0307Z" fill="#D4088C"/>
<g style="mix-blend-mode:lighten">
<path d="M103.333 94.6946C103.333 95.3072 102.837 95.8046 102.223 95.8046C101.61 95.8046 101.113 95.308 101.113 94.6946C101.113 94.0811 101.61 93.5845 102.223 93.5845C102.837 93.5845 103.333 94.0819 103.333 94.6946Z" fill="#D4088C"/>
</g>
<path d="M231.5 205.505C228.467 205.505 225.568 204.893 223.406 203.644L157.762 165.744C155.609 164.501 154.422 162.764 154.422 160.852C154.422 158.57 156.116 156.284 159.069 154.579L222.096 118.191C227.581 115.024 235.919 114.684 240.682 117.435L306.327 155.335C308.48 156.578 309.667 158.316 309.667 160.228C309.667 162.509 307.973 164.795 305.02 166.5L241.992 202.889C238.997 204.618 235.151 205.505 231.5 205.505ZM223.783 202.992C228.34 205.622 236.338 205.282 241.615 202.237L304.643 165.848C307.357 164.281 308.913 162.232 308.913 160.228C308.913 158.597 307.861 157.09 305.95 155.987L240.306 118.087C235.751 115.458 227.75 115.796 222.473 118.842L159.446 155.231C156.732 156.798 155.175 158.847 155.175 160.852C155.175 162.483 156.228 163.989 158.139 165.092L223.783 202.992Z" fill="url(#paint4_linear_630_2088)"/>
<path opacity="0.5" d="M231.5 193.485C228.467 193.485 225.568 192.874 223.406 191.624L157.762 153.725C155.609 152.482 154.422 150.744 154.422 148.832C154.422 146.551 156.116 144.264 159.069 142.56L222.096 106.171C227.582 103.004 235.919 102.665 240.682 105.416L306.327 143.316C308.48 144.558 309.667 146.296 309.667 148.208C309.667 150.489 307.973 152.776 305.02 154.48L241.992 190.869C238.997 192.599 235.151 193.485 231.5 193.485ZM223.783 190.972C228.34 193.603 236.338 193.263 241.615 190.217L304.643 153.829C307.357 152.262 308.913 150.213 308.913 148.208C308.913 146.577 307.861 145.071 305.95 143.967L240.306 106.068C235.75 103.438 227.75 103.776 222.473 106.823L159.446 143.212C156.732 144.778 155.175 146.827 155.175 148.832C155.175 150.463 156.228 151.969 158.139 153.073L223.783 190.972Z" fill="url(#paint5_linear_630_2088)"/>
<path d="M224.754 197.435L168.139 164.748C164.114 162.424 164.619 158.364 169.267 155.681L223.625 124.298C228.273 121.614 235.304 121.322 239.329 123.647L295.945 156.334C299.97 158.658 299.466 162.717 294.817 165.4L240.459 196.784C235.811 199.468 228.779 199.76 224.754 197.435V197.435Z" fill="#6DE0F6"/>
<path d="M166.923 163.868C167.527 163.221 168.302 162.603 169.267 162.046L223.625 130.662C228.273 127.978 235.304 127.687 239.329 130.011L295.945 162.698C296.413 162.968 296.814 163.264 297.161 163.577C299.469 161.104 299.135 158.174 295.945 156.332L239.329 123.645C235.304 121.321 228.273 121.612 223.625 124.296L169.267 155.679C165.16 158.05 164.293 161.493 166.923 163.867V163.868Z" fill="#25BFEC"/>
<path d="M271.634 157.58C274.229 154.985 274.229 150.777 271.634 148.181C269.038 145.586 264.83 145.586 262.235 148.181C259.639 150.777 259.639 154.985 262.235 157.58C264.83 160.176 269.038 160.176 271.634 157.58Z" fill="#6DE0F6"/>
<path d="M280.848 156.911C282.709 156.911 284.218 155.401 284.218 153.54C284.218 151.678 282.709 150.169 280.848 150.169C278.986 150.169 277.477 151.678 277.477 153.54C277.477 155.401 278.986 156.911 280.848 156.911Z" fill="#6DE0F6"/>
<path d="M280.931 145.586C280.931 146.326 280.332 146.925 279.592 146.925C278.853 146.925 278.254 146.326 278.254 145.586C278.254 144.847 278.853 144.248 279.592 144.248C280.332 144.248 280.931 144.847 280.931 145.586Z" fill="#6DE0F6"/>
<path d="M286.262 85.5029H263.408L237.968 70.8148C234.692 68.9232 228.969 69.1606 225.185 71.3446L200.663 85.5029H177.821V151.629H177.828C177.735 152.909 178.449 154.144 180.024 155.053L226.106 181.658C229.382 183.55 235.105 183.313 238.888 181.129L283.133 155.584C285.098 154.449 286.145 153.012 286.246 151.628H286.263V85.5022L286.262 85.5029Z" fill="url(#paint6_linear_630_2088)"/>
<path d="M285.594 85.5024V152.356H285.576C285.527 153.023 285.258 153.7 284.785 154.353C285.68 153.491 286.175 152.549 286.242 151.628H286.258V85.5024H285.593H285.594Z" fill="#6EE8FC"/>
<path d="M226.102 115.532L180.021 88.9266C176.744 87.035 177.155 83.7304 180.938 81.5464L225.183 56.0016C228.966 53.8176 234.689 53.5802 237.966 55.4718L284.048 82.077C287.324 83.9686 286.913 87.2732 283.13 89.4572L238.885 115.002C235.102 117.186 229.379 117.423 226.102 115.532Z" fill="url(#paint7_linear_630_2088)"/>
<path d="M227.012 115.532L180.93 88.927C177.653 87.0354 178.065 83.7308 181.848 81.5468L226.092 56.0019C228.033 54.8813 230.484 54.2777 232.853 54.2061C230.213 54.13 227.373 54.7374 225.183 56.0019L180.938 81.5468C177.155 83.7315 176.744 87.0354 180.02 88.927L226.102 115.532C227.698 116.453 229.875 116.866 232.124 116.798C230.206 116.743 228.391 116.329 227.012 115.532Z" fill="#F88B93"/>
<path d="M284.046 82.0768L237.965 55.4717C236.362 54.5462 234.172 54.134 231.912 54.2063C233.827 54.2629 235.637 54.6766 237.014 55.4717L283.096 82.0768C286.373 83.9684 285.961 87.2731 282.178 89.4571L237.934 115.002C236.001 116.117 233.563 116.722 231.203 116.798C233.846 116.876 236.69 116.269 238.883 115.002L283.128 89.4571C286.911 87.2731 287.322 83.9684 284.046 82.0768H284.046Z" fill="#6EE8FC"/>
<path d="M227.619 107.859L193.311 88.0517C190.871 86.6432 191.177 84.1834 193.994 82.5571L226.935 63.5394C229.752 61.9131 234.012 61.7367 236.451 63.1445L270.759 82.952C273.199 84.3605 272.893 86.8203 270.076 88.4466L237.136 107.464C234.319 109.091 230.058 109.267 227.619 107.858V107.859Z" fill="url(#paint8_linear_630_2088)"/>
<path d="M228.834 101.699L203.978 87.3486C202.211 86.3282 202.433 84.5459 204.473 83.368L228.338 69.5895C230.379 68.4116 233.466 68.2834 235.233 69.3038L260.089 83.6543C261.857 84.6747 261.635 86.4571 259.594 87.635L235.729 101.413C233.688 102.591 230.601 102.719 228.834 101.699Z" fill="#6DE0F6"/>
<mask id="mask1_630_2088" style="mask-type:luminance" maskUnits="userSpaceOnUse" x="202" y="68" width="60" height="35">
<path d="M228.838 101.698L203.982 87.3476C202.215 86.3272 202.436 84.5449 204.477 83.367L228.342 69.5885C230.383 68.4106 233.47 68.2825 235.237 69.3029L260.093 83.6534C261.86 84.6738 261.639 86.4561 259.598 87.634L235.733 101.412C233.692 102.59 230.605 102.719 228.838 101.698Z" fill="white"/>
</mask>
<g mask="url(#mask1_630_2088)">
<path d="M204.465 85.3082L228.339 71.5245C230.381 70.3458 233.469 70.2177 235.237 71.2389L260.102 85.5946C260.494 85.8215 260.773 86.089 260.971 86.3754C261.568 85.4017 261.311 84.3496 260.102 83.6525L235.237 69.2968C233.469 68.2764 230.381 68.4037 228.339 69.5824L204.465 83.3662C202.877 84.2833 202.406 85.5622 203.101 86.5675C203.378 86.1169 203.819 85.6813 204.465 85.3082Z" fill="#267FE5"/>
<path d="M204.469 87.6508L228.343 73.8671C230.385 72.6884 233.473 72.5603 235.241 73.5815L260.106 87.9372C260.417 88.1166 260.644 88.3261 260.833 88.5454C261.622 87.5122 261.408 86.3478 260.106 85.5957L235.241 71.2399C233.473 70.2188 230.385 70.3469 228.343 71.5256L204.469 85.3093C202.787 86.2808 202.363 87.6561 203.247 88.6833C203.529 88.314 203.932 87.9613 204.469 87.6508Z" fill="#25BFEC"/>
<path d="M203.485 91.2769C203.746 91.0048 204.06 90.7418 204.466 90.5074L228.34 76.7236C230.382 75.545 233.47 75.4169 235.238 76.438L260.103 90.7938C260.291 90.9023 260.446 91.0236 260.589 91.1487C261.637 90.056 261.518 88.7537 260.103 87.936L235.238 73.5803C233.47 72.5591 230.382 72.6872 228.34 73.8659L204.466 87.6497C202.642 88.7025 202.283 90.2338 203.485 91.2776V91.2769Z" fill="#18D0F7"/>
</g>
<path d="M286.262 74.5232H263.408L237.968 59.8351C234.692 57.9435 228.969 58.1809 225.185 60.3649L200.663 74.5232H177.821V79.2439H177.828C177.735 80.5243 178.449 81.7595 180.024 82.6683L226.106 109.274C229.382 111.165 235.105 110.928 238.888 108.744L283.133 83.1989C285.098 82.064 286.145 80.6275 286.246 79.2431H286.263V74.5224L286.262 74.5232Z" fill="url(#paint9_linear_630_2088)"/>
<path d="M285.594 74.5227V79.9707H285.576C285.527 80.6376 285.258 81.3144 284.785 81.9677C285.68 81.1048 286.175 80.1636 286.242 79.2434H286.258V74.5227H285.593H285.594Z" fill="#6EE8FC"/>
<path d="M226.102 104.554L180.021 77.9486C176.744 76.057 177.155 72.7524 180.938 70.5684L225.183 45.0236C228.966 42.8396 234.689 42.6022 237.966 44.4938L284.048 71.0989C287.324 72.9905 286.913 76.2944 283.13 78.4792L238.885 104.024C235.102 106.208 229.379 106.445 226.102 104.554Z" fill="url(#paint10_linear_630_2088)"/>
<path d="M227.012 104.554L180.93 77.9492C177.653 76.0576 178.065 72.753 181.848 70.569L226.092 45.0242C228.033 43.9035 230.484 43.2991 232.853 43.2283C230.213 43.1522 227.373 43.7596 225.183 45.0242L180.938 70.569C177.155 72.753 176.744 76.0576 180.02 77.9492L226.102 104.554C227.698 105.475 229.875 105.888 232.124 105.82C230.206 105.765 228.391 105.351 227.012 104.554Z" fill="#F88B93"/>
<path d="M284.046 71.0988L237.965 44.4936C236.362 43.5682 234.172 43.156 231.912 43.2283C233.827 43.2848 235.637 43.6993 237.014 44.4936L283.096 71.0988C286.373 72.9904 285.961 76.295 282.178 78.479L237.934 104.024C236.001 105.139 233.563 105.744 231.203 105.819C233.846 105.897 236.69 105.29 238.883 104.024L283.128 78.479C286.911 76.2943 287.322 72.9904 284.046 71.0988H284.046Z" fill="#6EE8FC"/>
<path d="M227.619 96.8812L193.311 77.0737C190.871 75.6652 191.177 73.2054 193.994 71.579L226.935 52.5614C229.752 50.935 234.012 50.7587 236.451 52.1665L270.759 71.9739C273.199 73.3825 272.893 75.8423 270.076 77.4686L237.136 96.4863C234.319 98.1126 230.058 98.289 227.619 96.8804V96.8812Z" fill="url(#paint11_linear_630_2088)"/>
<path d="M228.834 90.7213L203.978 76.3708C202.211 75.3504 202.433 73.5681 204.473 72.3902L228.338 58.6117C230.379 57.4338 233.466 57.3056 235.233 58.3261L260.089 72.6766C261.857 73.697 261.635 75.4793 259.594 76.6572L235.729 90.4357C233.688 91.6136 230.601 91.7417 228.834 90.7213Z" fill="#6DE0F6"/>
<mask id="mask2_630_2088" style="mask-type:luminance" maskUnits="userSpaceOnUse" x="202" y="57" width="60" height="35">
<path d="M228.838 90.7208L203.982 76.3703C202.215 75.3499 202.436 73.5676 204.477 72.3897L228.342 58.6112C230.383 57.4333 233.47 57.3052 235.237 58.3256L260.093 72.6761C261.86 73.6965 261.639 75.4788 259.598 76.6567L235.733 90.4352C233.692 91.6131 230.605 91.7412 228.838 90.7208Z" fill="white"/>
</mask>
<g mask="url(#mask2_630_2088)">
<path d="M204.465 74.3314L228.339 60.5476C230.381 59.369 233.469 59.2409 235.237 60.262L260.102 74.6178C260.494 74.8446 260.773 75.1122 260.971 75.3993C261.568 74.4256 261.311 73.3736 260.102 72.6764L235.237 58.3207C233.469 57.3003 230.381 57.4284 228.339 58.6063L204.465 72.3901C202.877 73.3072 202.406 74.5861 203.101 75.5915C203.378 75.1408 203.819 74.7045 204.465 74.3314Z" fill="#267FE5"/>
<path d="M204.465 76.6733L228.339 62.8895C230.381 61.7109 233.469 61.5828 235.237 62.6039L260.102 76.9597C260.414 77.139 260.64 77.3486 260.83 77.5679C261.619 76.5346 261.405 75.3703 260.102 74.6182L235.237 60.2624C233.469 59.2412 230.381 59.3694 228.339 60.548L204.465 74.3318C202.783 75.3032 202.359 76.6786 203.243 77.7058C203.525 77.3365 203.928 76.9838 204.465 76.6733Z" fill="#25BFEC"/>
<path d="M203.485 80.3007C203.746 80.0287 204.06 79.7656 204.466 79.5313L228.34 65.7475C230.382 64.5688 233.47 64.4407 235.238 65.4619L260.103 79.8177C260.291 79.9262 260.446 80.0475 260.589 80.1726C261.637 79.0791 261.518 77.7776 260.103 76.9599L235.238 62.6041C233.47 61.5837 230.382 61.7111 228.34 62.8898L204.466 76.6735C202.642 77.7263 202.283 79.2577 203.485 80.3015V80.3007Z" fill="#18D0F7"/>
</g>
<path d="M286.262 65.1714H263.408L237.968 50.4833C234.692 48.5917 228.969 48.8291 225.185 51.0131L200.663 65.1714H177.821V69.8921H177.828C177.735 71.1725 178.449 72.4077 180.024 73.3165L226.106 99.9217C229.382 101.813 235.105 101.576 238.888 99.3919L283.133 73.8471C285.098 72.7121 286.145 71.2757 286.246 69.8913H286.263V65.1706L286.262 65.1714Z" fill="url(#paint12_linear_630_2088)"/>
<path d="M285.594 65.1711V70.6191H285.576C285.527 71.286 285.258 71.9635 284.785 72.6162C285.68 71.754 286.175 70.812 286.242 69.8918H286.258V65.1711H285.593H285.594Z" fill="#6EE8FC"/>
<path d="M226.102 95.2005L180.021 68.5954C176.744 66.7038 177.155 63.3991 180.938 61.2151L225.183 35.6703C228.966 33.4855 234.689 33.2489 237.966 35.1405L284.048 61.7457C287.324 63.6373 286.913 66.9419 283.13 69.1259L238.885 94.6707C235.102 96.8547 229.379 97.0921 226.102 95.2005Z" fill="url(#paint13_linear_630_2088)"/>
<path d="M227.012 95.2009L180.93 68.5957C177.653 66.7041 178.065 63.3995 181.848 61.2155L226.092 35.6707C228.033 34.55 230.484 33.9456 232.853 33.8748C230.213 33.7987 227.373 34.4061 225.183 35.6707L180.938 61.2155C177.155 63.3995 176.744 66.7041 180.02 68.5957L226.102 95.2009C227.698 96.1218 229.875 96.5348 232.124 96.4669C230.206 96.4112 228.391 95.9974 227.012 95.2009Z" fill="#F88B93"/>
<path d="M284.046 61.7453L237.965 35.1401C236.362 34.2147 234.172 33.8024 231.912 33.8748C233.827 33.9313 235.637 34.3458 237.014 35.1401L283.096 61.7453C286.373 63.6369 285.961 66.9415 282.178 69.1255L237.934 94.6703C236.001 95.7857 233.563 96.3901 231.203 96.4655C233.846 96.5438 236.69 95.9364 238.883 94.6703L283.128 69.1255C286.911 66.9415 287.322 63.6369 284.046 61.7453H284.046Z" fill="#6EE8FC"/>
<path d="M227.619 87.5275L193.311 67.7201C190.871 66.3115 191.177 63.8517 193.994 62.2254L226.935 43.2077C229.752 41.5814 234.012 41.4051 236.451 42.8136L270.759 62.6211C273.199 64.0296 272.893 66.4894 270.076 68.1157L237.136 87.1334C234.319 88.7597 230.058 88.9361 227.619 87.5275Z" fill="url(#paint14_linear_630_2088)"/>
<path d="M228.834 81.3688L203.978 67.0183C202.211 65.9979 202.433 64.2155 204.473 63.0376L228.338 49.2591C230.379 48.0812 233.466 47.9531 235.233 48.9735L260.089 63.324C261.857 64.3444 261.635 66.1267 259.594 67.3046L235.729 81.0831C233.688 82.2611 230.601 82.3892 228.834 81.3688Z" fill="#6DE0F6"/>
<mask id="mask3_630_2088" style="mask-type:luminance" maskUnits="userSpaceOnUse" x="202" y="48" width="60" height="35">
<path d="M228.838 81.3697L203.982 67.0192C202.215 65.9988 202.436 64.2165 204.477 63.0386L228.342 49.2601C230.383 48.0822 233.47 47.9541 235.237 48.9745L260.093 63.325C261.86 64.3454 261.639 66.1277 259.598 67.3056L235.733 81.0841C233.692 82.262 230.605 82.3901 228.838 81.3697Z" fill="white"/>
</mask>
<g mask="url(#mask3_630_2088)">
<path d="M204.465 64.9784L228.339 51.1946C230.381 50.016 233.469 49.8879 235.237 50.909L260.102 65.2648C260.494 65.4909 260.773 65.7592 260.971 66.0455C261.568 65.0719 261.311 64.0198 260.102 63.3227L235.237 48.9669C233.469 47.9465 230.381 48.0739 228.339 49.2526L204.465 63.0363C202.877 63.9535 202.406 65.2324 203.101 66.2377C203.378 65.787 203.819 65.3515 204.465 64.9784Z" fill="#267FE5"/>
<path d="M204.469 67.3207L228.343 53.5369C230.385 52.3583 233.473 52.2301 235.241 53.2513L260.106 67.6071C260.417 67.7864 260.644 67.9959 260.833 68.2153C261.622 67.182 261.408 66.0177 260.106 65.2656L235.241 50.9098C233.473 49.8894 230.385 50.0168 228.343 51.1954L204.469 64.9792C202.787 65.9506 202.363 67.326 203.247 68.3532C203.529 67.9839 203.932 67.6312 204.469 67.3207Z" fill="#25BFEC"/>
<path d="M203.485 70.9484C203.746 70.6764 204.06 70.4134 204.466 70.179L228.34 56.3952C230.382 55.2165 233.47 55.0884 235.238 56.1096L260.103 70.4654C260.291 70.5739 260.446 70.696 260.589 70.8203C261.637 69.7268 261.518 68.4253 260.103 67.6076L235.238 53.2518C233.47 52.2314 230.382 52.3588 228.34 53.5375L204.466 67.3212C202.642 68.3741 202.283 69.9054 203.485 70.9492V70.9484Z" fill="#18D0F7"/>
</g>
<path d="M222.727 171.687L185.298 150.077C184.29 149.495 183.473 147.933 183.473 146.589V100.629C183.473 99.2847 184.29 98.6675 185.298 99.2493L222.727 120.859C223.736 121.441 224.553 123.003 224.553 124.347V170.307C224.553 171.651 223.736 172.269 222.727 171.687Z" fill="url(#paint15_linear_630_2088)"/>
<path d="M223.396 171.405L185.966 149.795C184.958 149.213 184.141 147.651 184.141 146.307V100.347C184.141 99.7457 184.311 99.3003 184.582 99.032C183.93 99.0267 183.473 99.6251 183.473 100.63V146.589C183.473 147.934 184.29 149.495 185.298 150.077L222.727 171.687C223.284 172.009 223.776 171.953 224.112 171.623C223.892 171.62 223.651 171.551 223.397 171.404L223.396 171.405Z" fill="#6DE0F6"/>
<path d="M217.226 161.043L190.797 145.785C190.084 145.374 189.508 144.271 189.508 143.322V110.869C189.508 109.92 190.085 109.484 190.797 109.895L217.226 125.154C217.937 125.565 218.515 126.667 218.515 127.617V160.069C218.515 161.018 217.937 161.455 217.226 161.044V161.043Z" fill="#6DE0F6"/>
<path d="M192.616 144.571C191.904 144.16 191.327 143.057 191.327 142.108V110.201L190.797 109.895C190.084 109.484 189.508 109.92 189.508 110.869V143.322C189.508 144.271 190.085 145.373 190.797 145.784L217.226 161.043C217.937 161.454 218.515 161.018 218.515 160.069V159.524L192.616 144.571V144.571Z" fill="#267FE5"/>
<path d="M199.655 123.845L194.266 120.733V119.818L199.655 122.93V123.845Z" fill="#267FE5"/>
<path d="M203.936 126.316L201.242 124.761V123.845L203.936 125.401V126.316Z" fill="#18D0F7"/>
<path d="M208.039 128.685L205.344 127.129V126.214L208.039 127.77V128.685Z" fill="#267FE5"/>
<path d="M212.136 131.053L209.441 129.497V128.582L212.136 130.137V131.053Z" fill="#267FE5"/>
<path d="M199.655 126.041L194.266 122.929V122.014L199.655 125.125V126.041Z" fill="#267FE5"/>
<path d="M203.936 128.512L201.242 126.956V126.041L203.936 127.596V128.512Z" fill="#18D0F7"/>
<path d="M208.039 130.882L205.344 129.325V128.41L208.039 129.966V130.882Z" fill="#267FE5"/>
<path d="M212.136 133.249L209.441 131.693V130.778L212.136 132.334V133.249Z" fill="#267FE5"/>
<path d="M199.655 128.239L194.266 125.127V124.212L199.655 127.324V128.239Z" fill="#267FE5"/>
<path d="M205.998 130.983L205.343 130.605L201.242 128.237V129.153L205.343 131.521L205.998 131.898L208.038 133.076V132.161L205.998 130.983Z" fill="#267FE5"/>
<path d="M212.136 135.444L209.441 133.889V132.974L212.136 134.529V135.444Z" fill="#267FE5"/>
<path d="M213.547 130.949V133.146V134.061V135.342V135.605V136.257L216.242 137.813V137.161V136.898V135.617V134.702V132.505L213.547 130.949Z" fill="#267FE5"/>
<path d="M199.655 130.435L194.266 127.324V126.408L199.655 129.52V130.435Z" fill="#18D0F7"/>
<path d="M203.936 132.905L201.242 131.35V130.435L203.936 131.99V132.905Z" fill="#267FE5"/>
<path d="M208.039 134.358L207.318 133.942L205.344 132.802V133.717L207.318 134.857L208.039 135.273L212.14 137.641V136.726L208.039 134.358Z" fill="#267FE5"/>
<path d="M216.242 140.008L213.547 138.453V137.537L216.242 139.094V140.008Z" fill="#267FE5"/>
<path d="M199.655 137.024L194.266 133.912V132.998L199.655 136.109V137.024Z" fill="#267FE5"/>
<path d="M203.936 139.494L201.242 137.938V137.023L203.936 138.578V139.494Z" fill="#267FE5"/>
<path d="M208.039 140.948L207.318 140.532L205.344 139.392V140.308L207.318 141.447L208.039 141.863L212.14 144.231V143.316L208.039 140.948Z" fill="#267FE5"/>
<path d="M216.242 146.599L213.547 145.044V144.129L216.242 145.684V146.599Z" fill="#267FE5"/>
<path d="M199.655 139.221L194.266 136.109V135.194L199.655 138.305V139.221Z" fill="#267FE5"/>
<path d="M203.936 141.691L201.242 140.135V139.22L203.936 140.776V141.691Z" fill="#267FE5"/>
<path d="M216.242 148.796L213.547 147.24V146.325L216.242 147.881V148.796Z" fill="#267FE5"/>
<path d="M199.655 141.416L194.266 138.305V137.39L199.655 140.501V141.416Z" fill="#267FE5"/>
<path d="M203.936 143.888L201.242 142.331V141.417L203.936 142.972V143.888Z" fill="#267FE5"/>
<path d="M208.039 143.143L207.318 142.728L205.344 141.588V142.228V142.503V144.7L207.318 145.839L208.039 146.255L212.14 148.623V146.427V146.152V145.511L208.039 143.143Z" fill="#18D0F7"/>
<path d="M216.242 150.992L213.547 149.436V148.521L216.242 150.076V150.992Z" fill="#267FE5"/>
<path d="M199.655 132.631L194.266 129.519V128.604L199.655 131.716V132.631Z" fill="#267FE5"/>
<path d="M203.936 135.102L201.242 133.546V132.631L203.936 134.186V135.102Z" fill="#18D0F7"/>
<path d="M212.136 139.838L209.441 138.282V137.367L212.136 138.923V139.838Z" fill="#267FE5"/>
<path d="M216.242 142.205L213.547 140.65V139.735L216.242 141.291V142.205Z" fill="#267FE5"/>
<path d="M199.655 134.827L194.266 131.716V130.8L199.655 133.912V134.827Z" fill="#267FE5"/>
<path d="M203.936 137.297L201.242 135.742V134.827L203.936 136.382V137.297Z" fill="#267FE5"/>
<path d="M205.344 134.998V135.456V135.914V138.11L208.039 139.666V137.469V137.012V136.555L205.344 134.998Z" fill="#18D0F7"/>
<path d="M212.136 142.035L209.441 140.478V139.563L212.136 141.119V142.035Z" fill="#267FE5"/>
<path d="M216.242 144.402L213.547 142.846V141.931L216.242 143.487V144.402Z" fill="#267FE5"/>
<path opacity="0.5" d="M240.002 170.97C239.806 170.97 239.621 170.922 239.455 170.826C239.009 170.569 238.754 169.994 238.754 169.248V127.637C238.754 126.299 239.577 124.735 240.588 124.152L277.16 103.036C277.644 102.757 278.118 102.725 278.498 102.945C278.944 103.202 279.199 103.777 279.199 104.523V146.133C279.199 147.472 278.377 149.036 277.366 149.619L240.794 170.735C240.523 170.892 240.254 170.97 240.002 170.97ZM277.948 103.211C277.77 103.211 277.574 103.272 277.366 103.392L240.794 124.508C239.896 125.027 239.165 126.43 239.165 127.637V169.248C239.165 169.842 239.346 170.288 239.661 170.47C239.911 170.614 240.233 170.583 240.587 170.379L277.159 149.263C278.057 148.745 278.788 147.341 278.788 146.133V104.523C278.788 103.928 278.607 103.483 278.292 103.301C278.188 103.242 278.073 103.211 277.948 103.211Z" fill="#0F133B"/>
<path style="mix-blend-mode:lighten" d="M261.198 -3.50659H202.781V65.0241H202.819C202.686 65.7732 203.056 66.5088 203.973 67.0386L228.794 81.3695C230.559 82.3884 233.641 82.2603 235.679 81.0839L259.511 67.3242C260.651 66.6655 261.201 65.8207 261.174 65.0234H261.197V-3.50659H261.198Z" fill="url(#paint16_linear_630_2088)"/>
</g>
</g>
<defs>
<radialGradient id="paint0_radial_630_2088" cx="0" cy="0" r="1" gradientUnits="userSpaceOnUse" gradientTransform="translate(226.729 122.532) scale(357.117 315.864)">
<stop stop-color="#22215B"/>
<stop offset="0.326" stop-color="#1E1E55"/>
<stop offset="0.751" stop-color="#141544"/>
<stop offset="1" stop-color="#0C0F38"/>
</radialGradient>
<linearGradient id="paint1_linear_630_2088" x1="130.85" y1="149.784" x2="105.792" y2="174.842" gradientUnits="userSpaceOnUse">
<stop stop-color="#D4088C"/>
<stop offset="0.045" stop-color="#CB078B"/>
<stop offset="0.462" stop-color="#85068A"/>
<stop offset="0.762" stop-color="#580689"/>
<stop offset="0.914" stop-color="#480689"/>
</linearGradient>
<linearGradient id="paint2_linear_630_2088" x1="148.6" y1="37.1224" x2="133.926" y2="37.1224" gradientUnits="userSpaceOnUse">
<stop stop-color="#6EE8FC"/>
<stop offset="0.157" stop-color="#69E1FA"/>
<stop offset="0.368" stop-color="#5ED0F6"/>
<stop offset="0.609" stop-color="#4AB4F0"/>
<stop offset="0.872" stop-color="#308EE8"/>
<stop offset="0.962" stop-color="#267FE5"/>
</linearGradient>
<linearGradient id="paint3_linear_630_2088" x1="338.106" y1="101.972" x2="367.65" y2="116.653" gradientUnits="userSpaceOnUse">
<stop stop-color="#6EE8FC"/>
<stop offset="0.157" stop-color="#69E1FA"/>
<stop offset="0.368" stop-color="#5ED0F6"/>
<stop offset="0.609" stop-color="#4AB4F0"/>
<stop offset="0.872" stop-color="#308EE8"/>
<stop offset="0.962" stop-color="#267FE5"/>
</linearGradient>
<linearGradient id="paint4_linear_630_2088" x1="154.421" y1="160.54" x2="309.666" y2="160.54" gradientUnits="userSpaceOnUse">
<stop stop-color="#D4088C"/>
<stop offset="0.226" stop-color="#D4088C"/>
<stop offset="0.511" stop-color="#6EE1F8"/>
<stop offset="0.78" stop-color="#6EE8FC"/>
<stop offset="1" stop-color="#6EE8FC"/>
</linearGradient>
<linearGradient id="paint5_linear_630_2088" x1="7.35157" y1="148.52" x2="8.10519" y2="148.52" gradientUnits="userSpaceOnUse">
<stop stop-color="#D4088C"/>
<stop offset="0.226" stop-color="#D4088C"/>
<stop offset="0.511" stop-color="#6EE1F8"/>
<stop offset="0.78" stop-color="#6EE8FC"/>
<stop offset="1" stop-color="#6EE8FC"/>
</linearGradient>
<linearGradient id="paint6_linear_630_2088" x1="167.557" y1="126.237" x2="299.682" y2="126.237" gradientUnits="userSpaceOnUse">
<stop stop-color="#A31FA9"/>
<stop offset="0.067" stop-color="#8A16A0"/>
<stop offset="0.149" stop-color="#740F98"/>
<stop offset="0.239" stop-color="#640A92"/>
<stop offset="0.341" stop-color="#5A068F"/>
<stop offset="0.478" stop-color="#58068E"/>
<stop offset="0.626" stop-color="#4D21A3"/>
<stop offset="0.944" stop-color="#3167D9"/>
<stop offset="1" stop-color="#2C75E4"/>
</linearGradient>
<linearGradient id="paint7_linear_630_2088" x1="154.474" y1="72.5497" x2="235.435" y2="56.9704" gradientUnits="userSpaceOnUse">
<stop stop-color="#8D139B"/>
<stop offset="0.165" stop-color="#841BA1"/>
<stop offset="0.428" stop-color="#6D32B1"/>
<stop offset="0.755" stop-color="#4958CC"/>
<stop offset="1" stop-color="#2979E4"/>
</linearGradient>
<linearGradient id="paint8_linear_630_2088" x1="165.036" y1="70.5179" x2="225.312" y2="58.9185" gradientUnits="userSpaceOnUse">
<stop stop-color="#630692"/>
<stop offset="0.226" stop-color="#5A0D93"/>
<stop offset="0.587" stop-color="#432299"/>
<stop offset="1" stop-color="#2142A1"/>
</linearGradient>
<linearGradient id="paint9_linear_630_2088" x1="-1213.11" y1="84.5547" x2="-1212.36" y2="84.5547" gradientUnits="userSpaceOnUse">
<stop stop-color="#A31FA9"/>
<stop offset="0.067" stop-color="#8A16A0"/>
<stop offset="0.149" stop-color="#740F98"/>
<stop offset="0.239" stop-color="#640A92"/>
<stop offset="0.341" stop-color="#5A068F"/>
<stop offset="0.478" stop-color="#58068E"/>
<stop offset="0.626" stop-color="#4D21A3"/>
<stop offset="0.944" stop-color="#3167D9"/>
<stop offset="1" stop-color="#2C75E4"/>
</linearGradient>
<linearGradient id="paint10_linear_630_2088" x1="149.721" y1="58.8277" x2="230.682" y2="43.2481" gradientUnits="userSpaceOnUse">
<stop stop-color="#8D139B"/>
<stop offset="0.165" stop-color="#841BA1"/>
<stop offset="0.428" stop-color="#6D32B1"/>
<stop offset="0.755" stop-color="#4958CC"/>
<stop offset="1" stop-color="#2979E4"/>
</linearGradient>
<linearGradient id="paint11_linear_630_2088" x1="160.282" y1="56.7955" x2="220.558" y2="45.1968" gradientUnits="userSpaceOnUse">
<stop stop-color="#630692"/>
<stop offset="0.226" stop-color="#5A0D93"/>
<stop offset="0.587" stop-color="#432299"/>
<stop offset="1" stop-color="#2142A1"/>
</linearGradient>
<linearGradient id="paint12_linear_630_2088" x1="-1213.11" y1="75.2021" x2="-1212.36" y2="75.2021" gradientUnits="userSpaceOnUse">
<stop stop-color="#A31FA9"/>
<stop offset="0.067" stop-color="#8A16A0"/>
<stop offset="0.149" stop-color="#740F98"/>
<stop offset="0.239" stop-color="#640A92"/>
<stop offset="0.341" stop-color="#5A068F"/>
<stop offset="0.478" stop-color="#58068E"/>
<stop offset="0.626" stop-color="#4D21A3"/>
<stop offset="0.944" stop-color="#3167D9"/>
<stop offset="1" stop-color="#2C75E4"/>
</linearGradient>
<linearGradient id="paint13_linear_630_2088" x1="145.671" y1="47.1372" x2="226.633" y2="31.5572" gradientUnits="userSpaceOnUse">
<stop stop-color="#8D139B"/>
<stop offset="0.165" stop-color="#841BA1"/>
<stop offset="0.428" stop-color="#6D32B1"/>
<stop offset="0.755" stop-color="#4958CC"/>
<stop offset="1" stop-color="#2979E4"/>
</linearGradient>
<linearGradient id="paint14_linear_630_2088" x1="156.232" y1="45.1046" x2="216.509" y2="33.5056" gradientUnits="userSpaceOnUse">
<stop stop-color="#630692"/>
<stop offset="0.226" stop-color="#5A0D93"/>
<stop offset="0.587" stop-color="#432299"/>
<stop offset="1" stop-color="#2142A1"/>
</linearGradient>
<linearGradient id="paint15_linear_630_2088" x1="150.904" y1="116.185" x2="275.673" y2="161.489" gradientUnits="userSpaceOnUse">
<stop stop-color="#630692"/>
<stop offset="0.226" stop-color="#5A0D93"/>
<stop offset="0.587" stop-color="#432299"/>
<stop offset="1" stop-color="#2142A1"/>
</linearGradient>
<linearGradient id="paint16_linear_630_2088" x1="231.989" y1="82.0575" x2="231.989" y2="-3.50659" gradientUnits="userSpaceOnUse">
<stop stop-color="#6DE0F6"/>
<stop offset="0.096" stop-color="#57B1CC"/>
<stop offset="0.201" stop-color="#4386A5"/>
<stop offset="0.311" stop-color="#326183"/>
<stop offset="0.426" stop-color="#244367"/>
<stop offset="0.547" stop-color="#192C52"/>
<stop offset="0.675" stop-color="#111B43"/>
<stop offset="0.817" stop-color="#0D123A"/>
<stop offset="1" stop-color="#0C0F38"/>
</linearGradient>
<clipPath id="clip0_630_2088">
<rect width="500" height="339.13" fill="white" transform="translate(-17 -45.9783)"/>
</clipPath>
</defs>
</svg>
